<svg xmlns="http://www.w3.org/2000/svg" width="3378" height="3400" viewBox="0 0 3378 3400" version="1.1"><path d="M 201 1391 L 201 2582 1689 2582 L 3177 2582 3177 1391 L 3177 200 1689 200 L 201 200 201 1391 M 533.652 377.048 C 492.826 380.042, 456.678 397.169, 426 428.053 C 400.186 454.041, 385.260 483.425, 379.804 519 C 378.740 525.937, 378.500 686.247, 378.500 1391 C 378.500 2222.399, 378.568 2254.853, 380.323 2264 C 382.733 2276.558, 385.582 2286.833, 389.197 2296 C 407.690 2342.891, 451.169 2383.791, 497.500 2397.876 C 516.869 2403.765, 522.415 2404.500, 547.500 2404.500 C 567.800 2404.500, 571.777 2404.227, 581.378 2402.172 C 628.209 2392.148, 668.694 2362.869, 691.797 2322.315 C 701.306 2305.623, 707.909 2287.535, 711.722 2267.736 C 713.418 2258.928, 713.500 2218.236, 713.500 1389 L 713.500 519.500 711.190 509 C 706.468 487.537, 698.206 467.639, 687.521 452 C 651.487 399.257, 596.440 372.443, 533.652 377.048 M 2001.847 377.102 C 1979.592 378.816, 1960.561 384.104, 1939.500 394.426 C 1917.267 405.322, 1900.509 419.072, 1884.993 439.148 C 1866.396 463.211, 1854.426 488.393, 1848.700 515.500 L 1846.587 525.500 1846.286 1402.250 L 1845.984 2279 1804.492 2279 L 1763 2279 1763 1333.500 L 1763 388 1700 388 L 1637 388 1637 1391 L 1637 2394 1741.500 2394 L 1846 2394 1846 2336.500 L 1846 2279 1857.500 2279 L 1869 2279 1869 2336.500 L 1869 2394 1921 2394 L 1973 2394 1973 1921 L 1973 1448 2014.500 1448 L 2056 1448 2056 1921 L 2056 2394 2119.500 2394 L 2183 2394 2182.977 1468.250 C 2182.963 893.518, 2182.595 537.872, 2182.005 530.295 C 2180.172 506.728, 2175.611 489.922, 2165.504 469.500 C 2157.028 452.374, 2148.127 440.141, 2133.493 425.507 C 2109.378 401.392, 2081.970 386.256, 2051.107 380.008 C 2042.291 378.223, 2018.906 375.805, 2014 376.170 C 2013.175 376.232, 2007.706 376.651, 2001.847 377.102 M 2840.264 377.053 C 2811.778 379.295, 2785.234 388.547, 2761.501 404.507 C 2721.616 431.329, 2695.837 469.646, 2687.749 514.129 L 2685.500 526.500 2685.500 911 C 2685.500 1278.269, 2685.582 1295.984, 2687.321 1306.309 C 2694.981 1351.781, 2722.591 1393.906, 2761.871 1420.053 C 2788.380 1437.698, 2814.151 1446.121, 2847.467 1448.027 C 2864.159 1448.983, 2869.020 1450.064, 2876.601 1454.507 C 2882.551 1457.993, 2889.514 1466.161, 2892.196 1472.798 L 2894.500 1478.500 2894.803 1865 C 2895.030 2154.701, 2894.816 2252.877, 2893.949 2257 C 2890.712 2272.398, 2877.762 2284.402, 2861.604 2286.983 C 2843.269 2289.912, 2823.630 2280.151, 2815.781 2264.206 L 2812.500 2257.542 2812 1874.730 L 2811.500 1491.917 2748.500 1491.955 L 2685.500 1491.993 2685.500 1872.247 L 2685.500 2252.500 2687.700 2264.583 C 2693.173 2294.637, 2705.343 2320.297, 2725.279 2343.816 C 2753.855 2377.527, 2792.027 2398.957, 2832.599 2404.064 C 2846.471 2405.810, 2876.771 2404.746, 2889.159 2402.077 C 2921.780 2395.050, 2948.242 2379.984, 2973.078 2354.299 C 2999.039 2327.450, 3013.089 2299.913, 3019.685 2262.949 C 3021.242 2254.222, 3021.399 2224.876, 3021.734 1879 C 3021.983 1622.444, 3021.764 1499.813, 3021.040 1489.617 C 3019.780 1471.866, 3017.271 1458.844, 3012.432 1444.943 C 3000.834 1411.622, 2977.300 1381.585, 2946.547 1360.852 C 2921.015 1343.639, 2895.302 1335.662, 2857.500 1333.225 C 2845.368 1332.443, 2842.804 1331.968, 2838.287 1329.663 C 2827.677 1324.251, 2819.615 1314.267, 2816.577 1302.779 C 2815.041 1296.971, 2814.939 1267.534, 2815.208 910 L 2815.500 523.500 2817.743 518 C 2822.293 506.842, 2832.501 496.675, 2842.500 493.340 C 2848.274 491.415, 2859.689 491.149, 2865.500 492.805 C 2876.274 495.875, 2887.329 506.252, 2892.132 517.804 L 2894.500 523.500 2895 905.500 L 2895.500 1287.500 2958.500 1287.500 L 3021.500 1287.500 3021.789 917.500 C 3021.986 666.855, 3021.741 542.699, 3021.031 532.617 C 3019.222 506.921, 3013.967 487.391, 3003.375 467 C 2995.380 451.609, 2986.036 439.051, 2972.500 425.507 C 2946.317 399.308, 2916.443 383.829, 2882 378.612 C 2869.293 376.687, 2852.759 376.070, 2840.264 377.053 M 798 1390.954 L 798 2394 887.039 2394 C 978.741 2394, 986.915 2393.711, 1004.943 2389.837 C 1030.712 2384.299, 1056.409 2370.965, 1077.241 2352.322 C 1106.814 2325.857, 1124.997 2293.648, 1131.659 2255.928 C 1133.438 2245.853, 1133.500 2216.542, 1133.500 1391 C 1133.500 565.458, 1133.438 536.147, 1131.659 526.072 C 1123.602 480.450, 1097.966 441.679, 1058.151 414.900 C 1040.773 403.212, 1022.798 395.741, 1000 390.732 C 990.805 388.712, 987.410 388.633, 894.250 388.276 L 798 387.907 798 1390.954 M 1217 1391 L 1217 2394 1385 2394 L 1553 2394 1553 1963 L 1553 1532 1490 1532 L 1427 1532 1427 1905.500 L 1427 2279 1385.362 2279 L 1343.724 2279 1344.506 2034.750 C 1344.936 1900.412, 1345.561 1713.550, 1345.894 1619.500 L 1346.500 1448.500 1449.750 1448.245 L 1553 1447.991 1553 1390.495 L 1553 1333 1448.500 1333 L 1344 1333 1344 918 L 1344 503 1385.500 503 L 1427 503 1427 876.500 L 1427 1250 1490 1250 L 1553 1250 1553 819 L 1553 388 1385 388 L 1217 388 1217 1391 M 2266 1391.004 L 2266 2394.093 2361.750 2393.701 C 2445.054 2393.361, 2458.519 2393.099, 2465.341 2391.691 C 2501.049 2384.317, 2527.098 2370.578, 2551.970 2346 C 2573.352 2324.870, 2586.171 2304.280, 2594.445 2277.778 C 2602.100 2253.258, 2601.378 2294.191, 2601.722 1865 C 2602.058 1445.533, 2602.366 1470.175, 2596.492 1447.566 C 2591.811 1429.551, 2583.889 1411.996, 2573.395 1396.387 L 2567.815 1388.087 2573.330 1379.793 C 2585.554 1361.413, 2594.832 1338.356, 2599.205 1315.500 L 2601.500 1303.500 2601.500 919.500 C 2601.500 552.358, 2601.420 535.047, 2599.677 525.182 C 2593.586 490.712, 2578.849 462.888, 2552.980 437.020 C 2527.583 411.622, 2500.800 397.248, 2466 390.339 C 2458.468 388.844, 2446.590 388.610, 2361.750 388.284 L 2266 387.915 2266 1391.004 M 540.186 492.118 C 527.220 494.275, 515.434 503.296, 509.259 515.790 L 505.500 523.396 505.500 1390.948 L 505.500 2258.500 508.882 2264.737 C 519.624 2284.545, 544.971 2293.027, 565.430 2283.661 C 575.646 2278.983, 583.599 2269.476, 586.450 2258.530 C 587.844 2253.178, 588 2165.935, 588 1391 C 588 620.157, 587.839 528.800, 586.467 523.535 C 582.061 506.619, 569.620 494.604, 553.862 492.047 C 550.363 491.480, 547.050 491.064, 546.500 491.124 C 545.950 491.185, 543.109 491.632, 540.186 492.118 M 2008.780 492.030 C 1993.914 494.535, 1978.933 508.074, 1974.588 522.932 C 1973.149 527.854, 1973 566.075, 1973 930.682 L 1973 1333 2014.500 1333 L 2056 1333 2056 930.605 C 2056 533.484, 2055.974 528.127, 2054.036 521.855 C 2050.574 510.654, 2042.162 500.143, 2032.908 495.453 C 2028.898 493.421, 2017.655 490.778, 2014.500 491.125 C 2013.950 491.186, 2011.376 491.593, 2008.780 492.030 M 924 1391 L 924 2279 948.318 2279 C 967.424 2279, 973.801 2278.664, 978.068 2277.432 C 990.736 2273.777, 1001.489 2262.591, 1005.414 2248.986 C 1006.864 2243.961, 1006.982 2167.568, 1006.752 1387.486 L 1006.500 531.500 1003.865 525.880 C 999.033 515.576, 989.939 507.767, 979.068 504.588 C 974.751 503.326, 968.546 503, 948.818 503 L 924 503 924 1391 M 2395 918.061 L 2395 1333.123 2420.750 1332.811 L 2446.500 1332.500 2451.954 1329.630 C 2463.522 1323.542, 2472.883 1310.269, 2474.965 1297 C 2476.391 1287.910, 2476.379 544.931, 2474.953 536.138 C 2472.472 520.849, 2461.316 508.299, 2446.764 504.425 C 2442.975 503.416, 2434.985 503.020, 2418.250 503.012 L 2395 503 2395 918.061 M 2395.750 1448.565 C 2395.338 1448.988, 2395 1636.008, 2395 1864.167 L 2395 2279 2417.895 2279 C 2444.159 2279, 2449.640 2277.954, 2458.500 2271.249 C 2464.320 2266.845, 2471.198 2257.109, 2473.729 2249.691 C 2475.410 2244.765, 2475.514 2225.264, 2475.773 1868 C 2475.962 1608.454, 2475.720 1489.366, 2474.996 1484.629 C 2473.484 1474.747, 2469.747 1467.598, 2462.076 1459.909 C 2451.743 1449.552, 2448.953 1448.778, 2420 1448.236 C 2407.075 1447.995, 2396.162 1448.143, 2395.750 1448.565 M 1083.180 2761.726 C 1080.710 2764.347, 1077.128 2770.928, 1072.287 2781.740 C 1064.318 2799.538, 1043.810 2850.719, 1032.514 2881 C 1028.514 2891.725, 1022.880 2906.575, 1019.995 2914 C 1017.109 2921.425, 1010.550 2939.650, 1005.418 2954.500 C 1000.286 2969.350, 991.805 2993.425, 986.570 3008 L 977.054 3034.500 977.592 2962 C 978.077 2896.730, 978.704 2870.196, 980.653 2832.462 C 981.471 2816.619, 980.431 2805.431, 977.906 2802.906 C 973.493 2798.493, 969.083 2801.821, 963.245 2813.969 C 961.255 2818.111, 957.900 2824.173, 955.791 2827.440 C 943.895 2845.862, 933.702 2870.147, 916.943 2920 C 906.580 2950.826, 892.664 2987.901, 888.163 2996.675 L 886.301 3000.303 884.150 2992.334 C 881.481 2982.439, 881.292 2962.978, 883.438 2918.976 C 884.228 2902.764, 885.140 2880.500, 885.464 2869.500 C 885.788 2858.500, 886.537 2842.641, 887.128 2834.257 C 888.792 2810.661, 886.562 2804.996, 875.615 2805.004 C 865.063 2805.011, 860.514 2811.802, 858.869 2830 C 858.397 2835.225, 857.328 2847.375, 856.494 2857 C 855.660 2866.625, 854.344 2880.800, 853.569 2888.500 C 851.710 2906.975, 849.973 2938.524, 849.988 2953.529 C 850.002 2967.097, 853.258 2998.348, 855.600 3007.385 C 858.422 3018.275, 864.268 3027.536, 870.285 3030.647 C 874.820 3032.992, 881.523 3031.953, 885.046 3028.359 C 890.099 3023.203, 903.891 2994.804, 910.451 2976.046 C 913.885 2966.228, 936.845 2904.377, 942.022 2891 L 944.924 2883.500 944.962 2889.410 C 944.983 2892.660, 944.357 2901.885, 943.571 2909.910 C 941.697 2929.052, 940.668 2999.382, 942.005 3017 C 944.969 3056.081, 952.491 3073, 966.899 3073 C 969.995 3073, 971.763 3072.269, 974.516 3069.852 C 979.214 3065.727, 979.822 3064.442, 987.028 3043.396 C 990.398 3033.553, 996.092 3017.850, 999.682 3008.500 C 1003.271 2999.150, 1011.298 2976.650, 1017.520 2958.500 C 1029.977 2922.160, 1034.983 2908.427, 1044.491 2884.500 C 1047.988 2875.700, 1053.177 2862.425, 1056.023 2855 C 1070.230 2817.932, 1080.580 2793.560, 1089.607 2775.914 C 1095.366 2764.658, 1095.259 2760.321, 1089.180 2758.511 C 1087.316 2757.956, 1086.138 2758.587, 1083.180 2761.726 M 2031.304 2763.956 C 2029.547 2765.028, 2027.326 2767.100, 2026.368 2768.561 C 2023.643 2772.720, 2014.472 2803.922, 2007.428 2833 C 2003.897 2847.575, 2000.499 2860.745, 1999.876 2862.266 C 1999.074 2864.225, 1996.521 2866.199, 1991.122 2869.032 C 1980.829 2874.433, 1972 2882.897, 1972 2887.363 C 1972 2889.482, 1974.786 2892, 1977.131 2892 C 1978.225 2892, 1981.455 2889.830, 1984.310 2887.178 C 1990.235 2881.672, 1995.893 2877.560, 1996.588 2878.254 C 1997.100 2878.766, 1992.659 2910.737, 1988.497 2936.500 C 1986.576 2948.394, 1985.785 2957.708, 1985.416 2972.794 L 1984.919 2993.087 1980.928 3002.288 C 1975.412 3015.006, 1969.955 3023.865, 1964.591 3028.809 C 1960.780 3032.322, 1959.375 3033, 1955.908 3033 C 1950.596 3033, 1944.543 3029.608, 1941.701 3025.038 C 1938.498 3019.889, 1938.604 3001.206, 1941.904 2989 C 1945.868 2974.344, 1944.448 2966.113, 1936.799 2959.397 C 1934.920 2957.747, 1927.086 2953.922, 1918.740 2950.579 C 1910.633 2947.332, 1904 2944.254, 1904 2943.738 C 1904 2943.223, 1905.586 2940.232, 1907.525 2937.091 C 1911.084 2931.324, 1916.851 2914.331, 1919.062 2903.092 C 1921.428 2891.066, 1918.613 2876.530, 1912.683 2870.153 C 1911.482 2868.862, 1908.720 2866.893, 1906.544 2865.777 C 1898.794 2861.804, 1883.917 2865.334, 1879.330 2872.235 C 1878.136 2874.031, 1875.223 2879.318, 1872.856 2883.983 C 1868.808 2891.961, 1868.528 2893.055, 1868.156 2902.337 C 1867.433 2920.336, 1870.614 2932.865, 1878.906 2944.673 C 1884.356 2952.433, 1888.790 2956.637, 1896.930 2961.762 C 1899.994 2963.691, 1904.828 2967.037, 1907.673 2969.197 L 1912.846 2973.124 1911.375 2976.645 C 1908.628 2983.219, 1908.105 3009.223, 1910.534 3018.500 C 1912.742 3026.937, 1915.875 3031.771, 1924.025 3039.317 C 1932.708 3047.356, 1938.500 3050.301, 1946.659 3050.825 C 1952.045 3051.172, 1953.612 3050.819, 1959.159 3048.017 C 1967.157 3043.975, 1975.128 3037.888, 1979.282 3032.649 C 1981.052 3030.417, 1984.551 3024.443, 1987.058 3019.373 L 1991.616 3010.156 1996.319 3016.510 C 2000.286 3021.871, 2001.885 3023.188, 2006.548 3024.932 C 2014.630 3027.956, 2024.097 3027.753, 2030.801 3024.412 C 2036.400 3021.622, 2041.848 3015.979, 2044.577 3010.145 C 2045.514 3008.140, 2047.061 3005.375, 2048.014 3004 C 2051.361 2999.173, 2063 2972.158, 2063 2969.217 C 2063 2965.564, 2060.990 2963.752, 2057.411 2964.178 C 2054.368 2964.540, 2054.407 2964.483, 2049.676 2975.500 C 2040.578 2996.686, 2035.913 3006.322, 2032.935 3010.082 C 2030.065 3013.706, 2029.327 3014.115, 2026.635 3013.577 C 2019.880 3012.226, 2016.608 3009.716, 2013.500 3003.500 L 2010.500 2997.500 2010.567 2979.500 C 2010.639 2960.128, 2010.879 2958.164, 2019.791 2904 C 2022.460 2887.775, 2025.155 2873.553, 2025.780 2872.395 C 2026.498 2871.064, 2029.655 2869.317, 2034.364 2867.645 C 2043.569 2864.377, 2062.712 2853.883, 2065.750 2850.439 C 2068.664 2847.135, 2068.603 2844.441, 2065.567 2842.452 C 2062.729 2840.593, 2062.279 2840.771, 2051.500 2848.011 C 2040.498 2855.401, 2029 2860.443, 2029 2857.877 C 2029 2855.097, 2037.640 2818.576, 2042.481 2800.890 C 2048.893 2777.466, 2049.486 2774.406, 2048.566 2769.500 C 2047.309 2762.799, 2038.068 2759.832, 2031.304 2763.956 M 2027.605 2789.884 C 2026.612 2790.981, 2022.790 2803.940, 2018.456 2820.906 C 2011.493 2848.163, 2008.893 2861, 2010.337 2861 C 2012.317 2861, 2019.431 2839.805, 2020.939 2829.410 C 2021.505 2825.510, 2022.651 2820.687, 2023.484 2818.692 C 2024.318 2816.697, 2025.002 2813.362, 2025.004 2811.282 C 2025.006 2809.202, 2025.922 2806.001, 2027.039 2804.168 C 2028.794 2801.290, 2028.909 2800.391, 2027.888 2797.566 C 2026.917 2794.882, 2026.987 2793.733, 2028.276 2791.148 C 2030.092 2787.509, 2029.967 2787.274, 2027.605 2789.884 M 1327.794 2800.227 C 1325.463 2801.011, 1324.377 2802.961, 1319.964 2814.285 C 1317.146 2821.516, 1313.718 2832.173, 1312.347 2837.966 C 1310.976 2843.760, 1308.576 2853.450, 1307.014 2859.500 C 1305.452 2865.550, 1303.663 2873.650, 1303.040 2877.500 C 1302.416 2881.350, 1299.950 2893.950, 1297.558 2905.500 C 1295.167 2917.050, 1292.901 2929.875, 1292.522 2934 C 1291.558 2944.502, 1288.349 2961.407, 1286.691 2964.721 C 1285.926 2966.249, 1284.777 2970.772, 1284.137 2974.772 C 1282.706 2983.719, 1274.640 3004.656, 1268.340 3015.776 C 1265.761 3020.328, 1261.499 3026.066, 1258.868 3028.526 C 1254.773 3032.357, 1253.481 3033, 1249.881 3033 C 1244.195 3033, 1237.801 3029.157, 1235.380 3024.284 C 1232.573 3018.633, 1232.859 3000.483, 1235.937 2989 C 1238.776 2978.410, 1238.830 2971.548, 1236.118 2966.231 C 1234.144 2962.361, 1226.650 2955, 1224.685 2955 C 1222.616 2955, 1198 2944.607, 1198 2943.733 C 1198 2943.221, 1199.586 2940.232, 1201.525 2937.091 C 1205.084 2931.324, 1210.851 2914.331, 1213.062 2903.092 C 1215.428 2891.066, 1212.613 2876.530, 1206.683 2870.153 C 1201.402 2864.474, 1194.896 2862.971, 1184.884 2865.118 C 1177.768 2866.644, 1173.285 2871.216, 1167.346 2883 C 1162.680 2892.257, 1162.548 2892.769, 1162.175 2903.040 C 1161.191 2930.180, 1170.834 2949.394, 1192 2962.468 C 1194.475 2963.997, 1198.806 2967.003, 1201.624 2969.149 L 1206.749 2973.050 1205.198 2977.275 C 1204.021 2980.480, 1203.631 2985.846, 1203.582 2999.500 C 1203.523 3016.069, 1203.702 3017.957, 1205.830 3023.247 C 1209.678 3032.814, 1223.546 3046.165, 1233.159 3049.556 C 1240.047 3051.986, 1246.888 3051.429, 1253.779 3047.875 C 1262.652 3043.298, 1271.244 3035.918, 1275.781 3028.973 L 1279.769 3022.870 1280.985 3027.936 C 1282.623 3034.766, 1286.622 3039, 1291.433 3039 C 1293.430 3039, 1296.580 3038.367, 1298.432 3037.593 C 1302.010 3036.098, 1302.285 3035.428, 1303.564 3025.081 C 1303.933 3022.100, 1305.332 3016.475, 1306.674 3012.581 C 1308.015 3008.686, 1310.188 3001.531, 1311.503 2996.680 C 1313.262 2990.189, 1314.765 2986.887, 1317.196 2984.171 C 1319.013 2982.142, 1321.249 2979.361, 1322.164 2977.991 L 1323.828 2975.500 1326.004 2977.618 C 1328.577 2980.122, 1336.554 3006.785, 1337.586 3016.332 C 1339.154 3030.831, 1346.192 3037.927, 1359.054 3037.978 C 1368.427 3038.015, 1375.298 3032.378, 1386.452 3015.500 C 1391.937 3007.201, 1407.814 2976.282, 1409.920 2969.799 C 1411.365 2965.354, 1410.151 2962.327, 1406.564 2961.427 C 1402.846 2960.494, 1400.317 2962.544, 1398.152 2968.246 C 1390.992 2987.111, 1373.630 3016.751, 1365.640 3023.750 C 1360.537 3028.221, 1354.630 3027.915, 1352.024 3023.045 C 1351.462 3021.995, 1350.534 3015.368, 1349.963 3008.318 C 1349.391 3001.268, 1348.454 2993.118, 1347.881 2990.206 C 1346.601 2983.696, 1340.012 2970.295, 1335.958 2965.955 L 1332.956 2962.742 1341.751 2953.621 C 1355.387 2939.479, 1378.479 2910.081, 1382.950 2901.169 C 1386.070 2894.952, 1389 2882.646, 1389 2875.763 C 1389 2870.557, 1388.649 2869.495, 1386.077 2866.923 C 1379.181 2860.027, 1367.623 2865.103, 1355.402 2880.397 C 1346.927 2891.003, 1341.025 2901.255, 1327.476 2928.910 C 1321.707 2940.685, 1316.742 2950.075, 1316.443 2949.777 C 1315.605 2948.938, 1317.695 2937.734, 1323.679 2911 C 1326.696 2897.525, 1330.914 2878.400, 1333.053 2868.500 C 1335.193 2858.600, 1338.542 2844.469, 1340.497 2837.098 C 1344.109 2823.479, 1345.781 2811.248, 1344.648 2806.733 C 1343.640 2802.719, 1332.811 2798.538, 1327.794 2800.227 M 1326.140 2815.750 C 1325.629 2816.713, 1323.619 2823.350, 1321.675 2830.500 C 1312.794 2863.149, 1308.911 2879.434, 1309.195 2882.838 L 1309.500 2886.500 1311.218 2883.361 C 1313.875 2878.508, 1318.837 2862.207, 1319.863 2854.964 C 1320.370 2851.381, 1321.509 2846.718, 1322.393 2844.602 C 1323.277 2842.487, 1324 2838.951, 1324 2836.746 C 1324 2834.497, 1324.868 2831.331, 1325.977 2829.537 C 1327.642 2826.843, 1327.775 2825.864, 1326.821 2823.336 C 1325.909 2820.922, 1325.997 2819.713, 1327.267 2817.167 C 1328.884 2813.924, 1327.821 2812.587, 1326.140 2815.750 M 1519.291 2853.973 C 1511.725 2857.802, 1505.226 2864.765, 1500.771 2873.814 C 1497.762 2879.926, 1497.502 2881.221, 1497.524 2889.979 C 1497.540 2896.518, 1498.125 2901.223, 1499.390 2905 C 1501.467 2911.198, 1519.231 2946.300, 1526.465 2958.500 C 1532.996 2969.513, 1536.024 2975.643, 1535.295 2976.372 C 1534.956 2976.711, 1535.398 2977.782, 1536.276 2978.752 C 1538.569 2981.286, 1539.582 2994.360, 1538.010 3001.134 C 1535.810 3010.616, 1531.626 3018.126, 1526.315 3022.127 C 1518.519 3028, 1515.081 3029.412, 1508.473 3029.458 C 1500.486 3029.514, 1493.426 3026.017, 1490.266 3020.441 C 1487.261 3015.139, 1487.295 3006.721, 1490.357 2997.736 C 1492.587 2991.193, 1492.604 2990.878, 1490.900 2988.076 C 1487.707 2982.825, 1482.334 2983.145, 1480.211 2988.712 C 1479.626 2990.245, 1478.386 2995.089, 1477.455 2999.476 C 1475.038 3010.870, 1475.829 3016.797, 1481.315 3028.378 C 1485.502 3037.217, 1486.264 3038.195, 1491.667 3041.664 C 1504.684 3050.020, 1518.958 3052.440, 1532.500 3048.586 C 1544.869 3045.066, 1552.946 3037.229, 1560.507 3021.410 C 1574.767 2991.574, 1571.906 2977.814, 1542.803 2936.241 C 1534.458 2924.321, 1531.922 2919.744, 1527.345 2908.338 C 1524.333 2900.833, 1521.616 2892.550, 1521.305 2889.930 C 1519.799 2877.213, 1534.461 2865.448, 1542.455 2872.958 C 1546.257 2876.530, 1546.387 2878.343, 1543.491 2887.437 C 1540.321 2897.393, 1540.966 2900.334, 1546.205 2899.808 C 1548.725 2899.555, 1549.790 2898.589, 1552.137 2894.423 C 1560.685 2879.252, 1556.941 2863.718, 1542.674 2855.160 C 1534.362 2850.174, 1527.488 2849.825, 1519.291 2853.973 M 2379.168 2852.689 C 2373.149 2854.818, 2363.058 2864.538, 2359.038 2872.079 C 2356.325 2877.171, 2355.676 2879.653, 2355.242 2886.595 C 2354.432 2899.593, 2356.020 2904.917, 2367.298 2927 C 2372.775 2937.725, 2380.874 2952.800, 2385.295 2960.500 C 2389.716 2968.199, 2393.318 2975.174, 2393.299 2976 C 2393.281 2976.825, 2393.823 2978.175, 2394.503 2979 C 2396.173 2981.023, 2397.035 2992.151, 2396.007 2998.417 C 2394.457 3007.866, 2391.076 3015.170, 2385.921 3020.203 C 2377.030 3028.884, 2369.171 3031.355, 2359.446 3028.527 C 2352.435 3026.489, 2347.638 3022.083, 2346.063 3016.235 C 2344.790 3011.506, 2345.971 3001.707, 2348.562 2995.507 C 2349.421 2993.450, 2349.877 2991.123, 2349.576 2990.337 C 2349.274 2989.550, 2351.046 2984.887, 2353.513 2979.973 C 2359.540 2967.975, 2359.376 2963, 2352.955 2963 C 2349.735 2963, 2347.666 2965.216, 2345.974 2970.478 C 2343.009 2979.696, 2327.396 3002.693, 2318.592 3010.808 C 2311.785 3017.083, 2310.447 3016.293, 2310.812 3006.210 C 2311.256 2993.954, 2317.755 2971.376, 2326.613 2951.316 C 2333.667 2935.340, 2334.781 2930.262, 2332.333 2925.251 C 2330.160 2920.804, 2324.909 2917.890, 2317.847 2917.211 C 2308.760 2916.338, 2305.988 2920.467, 2297.515 2947.500 C 2291.016 2968.237, 2291.359 2967.515, 2284.003 2975.944 C 2280.377 2980.100, 2274.569 2986.973, 2271.096 2991.218 C 2267.624 2995.463, 2262.763 3000.593, 2260.292 3002.617 C 2255.052 3006.910, 2254.040 3006.291, 2254.015 2998.780 C 2253.997 2993.071, 2259.840 2968.127, 2263.431 2958.588 C 2264.856 2954.801, 2266.729 2948.957, 2267.593 2945.601 C 2270.140 2935.711, 2279.879 2921.126, 2283.198 2922.233 C 2285.400 2922.967, 2287.171 2931.060, 2286.602 2937.784 C 2286.148 2943.136, 2286.361 2944.361, 2288.034 2946.034 C 2294.785 2952.785, 2300.165 2940.039, 2296.550 2925.858 C 2293.119 2912.400, 2284.245 2904.149, 2274.394 2905.259 C 2263.195 2906.521, 2248.682 2917.528, 2242.266 2929.623 C 2235.024 2943.277, 2226.575 2968.548, 2223.920 2984.500 C 2222.905 2990.601, 2222.033 2992.459, 2217.128 2998.967 C 2209.336 3009.305, 2197.546 3021.531, 2193.920 3023.033 C 2189.688 3024.786, 2183.730 3022.671, 2178.374 3017.515 C 2173.304 3012.633, 2171 3005.774, 2171.001 2995.568 C 2171.002 2983.536, 2174.368 2978.100, 2195.501 2956 C 2200.498 2950.775, 2206.111 2944.274, 2207.976 2941.554 C 2211.728 2936.080, 2216.966 2922.136, 2216.987 2917.566 C 2217.018 2910.701, 2209.051 2900.625, 2200.313 2896.478 C 2195.401 2894.148, 2186.613 2894.976, 2179.540 2898.437 C 2173.579 2901.353, 2162.876 2912.023, 2157.559 2920.349 C 2145.258 2939.614, 2135.824 2971.841, 2137.347 2989.394 C 2138.074 2997.769, 2140.461 3006.470, 2145.056 3017.491 C 2151.406 3032.724, 2161.446 3039.027, 2179.616 3039.188 C 2186.988 3039.253, 2188.315 3038.950, 2194.089 3035.880 C 2202.257 3031.537, 2209.140 3026.358, 2212.705 3021.871 C 2214.258 3019.917, 2217.701 3015.902, 2220.357 3012.948 C 2224.707 3008.110, 2225.287 3007.761, 2226.219 3009.426 C 2228.545 3013.582, 2234.353 3018.961, 2237.712 3020.070 C 2242.757 3021.735, 2251.864 3020.667, 2258.490 3017.633 C 2264.029 3015.098, 2274.749 3005.365, 2283.421 2995 L 2287.186 2990.500 2286.484 3000.119 C 2285.656 3011.467, 2287.122 3017.964, 2292.241 3025.624 C 2295.917 3031.123, 2302.370 3035, 2307.849 3035 C 2310.663 3035, 2312.609 3033.806, 2318.759 3028.301 C 2322.876 3024.617, 2327.876 3019.143, 2329.872 3016.138 L 2333.500 3010.673 2334.152 3015.230 C 2334.510 3017.736, 2336.602 3023.623, 2338.799 3028.312 C 2343.222 3037.751, 2346.558 3040.921, 2357.500 3046.084 C 2366.226 3050.201, 2374.881 3051.325, 2384.683 3049.614 C 2400.612 3046.833, 2409.437 3039.335, 2418.080 3021.235 C 2424.992 3006.763, 2426.348 3000.939, 2425.781 2988.179 C 2425.336 2978.167, 2425.168 2977.545, 2420.411 2968.221 C 2415.770 2959.126, 2408.615 2947.875, 2395.709 2929.374 C 2388.626 2919.221, 2379 2895.715, 2379 2888.571 C 2379 2882.534, 2380.934 2878.075, 2385.058 2874.605 C 2389.822 2870.596, 2392.656 2869.731, 2396.679 2871.059 C 2403.401 2873.278, 2404.108 2876.877, 2400.431 2890.149 C 2398.385 2897.530, 2399.147 2900, 2403.467 2900 C 2406.320 2900, 2408.246 2897.820, 2411.422 2890.997 C 2414.468 2884.454, 2414.932 2874.173, 2412.451 2868.218 C 2410.184 2862.774, 2404.329 2857.161, 2397.500 2853.882 C 2390.756 2850.644, 2385.854 2850.325, 2379.168 2852.689 M 1321.860 2882.532 C 1320.895 2887.219, 1320.586 2890.891, 1321.110 2891.450 C 1323.058 2893.529, 1324.082 2890.093, 1323.795 2882.437 L 1323.500 2874.564 1321.860 2882.532 M 1363.399 2888.835 C 1361.693 2890.851, 1359.179 2894.300, 1357.812 2896.500 C 1349.347 2910.123, 1344.597 2918.736, 1340.440 2928 C 1337.848 2933.775, 1335.284 2939.063, 1334.741 2939.750 C 1334.199 2940.438, 1334.148 2940.978, 1334.628 2940.951 C 1335.864 2940.883, 1343.635 2931.249, 1349.329 2922.727 C 1357.315 2910.773, 1369.650 2884.786, 1367.196 2885.085 C 1366.813 2885.131, 1365.104 2886.819, 1363.399 2888.835 M 1184.775 2891.534 C 1180.963 2893.638, 1180.163 2895.604, 1179.400 2904.751 C 1178.850 2911.347, 1179.101 2913.973, 1180.821 2919.630 C 1181.969 2923.409, 1183.513 2927.325, 1184.252 2928.333 C 1185.481 2930.011, 1185.828 2929.689, 1188.367 2924.503 C 1191.788 2917.517, 1194.198 2905.236, 1193.800 2896.825 C 1193.504 2890.591, 1193.457 2890.497, 1190.500 2890.265 C 1188.850 2890.136, 1186.274 2890.707, 1184.775 2891.534 M 1890.775 2891.534 C 1886.968 2893.635, 1886.163 2895.605, 1885.407 2904.676 C 1884.722 2912.880, 1886.186 2920.592, 1889.728 2927.441 L 1891.263 2930.409 1894.070 2924.858 C 1897.616 2917.845, 1900.195 2905.285, 1899.803 2896.937 C 1899.504 2890.579, 1899.463 2890.497, 1896.500 2890.265 C 1894.850 2890.136, 1892.274 2890.707, 1890.775 2891.534 M 1733.994 2892.959 C 1725.717 2895.395, 1717.995 2902.611, 1709.121 2916.201 C 1705.782 2921.315, 1701.057 2928.200, 1698.621 2931.500 C 1690.695 2942.236, 1682.210 2956.910, 1663.344 2992.500 L 1658.043 3002.500 1658.021 2979.197 C 1657.993 2948.297, 1656.097 2939.829, 1647.837 2933.712 C 1644.220 2931.033, 1640.983 2932, 1635.080 2937.522 C 1631.856 2940.537, 1629.181 2944.454, 1626.743 2949.731 C 1616.439 2972.030, 1612.407 2981.483, 1609.031 2991.260 C 1605.460 3001.597, 1603.244 3006.236, 1604.379 3000.998 C 1604.676 2999.624, 1605.401 2991.975, 1605.989 2984 C 1606.577 2976.025, 1607.779 2961.102, 1608.659 2950.837 C 1609.540 2940.572, 1609.980 2931.055, 1609.636 2929.687 C 1608.876 2926.658, 1605.191 2925.218, 1596.025 2924.366 C 1590.014 2923.807, 1589.149 2923.970, 1586.663 2926.125 C 1582.688 2929.571, 1579.923 2943.708, 1576.027 2980.500 C 1573.515 3004.220, 1574.415 3034.056, 1577.917 3043.190 C 1580.882 3050.923, 1585.564 3055, 1591.479 3055 C 1598.139 3055, 1600.630 3052.298, 1603.467 3041.997 C 1606.833 3029.779, 1621.324 2988.387, 1626.693 2975.657 C 1629.715 2968.491, 1631.541 2965.258, 1632.077 2966.125 C 1633.890 2969.058, 1634.088 2980.475, 1632.621 2997.500 C 1630.324 3024.151, 1631.799 3035.877, 1638.437 3043.750 C 1643.408 3049.645, 1651.338 3047.596, 1657.173 3038.909 C 1658.738 3036.579, 1660.493 3032.834, 1661.074 3030.586 C 1663.810 3020.004, 1665.544 3014.853, 1669.060 3006.864 C 1674.606 2994.262, 1692.016 2962.429, 1701.256 2948 C 1705.658 2941.125, 1710.604 2933.340, 1712.246 2930.700 C 1713.889 2928.060, 1715.369 2926.036, 1715.535 2926.202 C 1715.701 2926.368, 1713.431 2938.653, 1710.490 2953.502 C 1702.267 2995.015, 1701.617 2999.513, 1702.270 3010.450 C 1702.737 3018.278, 1703.394 3021.226, 1705.798 3026.285 C 1709.379 3033.820, 1714.739 3040.174, 1719.368 3042.370 C 1724.127 3044.629, 1731.470 3044.435, 1736.678 3041.914 C 1742.943 3038.881, 1751.811 3029.414, 1757.635 3019.542 L 1762.712 3010.934 1765.300 3014.326 C 1770.269 3020.842, 1778.333 3022.575, 1788.972 3019.416 C 1791.906 3018.544, 1795.925 3016.797, 1797.903 3015.532 C 1801.595 3013.172, 1815.655 2999.043, 1820.062 2993.263 L 1822.531 2990.025 1822.150 3001.155 C 1821.710 3013.997, 1822.665 3018.323, 1827.524 3025.508 C 1831.569 3031.490, 1835.306 3033.894, 1841.746 3034.656 C 1846.227 3035.187, 1846.816 3034.976, 1850.961 3031.362 C 1858.475 3024.808, 1861.935 3020.998, 1867.077 3013.613 C 1869.801 3009.701, 1874.733 3002.702, 1878.037 2998.060 C 1881.340 2993.418, 1886.378 2985.028, 1889.231 2979.417 C 1893.903 2970.228, 1894.299 2968.952, 1893.218 2966.579 C 1891.741 2963.338, 1889.565 2962.415, 1886.192 2963.602 C 1884.314 2964.262, 1883.036 2966.009, 1881.468 2970.057 C 1875.349 2985.852, 1853.046 3015.760, 1848.122 3014.772 C 1846.769 3014.500, 1846.517 3013.041, 1846.603 3005.973 C 1846.757 2993.325, 1854.775 2965.296, 1862.771 2949.452 C 1866.415 2942.232, 1869 2933.835, 1869 2929.218 C 1869 2921.071, 1855.087 2914.269, 1846.461 2918.200 C 1842.136 2920.170, 1838.100 2929.753, 1828.859 2960 C 1826.994 2966.102, 1825.440 2968.805, 1820.523 2974.500 C 1817.198 2978.350, 1811.420 2985.197, 1807.681 2989.716 C 1803.943 2994.235, 1798.788 2999.777, 1796.227 3002.032 C 1791.930 3005.814, 1791.470 3005.995, 1790.285 3004.375 C 1788.362 3001.745, 1788.695 2997.573, 1792 2982.857 C 1794.575 2971.397, 1797.286 2962.316, 1804.686 2940.360 C 1807.145 2933.065, 1815.413 2922, 1818.405 2922 C 1820.531 2922, 1821.988 2928.125, 1821.994 2937.095 C 1821.999 2943.178, 1822.364 2945.019, 1823.829 2946.345 C 1826.280 2948.564, 1828.301 2948.429, 1830.595 2945.895 C 1832.192 2944.130, 1832.499 2942.232, 1832.494 2934.145 C 1832.488 2925.251, 1832.239 2924.024, 1829.297 2918.383 C 1824.179 2908.574, 1817.081 2904.092, 1808.766 2905.421 C 1797.614 2907.205, 1783.896 2917.961, 1777.675 2929.798 C 1769.888 2944.618, 1762.263 2967.281, 1759.439 2984 C 1757.313 2996.590, 1750.226 3010.681, 1741.457 3019.750 C 1735.248 3026.172, 1732.359 3027.342, 1729.933 3024.420 C 1728.848 3023.112, 1728.921 3020.311, 1730.360 3008.170 C 1732.824 2987.371, 1733.985 2980.341, 1736.084 2973.500 C 1737.096 2970.200, 1738.871 2962.550, 1740.029 2956.500 C 1741.186 2950.450, 1743.499 2940.100, 1745.168 2933.500 C 1747.771 2923.211, 1748.127 2920.288, 1747.669 2913 C 1746.625 2896.418, 1742.546 2890.441, 1733.994 2892.959 M 1090.334 2895.285 C 1087.270 2897.004, 1085.393 2899.616, 1075.454 2916 C 1065.482 2932.438, 1058.400 2946.829, 1054.569 2958.440 C 1047.614 2979.518, 1045.513 3008.992, 1049.860 3024.500 C 1054.343 3040.492, 1064.657 3050.454, 1076.603 3050.333 C 1090.607 3050.190, 1105.942 3035.902, 1117.142 3012.560 C 1122.047 3002.338, 1124.128 3000.297, 1131.633 2998.347 C 1141.896 2995.680, 1152.025 2989.560, 1166.440 2977.315 C 1180.026 2965.774, 1182.467 2962.564, 1180.296 2959.095 C 1179.747 2958.218, 1177.768 2957.369, 1175.899 2957.210 C 1172.852 2956.949, 1171.309 2957.967, 1161 2967.038 C 1144.366 2981.675, 1126.287 2990.378, 1128.389 2982.738 C 1133.797 2963.081, 1134.899 2941.774, 1131.038 2931.500 C 1129.262 2926.773, 1127.321 2924.107, 1121.892 2918.932 C 1115.764 2913.092, 1115 2911.948, 1115 2908.616 C 1115 2903.194, 1113.724 2901.503, 1106.641 2897.542 C 1099.911 2893.778, 1094.386 2893.014, 1090.334 2895.285 M 2197.423 2913.884 C 2194.050 2915.941, 2189.021 2922.471, 2184.242 2931 C 2178.229 2941.731, 2170.921 2963, 2173.246 2963 C 2175.055 2963, 2194.424 2942.789, 2198.164 2937 C 2208.677 2920.722, 2208.247 2907.284, 2197.423 2913.884 M 1741.322 2924.500 C 1740.596 2929.426, 1740.500 2932.865, 1741.072 2933.450 C 1743.062 2935.487, 1743.813 2932.275, 1743.166 2924.500 L 1742.500 2916.500 1741.322 2924.500 M 2450.500 2924.330 C 2446.274 2926.250, 2445.510 2927.433, 2441.974 2937.535 C 2435.182 2956.939, 2430.941 2976.497, 2431.058 2987.880 C 2431.190 3000.800, 2437.013 3013.913, 2446.690 3023.082 C 2452.399 3028.491, 2453.171 3028.664, 2464 3026.965 C 2473.657 3025.449, 2481.754 3021.086, 2488.710 3013.651 C 2493.922 3008.079, 2505.864 2991.117, 2512.753 2979.500 L 2515.125 2975.500 2514.452 2979 C 2514.082 2980.925, 2511.739 2989.475, 2509.245 2998 C 2500.099 3029.263, 2496.928 3041.140, 2492.162 3062 C 2489.874 3072.011, 2473.493 3122.408, 2468.271 3135.500 C 2461.356 3152.838, 2457.007 3159.839, 2447.607 3168.768 C 2428.343 3187.067, 2406.163 3188.457, 2389.039 3172.440 C 2379.806 3163.803, 2376.238 3152.915, 2377.319 3136.671 C 2378.166 3123.938, 2379.552 3120.147, 2389.353 3103.774 C 2398.826 3087.948, 2401.155 3085.277, 2408.492 3081.826 C 2414.314 3079.087, 2416.553 3075.586, 2415.035 3071.592 C 2413.596 3067.807, 2408.001 3068.057, 2399.837 3072.272 C 2393.952 3075.311, 2392.950 3076.362, 2385.777 3087.022 C 2371.955 3107.565, 2366.891 3118.866, 2364.941 3133.520 C 2363.408 3145.039, 2364.871 3154.029, 2370.047 3164.894 C 2377.404 3180.336, 2393.718 3193.600, 2410.103 3197.463 C 2433.468 3202.970, 2458.550 3191.996, 2476.214 3168.538 C 2491.972 3147.610, 2503.805 3118.679, 2517.408 3067.822 C 2521.039 3054.249, 2525.772 3037.283, 2527.927 3030.121 C 2530.081 3022.958, 2532.605 3013.813, 2533.534 3009.799 C 2534.464 3005.784, 2536.717 2996.875, 2538.540 2990 C 2550.730 2944.051, 2551.295 2940.916, 2548.119 2936.878 C 2544.688 2932.516, 2540.754 2931.440, 2535.530 2933.436 C 2528.687 2936.049, 2517.104 2949.058, 2507.767 2964.615 C 2494.200 2987.221, 2483.365 3001.027, 2473.600 3008.154 C 2464.994 3014.434, 2463.467 3011.738, 2463.600 2990.500 C 2463.709 2973.247, 2465.245 2962.218, 2469.622 2947.264 C 2472.864 2936.187, 2473.759 2927.859, 2471.869 2926.347 C 2468.742 2923.845, 2454.523 2922.503, 2450.500 2924.330 M 1109.013 2929.987 C 1107.921 2931.079, 1103.917 2938.181, 1100.116 2945.769 C 1096.314 2953.357, 1091.808 2961.933, 1090.102 2964.827 C 1086.371 2971.154, 1086.234 2974.017, 1089.402 2979.423 C 1092.448 2984.621, 1097.794 2987.572, 1105.705 2988.422 C 1111.113 2989.003, 1112.169 2988.831, 1113.916 2987.084 C 1117.902 2983.098, 1121.959 2964.483, 1121.983 2950.066 C 1122.002 2938.142, 1120.170 2932.713, 1115.117 2929.728 C 1111.468 2927.573, 1111.425 2927.575, 1109.013 2929.987 M 1731.972 2936.533 C 1731.273 2937.376, 1730.127 2941.314, 1729.427 2945.283 C 1728.727 2949.252, 1726.482 2961.275, 1724.437 2972 C 1720.194 2994.261, 1718.633 3009.798, 1720.864 3007.565 C 1722.690 3005.738, 1728 2983.723, 1728 2977.981 C 1728 2975.473, 1728.675 2970.829, 1729.500 2967.661 C 1730.325 2964.494, 1731 2960.102, 1731 2957.902 C 1731 2955.701, 1731.697 2952.553, 1732.549 2950.906 C 1733.851 2948.388, 1733.897 2947.357, 1732.839 2944.431 C 1731.883 2941.789, 1731.851 2940.234, 1732.703 2937.975 C 1733.969 2934.623, 1733.813 2934.315, 1731.972 2936.533 M 947.699 2953.678 C 946.194 2956.113, 949.594 3022.352, 951.976 3037 C 952.468 3040.025, 953.159 3045.229, 953.512 3048.565 C 953.865 3051.901, 954.562 3055.276, 955.061 3056.065 C 956.550 3058.418, 956.181 3051.790, 954 3037 C 952.652 3027.858, 952.008 3018.265, 952.005 3007.284 C 951.999 2988.736, 950.186 2956.172, 949.044 2954.122 C 948.622 2953.363, 948.017 2953.164, 947.699 2953.678 M 2533.722 2958.663 C 2532.681 2960.394, 2527 2985.276, 2527 2988.107 C 2527 2989.731, 2525.830 2993.841, 2524.399 2997.240 C 2522.931 3000.729, 2521.499 3006.545, 2521.112 3010.598 C 2520.605 3015.906, 2519.746 3018.783, 2517.816 3021.638 C 2515.718 3024.743, 2515.117 3027.019, 2514.753 3033.249 C 2514.402 3039.259, 2513.612 3042.400, 2511.232 3047.249 C 2509.290 3051.206, 2507.968 3055.702, 2507.632 3059.500 C 2507.265 3063.640, 2505.999 3067.651, 2503.546 3072.438 C 2500.947 3077.509, 2500.318 3079.578, 2501.206 3080.127 C 2502.116 3080.690, 2501.992 3081.352, 2500.710 3082.768 C 2498.626 3085.071, 2498.554 3086.385, 2500.429 3087.941 C 2501.628 3088.936, 2502.439 3087.332, 2505.456 3077.998 C 2509.482 3065.545, 2520.544 3025.605, 2528.165 2996 C 2533.516 2975.217, 2536.301 2960.033, 2535.013 2958.663 C 2534.580 2958.202, 2533.999 2958.202, 2533.722 2958.663 M 1212.794 2972.750 C 1211.924 2973.754, 1210.757 2978.550, 1210.058 2984 C 1209.388 2989.225, 1208.196 2997.297, 1207.410 3001.938 C 1205.970 3010.436, 1206.386 3018.014, 1208.194 3016.206 C 1210.052 3014.348, 1212.949 3000.242, 1213.278 2991.453 C 1213.462 2986.529, 1214.118 2981.600, 1214.736 2980.501 C 1215.623 2978.921, 1215.515 2978.122, 1214.224 2976.695 C 1212.890 2975.221, 1212.813 2974.530, 1213.803 2972.944 C 1215.313 2970.526, 1214.805 2970.429, 1212.794 2972.750 M 1918.794 2972.750 C 1917.924 2973.753, 1916.756 2978.554, 1916.056 2984 C 1915.384 2989.225, 1914.167 2997.468, 1913.352 3002.317 C 1911.869 3011.142, 1912.279 3018.121, 1914.170 3016.230 C 1916.049 3014.351, 1918.947 3000.292, 1919.278 2991.453 C 1919.462 2986.529, 1920.118 2981.600, 1920.736 2980.501 C 1921.623 2978.921, 1921.515 2978.122, 1920.224 2976.695 C 1918.890 2975.221, 1918.813 2974.530, 1919.803 2972.944 C 1921.313 2970.526, 1920.805 2970.429, 1918.794 2972.750 M 1078.976 2994.088 C 1077.333 3000.189, 1075.003 3014.050, 1075.001 3017.730 C 1074.999 3022.891, 1077.858 3028.749, 1081.469 3030.981 C 1083.266 3032.091, 1085.184 3033, 1085.731 3033 C 1087.576 3033, 1094.399 3026.916, 1098.145 3021.930 C 1101.919 3016.908, 1108 3005.053, 1108 3002.719 C 1108 3001.915, 1105.495 3001.048, 1101.228 3000.376 C 1093.355 2999.137, 1088.170 2996.896, 1083.861 2992.870 C 1082.171 2991.292, 1080.628 2990, 1080.433 2990 C 1080.237 2990, 1079.582 2991.839, 1078.976 2994.088" stroke="none" fill="#040404" fill-rule="evenodd"/><path d="M 0 1700 L 0 3400.001 1689.250 3399.750 L 3378.500 3399.500 3378.750 1699.750 L 3379.001 0 1689.500 0 L 0 0 0 1700 M 0.499 1700.500 C 0.499 2635.500, 0.612 3017.850, 0.750 2550.167 C 0.888 2082.484, 0.888 1317.484, 0.750 850.167 C 0.612 382.850, 0.499 765.500, 0.499 1700.500 M 201 1391 L 201 2582 1689 2582 L 3177 2582 3177 1391 L 3177 200 1689 200 L 201 200 201 1391 M 533.652 377.048 C 492.826 380.042, 456.678 397.169, 426 428.053 C 400.186 454.041, 385.260 483.425, 379.804 519 C 378.740 525.937, 378.500 686.247, 378.500 1391 C 378.500 2222.399, 378.568 2254.853, 380.323 2264 C 382.733 2276.558, 385.582 2286.833, 389.197 2296 C 407.690 2342.891, 451.169 2383.791, 497.500 2397.876 C 516.869 2403.765, 522.415 2404.500, 547.500 2404.500 C 567.800 2404.500, 571.777 2404.227, 581.378 2402.172 C 628.209 2392.148, 668.694 2362.869, 691.797 2322.315 C 701.306 2305.623, 707.909 2287.535, 711.722 2267.736 C 713.418 2258.928, 713.500 2218.236, 713.500 1389 L 713.500 519.500 711.190 509 C 706.468 487.537, 698.206 467.639, 687.521 452 C 651.487 399.257, 596.440 372.443, 533.652 377.048 M 2001.847 377.102 C 1979.592 378.816, 1960.561 384.104, 1939.500 394.426 C 1917.267 405.322, 1900.509 419.072, 1884.993 439.148 C 1866.396 463.211, 1854.426 488.393, 1848.700 515.500 L 1846.587 525.500 1846.286 1402.250 L 1845.984 2279 1804.492 2279 L 1763 2279 1763 1333.500 L 1763 388 1700 388 L 1637 388 1637 1391 L 1637 2394 1741.500 2394 L 1846 2394 1846 2336.500 L 1846 2279 1857.500 2279 L 1869 2279 1869 2336.500 L 1869 2394 1921 2394 L 1973 2394 1973 1921 L 1973 1448 2014.500 1448 L 2056 1448 2056 1921 L 2056 2394 2119.500 2394 L 2183 2394 2182.977 1468.250 C 2182.963 893.518, 2182.595 537.872, 2182.005 530.295 C 2180.172 506.728, 2175.611 489.922, 2165.504 469.500 C 2157.028 452.374, 2148.127 440.141, 2133.493 425.507 C 2109.378 401.392, 2081.970 386.256, 2051.107 380.008 C 2042.291 378.223, 2018.906 375.805, 2014 376.170 C 2013.175 376.232, 2007.706 376.651, 2001.847 377.102 M 2840.264 377.053 C 2811.778 379.295, 2785.234 388.547, 2761.501 404.507 C 2721.616 431.329, 2695.837 469.646, 2687.749 514.129 L 2685.500 526.500 2685.500 911 C 2685.500 1278.269, 2685.582 1295.984, 2687.321 1306.309 C 2694.981 1351.781, 2722.591 1393.906, 2761.871 1420.053 C 2788.380 1437.698, 2814.151 1446.121, 2847.467 1448.027 C 2864.159 1448.983, 2869.020 1450.064, 2876.601 1454.507 C 2882.551 1457.993, 2889.514 1466.161, 2892.196 1472.798 L 2894.500 1478.500 2894.803 1865 C 2895.030 2154.701, 2894.816 2252.877, 2893.949 2257 C 2890.712 2272.398, 2877.762 2284.402, 2861.604 2286.983 C 2843.269 2289.912, 2823.630 2280.151, 2815.781 2264.206 L 2812.500 2257.542 2812 1874.730 L 2811.500 1491.917 2748.500 1491.955 L 2685.500 1491.993 2685.500 1872.247 L 2685.500 2252.500 2687.700 2264.583 C 2693.173 2294.637, 2705.343 2320.297, 2725.279 2343.816 C 2753.855 2377.527, 2792.027 2398.957, 2832.599 2404.064 C 2846.471 2405.810, 2876.771 2404.746, 2889.159 2402.077 C 2921.780 2395.050, 2948.242 2379.984, 2973.078 2354.299 C 2999.039 2327.450, 3013.089 2299.913, 3019.685 2262.949 C 3021.242 2254.222, 3021.399 2224.876, 3021.734 1879 C 3021.983 1622.444, 3021.764 1499.813, 3021.040 1489.617 C 3019.780 1471.866, 3017.271 1458.844, 3012.432 1444.943 C 3000.834 1411.622, 2977.300 1381.585, 2946.547 1360.852 C 2921.015 1343.639, 2895.302 1335.662, 2857.500 1333.225 C 2845.368 1332.443, 2842.804 1331.968, 2838.287 1329.663 C 2827.677 1324.251, 2819.615 1314.267, 2816.577 1302.779 C 2815.041 1296.971, 2814.939 1267.534, 2815.208 910 L 2815.500 523.500 2817.743 518 C 2822.293 506.842, 2832.501 496.675, 2842.500 493.340 C 2848.274 491.415, 2859.689 491.149, 2865.500 492.805 C 2876.274 495.875, 2887.329 506.252, 2892.132 517.804 L 2894.500 523.500 2895 905.500 L 2895.500 1287.500 2958.500 1287.500 L 3021.500 1287.500 3021.789 917.500 C 3021.986 666.855, 3021.741 542.699, 3021.031 532.617 C 3019.222 506.921, 3013.967 487.391, 3003.375 467 C 2995.380 451.609, 2986.036 439.051, 2972.500 425.507 C 2946.317 399.308, 2916.443 383.829, 2882 378.612 C 2869.293 376.687, 2852.759 376.070, 2840.264 377.053 M 798 1390.954 L 798 2394 887.039 2394 C 978.741 2394, 986.915 2393.711, 1004.943 2389.837 C 1030.712 2384.299, 1056.409 2370.965, 1077.241 2352.322 C 1106.814 2325.857, 1124.997 2293.648, 1131.659 2255.928 C 1133.438 2245.853, 1133.500 2216.542, 1133.500 1391 C 1133.500 565.458, 1133.438 536.147, 1131.659 526.072 C 1123.602 480.450, 1097.966 441.679, 1058.151 414.900 C 1040.773 403.212, 1022.798 395.741, 1000 390.732 C 990.805 388.712, 987.410 388.633, 894.250 388.276 L 798 387.907 798 1390.954 M 1217 1391 L 1217 2394 1385 2394 L 1553 2394 1553 1963 L 1553 1532 1490 1532 L 1427 1532 1427 1905.500 L 1427 2279 1385.362 2279 L 1343.724 2279 1344.506 2034.750 C 1344.936 1900.412, 1345.561 1713.550, 1345.894 1619.500 L 1346.500 1448.500 1449.750 1448.245 L 1553 1447.991 1553 1390.495 L 1553 1333 1448.500 1333 L 1344 1333 1344 918 L 1344 503 1385.500 503 L 1427 503 1427 876.500 L 1427 1250 1490 1250 L 1553 1250 1553 819 L 1553 388 1385 388 L 1217 388 1217 1391 M 2266 1391.004 L 2266 2394.093 2361.750 2393.701 C 2445.054 2393.361, 2458.519 2393.099, 2465.341 2391.691 C 2501.049 2384.317, 2527.098 2370.578, 2551.970 2346 C 2573.352 2324.870, 2586.171 2304.280, 2594.445 2277.778 C 2602.100 2253.258, 2601.378 2294.191, 2601.722 1865 C 2602.058 1445.533, 2602.366 1470.175, 2596.492 1447.566 C 2591.811 1429.551, 2583.889 1411.996, 2573.395 1396.387 L 2567.815 1388.087 2573.330 1379.793 C 2585.554 1361.413, 2594.832 1338.356, 2599.205 1315.500 L 2601.500 1303.500 2601.500 919.500 C 2601.500 552.358, 2601.420 535.047, 2599.677 525.182 C 2593.586 490.712, 2578.849 462.888, 2552.980 437.020 C 2527.583 411.622, 2500.800 397.248, 2466 390.339 C 2458.468 388.844, 2446.590 388.610, 2361.750 388.284 L 2266 387.915 2266 1391.004 M 540.186 492.118 C 527.220 494.275, 515.434 503.296, 509.259 515.790 L 505.500 523.396 505.500 1390.948 L 505.500 2258.500 508.882 2264.737 C 519.624 2284.545, 544.971 2293.027, 565.430 2283.661 C 575.646 2278.983, 583.599 2269.476, 586.450 2258.530 C 587.844 2253.178, 588 2165.935, 588 1391 C 588 620.157, 587.839 528.800, 586.467 523.535 C 582.061 506.619, 569.620 494.604, 553.862 492.047 C 550.363 491.480, 547.050 491.064, 546.500 491.124 C 545.950 491.185, 543.109 491.632, 540.186 492.118 M 2008.780 492.030 C 1993.914 494.535, 1978.933 508.074, 1974.588 522.932 C 1973.149 527.854, 1973 566.075, 1973 930.682 L 1973 1333 2014.500 1333 L 2056 1333 2056 930.605 C 2056 533.484, 2055.974 528.127, 2054.036 521.855 C 2050.574 510.654, 2042.162 500.143, 2032.908 495.453 C 2028.898 493.421, 2017.655 490.778, 2014.500 491.125 C 2013.950 491.186, 2011.376 491.593, 2008.780 492.030 M 924 1391 L 924 2279 948.318 2279 C 967.424 2279, 973.801 2278.664, 978.068 2277.432 C 990.736 2273.777, 1001.489 2262.591, 1005.414 2248.986 C 1006.864 2243.961, 1006.982 2167.568, 1006.752 1387.486 L 1006.500 531.500 1003.865 525.880 C 999.033 515.576, 989.939 507.767, 979.068 504.588 C 974.751 503.326, 968.546 503, 948.818 503 L 924 503 924 1391 M 2395 918.061 L 2395 1333.123 2420.750 1332.811 L 2446.500 1332.500 2451.954 1329.630 C 2463.522 1323.542, 2472.883 1310.269, 2474.965 1297 C 2476.391 1287.910, 2476.379 544.931, 2474.953 536.138 C 2472.472 520.849, 2461.316 508.299, 2446.764 504.425 C 2442.975 503.416, 2434.985 503.020, 2418.250 503.012 L 2395 503 2395 918.061 M 2395.750 1448.565 C 2395.338 1448.988, 2395 1636.008, 2395 1864.167 L 2395 2279 2417.895 2279 C 2444.159 2279, 2449.640 2277.954, 2458.500 2271.249 C 2464.320 2266.845, 2471.198 2257.109, 2473.729 2249.691 C 2475.410 2244.765, 2475.514 2225.264, 2475.773 1868 C 2475.962 1608.454, 2475.720 1489.366, 2474.996 1484.629 C 2473.484 1474.747, 2469.747 1467.598, 2462.076 1459.909 C 2451.743 1449.552, 2448.953 1448.778, 2420 1448.236 C 2407.075 1447.995, 2396.162 1448.143, 2395.750 1448.565 M 1083.180 2761.726 C 1080.710 2764.347, 1077.128 2770.928, 1072.287 2781.740 C 1064.318 2799.538, 1043.810 2850.719, 1032.514 2881 C 1028.514 2891.725, 1022.880 2906.575, 1019.995 2914 C 1017.109 2921.425, 1010.550 2939.650, 1005.418 2954.500 C 1000.286 2969.350, 991.805 2993.425, 986.570 3008 L 977.054 3034.500 977.592 2962 C 978.077 2896.730, 978.704 2870.196, 980.653 2832.462 C 981.471 2816.619, 980.431 2805.431, 977.906 2802.906 C 973.493 2798.493, 969.083 2801.821, 963.245 2813.969 C 961.255 2818.111, 957.900 2824.173, 955.791 2827.440 C 943.895 2845.862, 933.702 2870.147, 916.943 2920 C 906.580 2950.826, 892.664 2987.901, 888.163 2996.675 L 886.301 3000.303 884.150 2992.334 C 881.481 2982.439, 881.292 2962.978, 883.438 2918.976 C 884.228 2902.764, 885.140 2880.500, 885.464 2869.500 C 885.788 2858.500, 886.537 2842.641, 887.128 2834.257 C 888.792 2810.661, 886.562 2804.996, 875.615 2805.004 C 865.063 2805.011, 860.514 2811.802, 858.869 2830 C 858.397 2835.225, 857.328 2847.375, 856.494 2857 C 855.660 2866.625, 854.344 2880.800, 853.569 2888.500 C 851.710 2906.975, 849.973 2938.524, 849.988 2953.529 C 850.002 2967.097, 853.258 2998.348, 855.600 3007.385 C 858.422 3018.275, 864.268 3027.536, 870.285 3030.647 C 874.820 3032.992, 881.523 3031.953, 885.046 3028.359 C 890.099 3023.203, 903.891 2994.804, 910.451 2976.046 C 913.885 2966.228, 936.845 2904.377, 942.022 2891 L 944.924 2883.500 944.962 2889.410 C 944.983 2892.660, 944.357 2901.885, 943.571 2909.910 C 941.697 2929.052, 940.668 2999.382, 942.005 3017 C 944.969 3056.081, 952.491 3073, 966.899 3073 C 969.995 3073, 971.763 3072.269, 974.516 3069.852 C 979.214 3065.727, 979.822 3064.442, 987.028 3043.396 C 990.398 3033.553, 996.092 3017.850, 999.682 3008.500 C 1003.271 2999.150, 1011.298 2976.650, 1017.520 2958.500 C 1029.977 2922.160, 1034.983 2908.427, 1044.491 2884.500 C 1047.988 2875.700, 1053.177 2862.425, 1056.023 2855 C 1070.230 2817.932, 1080.580 2793.560, 1089.607 2775.914 C 1095.366 2764.658, 1095.259 2760.321, 1089.180 2758.511 C 1087.316 2757.956, 1086.138 2758.587, 1083.180 2761.726 M 2031.304 2763.956 C 2029.547 2765.028, 2027.326 2767.100, 2026.368 2768.561 C 2023.643 2772.720, 2014.472 2803.922, 2007.428 2833 C 2003.897 2847.575, 2000.499 2860.745, 1999.876 2862.266 C 1999.074 2864.225, 1996.521 2866.199, 1991.122 2869.032 C 1980.829 2874.433, 1972 2882.897, 1972 2887.363 C 1972 2889.482, 1974.786 2892, 1977.131 2892 C 1978.225 2892, 1981.455 2889.830, 1984.310 2887.178 C 1990.235 2881.672, 1995.893 2877.560, 1996.588 2878.254 C 1997.100 2878.766, 1992.659 2910.737, 1988.497 2936.500 C 1986.576 2948.394, 1985.785 2957.708, 1985.416 2972.794 L 1984.919 2993.087 1980.928 3002.288 C 1975.412 3015.006, 1969.955 3023.865, 1964.591 3028.809 C 1960.780 3032.322, 1959.375 3033, 1955.908 3033 C 1950.596 3033, 1944.543 3029.608, 1941.701 3025.038 C 1938.498 3019.889, 1938.604 3001.206, 1941.904 2989 C 1945.868 2974.344, 1944.448 2966.113, 1936.799 2959.397 C 1934.920 2957.747, 1927.086 2953.922, 1918.740 2950.579 C 1910.633 2947.332, 1904 2944.254, 1904 2943.738 C 1904 2943.223, 1905.586 2940.232, 1907.525 2937.091 C 1911.084 2931.324, 1916.851 2914.331, 1919.062 2903.092 C 1921.428 2891.066, 1918.613 2876.530, 1912.683 2870.153 C 1911.482 2868.862, 1908.720 2866.893, 1906.544 2865.777 C 1898.794 2861.804, 1883.917 2865.334, 1879.330 2872.235 C 1878.136 2874.031, 1875.223 2879.318, 1872.856 2883.983 C 1868.808 2891.961, 1868.528 2893.055, 1868.156 2902.337 C 1867.433 2920.336, 1870.614 2932.865, 1878.906 2944.673 C 1884.356 2952.433, 1888.790 2956.637, 1896.930 2961.762 C 1899.994 2963.691, 1904.828 2967.037, 1907.673 2969.197 L 1912.846 2973.124 1911.375 2976.645 C 1908.628 2983.219, 1908.105 3009.223, 1910.534 3018.500 C 1912.742 3026.937, 1915.875 3031.771, 1924.025 3039.317 C 1932.708 3047.356, 1938.500 3050.301, 1946.659 3050.825 C 1952.045 3051.172, 1953.612 3050.819, 1959.159 3048.017 C 1967.157 3043.975, 1975.128 3037.888, 1979.282 3032.649 C 1981.052 3030.417, 1984.551 3024.443, 1987.058 3019.373 L 1991.616 3010.156 1996.319 3016.510 C 2000.286 3021.871, 2001.885 3023.188, 2006.548 3024.932 C 2014.630 3027.956, 2024.097 3027.753, 2030.801 3024.412 C 2036.400 3021.622, 2041.848 3015.979, 2044.577 3010.145 C 2045.514 3008.140, 2047.061 3005.375, 2048.014 3004 C 2051.361 2999.173, 2063 2972.158, 2063 2969.217 C 2063 2965.564, 2060.990 2963.752, 2057.411 2964.178 C 2054.368 2964.540, 2054.407 2964.483, 2049.676 2975.500 C 2040.578 2996.686, 2035.913 3006.322, 2032.935 3010.082 C 2030.065 3013.706, 2029.327 3014.115, 2026.635 3013.577 C 2019.880 3012.226, 2016.608 3009.716, 2013.500 3003.500 L 2010.500 2997.500 2010.567 2979.500 C 2010.639 2960.128, 2010.879 2958.164, 2019.791 2904 C 2022.460 2887.775, 2025.155 2873.553, 2025.780 2872.395 C 2026.498 2871.064, 2029.655 2869.317, 2034.364 2867.645 C 2043.569 2864.377, 2062.712 2853.883, 2065.750 2850.439 C 2068.664 2847.135, 2068.603 2844.441, 2065.567 2842.452 C 2062.729 2840.593, 2062.279 2840.771, 2051.500 2848.011 C 2040.498 2855.401, 2029 2860.443, 2029 2857.877 C 2029 2855.097, 2037.640 2818.576, 2042.481 2800.890 C 2048.893 2777.466, 2049.486 2774.406, 2048.566 2769.500 C 2047.309 2762.799, 2038.068 2759.832, 2031.304 2763.956 M 2027.605 2789.884 C 2026.612 2790.981, 2022.790 2803.940, 2018.456 2820.906 C 2011.493 2848.163, 2008.893 2861, 2010.337 2861 C 2012.317 2861, 2019.431 2839.805, 2020.939 2829.410 C 2021.505 2825.510, 2022.651 2820.687, 2023.484 2818.692 C 2024.318 2816.697, 2025.002 2813.362, 2025.004 2811.282 C 2025.006 2809.202, 2025.922 2806.001, 2027.039 2804.168 C 2028.794 2801.290, 2028.909 2800.391, 2027.888 2797.566 C 2026.917 2794.882, 2026.987 2793.733, 2028.276 2791.148 C 2030.092 2787.509, 2029.967 2787.274, 2027.605 2789.884 M 1327.794 2800.227 C 1325.463 2801.011, 1324.377 2802.961, 1319.964 2814.285 C 1317.146 2821.516, 1313.718 2832.173, 1312.347 2837.966 C 1310.976 2843.760, 1308.576 2853.450, 1307.014 2859.500 C 1305.452 2865.550, 1303.663 2873.650, 1303.040 2877.500 C 1302.416 2881.350, 1299.950 2893.950, 1297.558 2905.500 C 1295.167 2917.050, 1292.901 2929.875, 1292.522 2934 C 1291.558 2944.502, 1288.349 2961.407, 1286.691 2964.721 C 1285.926 2966.249, 1284.777 2970.772, 1284.137 2974.772 C 1282.706 2983.719, 1274.640 3004.656, 1268.340 3015.776 C 1265.761 3020.328, 1261.499 3026.066, 1258.868 3028.526 C 1254.773 3032.357, 1253.481 3033, 1249.881 3033 C 1244.195 3033, 1237.801 3029.157, 1235.380 3024.284 C 1232.573 3018.633, 1232.859 3000.483, 1235.937 2989 C 1238.776 2978.410, 1238.830 2971.548, 1236.118 2966.231 C 1234.144 2962.361, 1226.650 2955, 1224.685 2955 C 1222.616 2955, 1198 2944.607, 1198 2943.733 C 1198 2943.221, 1199.586 2940.232, 1201.525 2937.091 C 1205.084 2931.324, 1210.851 2914.331, 1213.062 2903.092 C 1215.428 2891.066, 1212.613 2876.530, 1206.683 2870.153 C 1201.402 2864.474, 1194.896 2862.971, 1184.884 2865.118 C 1177.768 2866.644, 1173.285 2871.216, 1167.346 2883 C 1162.680 2892.257, 1162.548 2892.769, 1162.175 2903.040 C 1161.191 2930.180, 1170.834 2949.394, 1192 2962.468 C 1194.475 2963.997, 1198.806 2967.003, 1201.624 2969.149 L 1206.749 2973.050 1205.198 2977.275 C 1204.021 2980.480, 1203.631 2985.846, 1203.582 2999.500 C 1203.523 3016.069, 1203.702 3017.957, 1205.830 3023.247 C 1209.678 3032.814, 1223.546 3046.165, 1233.159 3049.556 C 1240.047 3051.986, 1246.888 3051.429, 1253.779 3047.875 C 1262.652 3043.298, 1271.244 3035.918, 1275.781 3028.973 L 1279.769 3022.870 1280.985 3027.936 C 1282.623 3034.766, 1286.622 3039, 1291.433 3039 C 1293.430 3039, 1296.580 3038.367, 1298.432 3037.593 C 1302.010 3036.098, 1302.285 3035.428, 1303.564 3025.081 C 1303.933 3022.100, 1305.332 3016.475, 1306.674 3012.581 C 1308.015 3008.686, 1310.188 3001.531, 1311.503 2996.680 C 1313.262 2990.189, 1314.765 2986.887, 1317.196 2984.171 C 1319.013 2982.142, 1321.249 2979.361, 1322.164 2977.991 L 1323.828 2975.500 1326.004 2977.618 C 1328.577 2980.122, 1336.554 3006.785, 1337.586 3016.332 C 1339.154 3030.831, 1346.192 3037.927, 1359.054 3037.978 C 1368.427 3038.015, 1375.298 3032.378, 1386.452 3015.500 C 1391.937 3007.201, 1407.814 2976.282, 1409.920 2969.799 C 1411.365 2965.354, 1410.151 2962.327, 1406.564 2961.427 C 1402.846 2960.494, 1400.317 2962.544, 1398.152 2968.246 C 1390.992 2987.111, 1373.630 3016.751, 1365.640 3023.750 C 1360.537 3028.221, 1354.630 3027.915, 1352.024 3023.045 C 1351.462 3021.995, 1350.534 3015.368, 1349.963 3008.318 C 1349.391 3001.268, 1348.454 2993.118, 1347.881 2990.206 C 1346.601 2983.696, 1340.012 2970.295, 1335.958 2965.955 L 1332.956 2962.742 1341.751 2953.621 C 1355.387 2939.479, 1378.479 2910.081, 1382.950 2901.169 C 1386.070 2894.952, 1389 2882.646, 1389 2875.763 C 1389 2870.557, 1388.649 2869.495, 1386.077 2866.923 C 1379.181 2860.027, 1367.623 2865.103, 1355.402 2880.397 C 1346.927 2891.003, 1341.025 2901.255, 1327.476 2928.910 C 1321.707 2940.685, 1316.742 2950.075, 1316.443 2949.777 C 1315.605 2948.938, 1317.695 2937.734, 1323.679 2911 C 1326.696 2897.525, 1330.914 2878.400, 1333.053 2868.500 C 1335.193 2858.600, 1338.542 2844.469, 1340.497 2837.098 C 1344.109 2823.479, 1345.781 2811.248, 1344.648 2806.733 C 1343.640 2802.719, 1332.811 2798.538, 1327.794 2800.227 M 1326.140 2815.750 C 1325.629 2816.713, 1323.619 2823.350, 1321.675 2830.500 C 1312.794 2863.149, 1308.911 2879.434, 1309.195 2882.838 L 1309.500 2886.500 1311.218 2883.361 C 1313.875 2878.508, 1318.837 2862.207, 1319.863 2854.964 C 1320.370 2851.381, 1321.509 2846.718, 1322.393 2844.602 C 1323.277 2842.487, 1324 2838.951, 1324 2836.746 C 1324 2834.497, 1324.868 2831.331, 1325.977 2829.537 C 1327.642 2826.843, 1327.775 2825.864, 1326.821 2823.336 C 1325.909 2820.922, 1325.997 2819.713, 1327.267 2817.167 C 1328.884 2813.924, 1327.821 2812.587, 1326.140 2815.750 M 1519.291 2853.973 C 1511.725 2857.802, 1505.226 2864.765, 1500.771 2873.814 C 1497.762 2879.926, 1497.502 2881.221, 1497.524 2889.979 C 1497.540 2896.518, 1498.125 2901.223, 1499.390 2905 C 1501.467 2911.198, 1519.231 2946.300, 1526.465 2958.500 C 1532.996 2969.513, 1536.024 2975.643, 1535.295 2976.372 C 1534.956 2976.711, 1535.398 2977.782, 1536.276 2978.752 C 1538.569 2981.286, 1539.582 2994.360, 1538.010 3001.134 C 1535.810 3010.616, 1531.626 3018.126, 1526.315 3022.127 C 1518.519 3028, 1515.081 3029.412, 1508.473 3029.458 C 1500.486 3029.514, 1493.426 3026.017, 1490.266 3020.441 C 1487.261 3015.139, 1487.295 3006.721, 1490.357 2997.736 C 1492.587 2991.193, 1492.604 2990.878, 1490.900 2988.076 C 1487.707 2982.825, 1482.334 2983.145, 1480.211 2988.712 C 1479.626 2990.245, 1478.386 2995.089, 1477.455 2999.476 C 1475.038 3010.870, 1475.829 3016.797, 1481.315 3028.378 C 1485.502 3037.217, 1486.264 3038.195, 1491.667 3041.664 C 1504.684 3050.020, 1518.958 3052.440, 1532.500 3048.586 C 1544.869 3045.066, 1552.946 3037.229, 1560.507 3021.410 C 1574.767 2991.574, 1571.906 2977.814, 1542.803 2936.241 C 1534.458 2924.321, 1531.922 2919.744, 1527.345 2908.338 C 1524.333 2900.833, 1521.616 2892.550, 1521.305 2889.930 C 1519.799 2877.213, 1534.461 2865.448, 1542.455 2872.958 C 1546.257 2876.530, 1546.387 2878.343, 1543.491 2887.437 C 1540.321 2897.393, 1540.966 2900.334, 1546.205 2899.808 C 1548.725 2899.555, 1549.790 2898.589, 1552.137 2894.423 C 1560.685 2879.252, 1556.941 2863.718, 1542.674 2855.160 C 1534.362 2850.174, 1527.488 2849.825, 1519.291 2853.973 M 2379.168 2852.689 C 2373.149 2854.818, 2363.058 2864.538, 2359.038 2872.079 C 2356.325 2877.171, 2355.676 2879.653, 2355.242 2886.595 C 2354.432 2899.593, 2356.020 2904.917, 2367.298 2927 C 2372.775 2937.725, 2380.874 2952.800, 2385.295 2960.500 C 2389.716 2968.199, 2393.318 2975.174, 2393.299 2976 C 2393.281 2976.825, 2393.823 2978.175, 2394.503 2979 C 2396.173 2981.023, 2397.035 2992.151, 2396.007 2998.417 C 2394.457 3007.866, 2391.076 3015.170, 2385.921 3020.203 C 2377.030 3028.884, 2369.171 3031.355, 2359.446 3028.527 C 2352.435 3026.489, 2347.638 3022.083, 2346.063 3016.235 C 2344.790 3011.506, 2345.971 3001.707, 2348.562 2995.507 C 2349.421 2993.450, 2349.877 2991.123, 2349.576 2990.337 C 2349.274 2989.550, 2351.046 2984.887, 2353.513 2979.973 C 2359.540 2967.975, 2359.376 2963, 2352.955 2963 C 2349.735 2963, 2347.666 2965.216, 2345.974 2970.478 C 2343.009 2979.696, 2327.396 3002.693, 2318.592 3010.808 C 2311.785 3017.083, 2310.447 3016.293, 2310.812 3006.210 C 2311.256 2993.954, 2317.755 2971.376, 2326.613 2951.316 C 2333.667 2935.340, 2334.781 2930.262, 2332.333 2925.251 C 2330.160 2920.804, 2324.909 2917.890, 2317.847 2917.211 C 2308.760 2916.338, 2305.988 2920.467, 2297.515 2947.500 C 2291.016 2968.237, 2291.359 2967.515, 2284.003 2975.944 C 2280.377 2980.100, 2274.569 2986.973, 2271.096 2991.218 C 2267.624 2995.463, 2262.763 3000.593, 2260.292 3002.617 C 2255.052 3006.910, 2254.040 3006.291, 2254.015 2998.780 C 2253.997 2993.071, 2259.840 2968.127, 2263.431 2958.588 C 2264.856 2954.801, 2266.729 2948.957, 2267.593 2945.601 C 2270.140 2935.711, 2279.879 2921.126, 2283.198 2922.233 C 2285.400 2922.967, 2287.171 2931.060, 2286.602 2937.784 C 2286.148 2943.136, 2286.361 2944.361, 2288.034 2946.034 C 2294.785 2952.785, 2300.165 2940.039, 2296.550 2925.858 C 2293.119 2912.400, 2284.245 2904.149, 2274.394 2905.259 C 2263.195 2906.521, 2248.682 2917.528, 2242.266 2929.623 C 2235.024 2943.277, 2226.575 2968.548, 2223.920 2984.500 C 2222.905 2990.601, 2222.033 2992.459, 2217.128 2998.967 C 2209.336 3009.305, 2197.546 3021.531, 2193.920 3023.033 C 2189.688 3024.786, 2183.730 3022.671, 2178.374 3017.515 C 2173.304 3012.633, 2171 3005.774, 2171.001 2995.568 C 2171.002 2983.536, 2174.368 2978.100, 2195.501 2956 C 2200.498 2950.775, 2206.111 2944.274, 2207.976 2941.554 C 2211.728 2936.080, 2216.966 2922.136, 2216.987 2917.566 C 2217.018 2910.701, 2209.051 2900.625, 2200.313 2896.478 C 2195.401 2894.148, 2186.613 2894.976, 2179.540 2898.437 C 2173.579 2901.353, 2162.876 2912.023, 2157.559 2920.349 C 2145.258 2939.614, 2135.824 2971.841, 2137.347 2989.394 C 2138.074 2997.769, 2140.461 3006.470, 2145.056 3017.491 C 2151.406 3032.724, 2161.446 3039.027, 2179.616 3039.188 C 2186.988 3039.253, 2188.315 3038.950, 2194.089 3035.880 C 2202.257 3031.537, 2209.140 3026.358, 2212.705 3021.871 C 2214.258 3019.917, 2217.701 3015.902, 2220.357 3012.948 C 2224.707 3008.110, 2225.287 3007.761, 2226.219 3009.426 C 2228.545 3013.582, 2234.353 3018.961, 2237.712 3020.070 C 2242.757 3021.735, 2251.864 3020.667, 2258.490 3017.633 C 2264.029 3015.098, 2274.749 3005.365, 2283.421 2995 L 2287.186 2990.500 2286.484 3000.119 C 2285.656 3011.467, 2287.122 3017.964, 2292.241 3025.624 C 2295.917 3031.123, 2302.370 3035, 2307.849 3035 C 2310.663 3035, 2312.609 3033.806, 2318.759 3028.301 C 2322.876 3024.617, 2327.876 3019.143, 2329.872 3016.138 L 2333.500 3010.673 2334.152 3015.230 C 2334.510 3017.736, 2336.602 3023.623, 2338.799 3028.312 C 2343.222 3037.751, 2346.558 3040.921, 2357.500 3046.084 C 2366.226 3050.201, 2374.881 3051.325, 2384.683 3049.614 C 2400.612 3046.833, 2409.437 3039.335, 2418.080 3021.235 C 2424.992 3006.763, 2426.348 3000.939, 2425.781 2988.179 C 2425.336 2978.167, 2425.168 2977.545, 2420.411 2968.221 C 2415.770 2959.126, 2408.615 2947.875, 2395.709 2929.374 C 2388.626 2919.221, 2379 2895.715, 2379 2888.571 C 2379 2882.534, 2380.934 2878.075, 2385.058 2874.605 C 2389.822 2870.596, 2392.656 2869.731, 2396.679 2871.059 C 2403.401 2873.278, 2404.108 2876.877, 2400.431 2890.149 C 2398.385 2897.530, 2399.147 2900, 2403.467 2900 C 2406.320 2900, 2408.246 2897.820, 2411.422 2890.997 C 2414.468 2884.454, 2414.932 2874.173, 2412.451 2868.218 C 2410.184 2862.774, 2404.329 2857.161, 2397.500 2853.882 C 2390.756 2850.644, 2385.854 2850.325, 2379.168 2852.689 M 1321.860 2882.532 C 1320.895 2887.219, 1320.586 2890.891, 1321.110 2891.450 C 1323.058 2893.529, 1324.082 2890.093, 1323.795 2882.437 L 1323.500 2874.564 1321.860 2882.532 M 1363.399 2888.835 C 1361.693 2890.851, 1359.179 2894.300, 1357.812 2896.500 C 1349.347 2910.123, 1344.597 2918.736, 1340.440 2928 C 1337.848 2933.775, 1335.284 2939.063, 1334.741 2939.750 C 1334.199 2940.438, 1334.148 2940.978, 1334.628 2940.951 C 1335.864 2940.883, 1343.635 2931.249, 1349.329 2922.727 C 1357.315 2910.773, 1369.650 2884.786, 1367.196 2885.085 C 1366.813 2885.131, 1365.104 2886.819, 1363.399 2888.835 M 1184.775 2891.534 C 1180.963 2893.638, 1180.163 2895.604, 1179.400 2904.751 C 1178.850 2911.347, 1179.101 2913.973, 1180.821 2919.630 C 1181.969 2923.409, 1183.513 2927.325, 1184.252 2928.333 C 1185.481 2930.011, 1185.828 2929.689, 1188.367 2924.503 C 1191.788 2917.517, 1194.198 2905.236, 1193.800 2896.825 C 1193.504 2890.591, 1193.457 2890.497, 1190.500 2890.265 C 1188.850 2890.136, 1186.274 2890.707, 1184.775 2891.534 M 1890.775 2891.534 C 1886.968 2893.635, 1886.163 2895.605, 1885.407 2904.676 C 1884.722 2912.880, 1886.186 2920.592, 1889.728 2927.441 L 1891.263 2930.409 1894.070 2924.858 C 1897.616 2917.845, 1900.195 2905.285, 1899.803 2896.937 C 1899.504 2890.579, 1899.463 2890.497, 1896.500 2890.265 C 1894.850 2890.136, 1892.274 2890.707, 1890.775 2891.534 M 1733.994 2892.959 C 1725.717 2895.395, 1717.995 2902.611, 1709.121 2916.201 C 1705.782 2921.315, 1701.057 2928.200, 1698.621 2931.500 C 1690.695 2942.236, 1682.210 2956.910, 1663.344 2992.500 L 1658.043 3002.500 1658.021 2979.197 C 1657.993 2948.297, 1656.097 2939.829, 1647.837 2933.712 C 1644.220 2931.033, 1640.983 2932, 1635.080 2937.522 C 1631.856 2940.537, 1629.181 2944.454, 1626.743 2949.731 C 1616.439 2972.030, 1612.407 2981.483, 1609.031 2991.260 C 1605.460 3001.597, 1603.244 3006.236, 1604.379 3000.998 C 1604.676 2999.624, 1605.401 2991.975, 1605.989 2984 C 1606.577 2976.025, 1607.779 2961.102, 1608.659 2950.837 C 1609.540 2940.572, 1609.980 2931.055, 1609.636 2929.687 C 1608.876 2926.658, 1605.191 2925.218, 1596.025 2924.366 C 1590.014 2923.807, 1589.149 2923.970, 1586.663 2926.125 C 1582.688 2929.571, 1579.923 2943.708, 1576.027 2980.500 C 1573.515 3004.220, 1574.415 3034.056, 1577.917 3043.190 C 1580.882 3050.923, 1585.564 3055, 1591.479 3055 C 1598.139 3055, 1600.630 3052.298, 1603.467 3041.997 C 1606.833 3029.779, 1621.324 2988.387, 1626.693 2975.657 C 1629.715 2968.491, 1631.541 2965.258, 1632.077 2966.125 C 1633.890 2969.058, 1634.088 2980.475, 1632.621 2997.500 C 1630.324 3024.151, 1631.799 3035.877, 1638.437 3043.750 C 1643.408 3049.645, 1651.338 3047.596, 1657.173 3038.909 C 1658.738 3036.579, 1660.493 3032.834, 1661.074 3030.586 C 1663.810 3020.004, 1665.544 3014.853, 1669.060 3006.864 C 1674.606 2994.262, 1692.016 2962.429, 1701.256 2948 C 1705.658 2941.125, 1710.604 2933.340, 1712.246 2930.700 C 1713.889 2928.060, 1715.369 2926.036, 1715.535 2926.202 C 1715.701 2926.368, 1713.431 2938.653, 1710.490 2953.502 C 1702.267 2995.015, 1701.617 2999.513, 1702.270 3010.450 C 1702.737 3018.278, 1703.394 3021.226, 1705.798 3026.285 C 1709.379 3033.820, 1714.739 3040.174, 1719.368 3042.370 C 1724.127 3044.629, 1731.470 3044.435, 1736.678 3041.914 C 1742.943 3038.881, 1751.811 3029.414, 1757.635 3019.542 L 1762.712 3010.934 1765.300 3014.326 C 1770.269 3020.842, 1778.333 3022.575, 1788.972 3019.416 C 1791.906 3018.544, 1795.925 3016.797, 1797.903 3015.532 C 1801.595 3013.172, 1815.655 2999.043, 1820.062 2993.263 L 1822.531 2990.025 1822.150 3001.155 C 1821.710 3013.997, 1822.665 3018.323, 1827.524 3025.508 C 1831.569 3031.490, 1835.306 3033.894, 1841.746 3034.656 C 1846.227 3035.187, 1846.816 3034.976, 1850.961 3031.362 C 1858.475 3024.808, 1861.935 3020.998, 1867.077 3013.613 C 1869.801 3009.701, 1874.733 3002.702, 1878.037 2998.060 C 1881.340 2993.418, 1886.378 2985.028, 1889.231 2979.417 C 1893.903 2970.228, 1894.299 2968.952, 1893.218 2966.579 C 1891.741 2963.338, 1889.565 2962.415, 1886.192 2963.602 C 1884.314 2964.262, 1883.036 2966.009, 1881.468 2970.057 C 1875.349 2985.852, 1853.046 3015.760, 1848.122 3014.772 C 1846.769 3014.500, 1846.517 3013.041, 1846.603 3005.973 C 1846.757 2993.325, 1854.775 2965.296, 1862.771 2949.452 C 1866.415 2942.232, 1869 2933.835, 1869 2929.218 C 1869 2921.071, 1855.087 2914.269, 1846.461 2918.200 C 1842.136 2920.170, 1838.100 2929.753, 1828.859 2960 C 1826.994 2966.102, 1825.440 2968.805, 1820.523 2974.500 C 1817.198 2978.350, 1811.420 2985.197, 1807.681 2989.716 C 1803.943 2994.235, 1798.788 2999.777, 1796.227 3002.032 C 1791.930 3005.814, 1791.470 3005.995, 1790.285 3004.375 C 1788.362 3001.745, 1788.695 2997.573, 1792 2982.857 C 1794.575 2971.397, 1797.286 2962.316, 1804.686 2940.360 C 1807.145 2933.065, 1815.413 2922, 1818.405 2922 C 1820.531 2922, 1821.988 2928.125, 1821.994 2937.095 C 1821.999 2943.178, 1822.364 2945.019, 1823.829 2946.345 C 1826.280 2948.564, 1828.301 2948.429, 1830.595 2945.895 C 1832.192 2944.130, 1832.499 2942.232, 1832.494 2934.145 C 1832.488 2925.251, 1832.239 2924.024, 1829.297 2918.383 C 1824.179 2908.574, 1817.081 2904.092, 1808.766 2905.421 C 1797.614 2907.205, 1783.896 2917.961, 1777.675 2929.798 C 1769.888 2944.618, 1762.263 2967.281, 1759.439 2984 C 1757.313 2996.590, 1750.226 3010.681, 1741.457 3019.750 C 1735.248 3026.172, 1732.359 3027.342, 1729.933 3024.420 C 1728.848 3023.112, 1728.921 3020.311, 1730.360 3008.170 C 1732.824 2987.371, 1733.985 2980.341, 1736.084 2973.500 C 1737.096 2970.200, 1738.871 2962.550, 1740.029 2956.500 C 1741.186 2950.450, 1743.499 2940.100, 1745.168 2933.500 C 1747.771 2923.211, 1748.127 2920.288, 1747.669 2913 C 1746.625 2896.418, 1742.546 2890.441, 1733.994 2892.959 M 1090.334 2895.285 C 1087.270 2897.004, 1085.393 2899.616, 1075.454 2916 C 1065.482 2932.438, 1058.400 2946.829, 1054.569 2958.440 C 1047.614 2979.518, 1045.513 3008.992, 1049.860 3024.500 C 1054.343 3040.492, 1064.657 3050.454, 1076.603 3050.333 C 1090.607 3050.190, 1105.942 3035.902, 1117.142 3012.560 C 1122.047 3002.338, 1124.128 3000.297, 1131.633 2998.347 C 1141.896 2995.680, 1152.025 2989.560, 1166.440 2977.315 C 1180.026 2965.774, 1182.467 2962.564, 1180.296 2959.095 C 1179.747 2958.218, 1177.768 2957.369, 1175.899 2957.210 C 1172.852 2956.949, 1171.309 2957.967, 1161 2967.038 C 1144.366 2981.675, 1126.287 2990.378, 1128.389 2982.738 C 1133.797 2963.081, 1134.899 2941.774, 1131.038 2931.500 C 1129.262 2926.773, 1127.321 2924.107, 1121.892 2918.932 C 1115.764 2913.092, 1115 2911.948, 1115 2908.616 C 1115 2903.194, 1113.724 2901.503, 1106.641 2897.542 C 1099.911 2893.778, 1094.386 2893.014, 1090.334 2895.285 M 2197.423 2913.884 C 2194.050 2915.941, 2189.021 2922.471, 2184.242 2931 C 2178.229 2941.731, 2170.921 2963, 2173.246 2963 C 2175.055 2963, 2194.424 2942.789, 2198.164 2937 C 2208.677 2920.722, 2208.247 2907.284, 2197.423 2913.884 M 1741.322 2924.500 C 1740.596 2929.426, 1740.500 2932.865, 1741.072 2933.450 C 1743.062 2935.487, 1743.813 2932.275, 1743.166 2924.500 L 1742.500 2916.500 1741.322 2924.500 M 2450.500 2924.330 C 2446.274 2926.250, 2445.510 2927.433, 2441.974 2937.535 C 2435.182 2956.939, 2430.941 2976.497, 2431.058 2987.880 C 2431.190 3000.800, 2437.013 3013.913, 2446.690 3023.082 C 2452.399 3028.491, 2453.171 3028.664, 2464 3026.965 C 2473.657 3025.449, 2481.754 3021.086, 2488.710 3013.651 C 2493.922 3008.079, 2505.864 2991.117, 2512.753 2979.500 L 2515.125 2975.500 2514.452 2979 C 2514.082 2980.925, 2511.739 2989.475, 2509.245 2998 C 2500.099 3029.263, 2496.928 3041.140, 2492.162 3062 C 2489.874 3072.011, 2473.493 3122.408, 2468.271 3135.500 C 2461.356 3152.838, 2457.007 3159.839, 2447.607 3168.768 C 2428.343 3187.067, 2406.163 3188.457, 2389.039 3172.440 C 2379.806 3163.803, 2376.238 3152.915, 2377.319 3136.671 C 2378.166 3123.938, 2379.552 3120.147, 2389.353 3103.774 C 2398.826 3087.948, 2401.155 3085.277, 2408.492 3081.826 C 2414.314 3079.087, 2416.553 3075.586, 2415.035 3071.592 C 2413.596 3067.807, 2408.001 3068.057, 2399.837 3072.272 C 2393.952 3075.311, 2392.950 3076.362, 2385.777 3087.022 C 2371.955 3107.565, 2366.891 3118.866, 2364.941 3133.520 C 2363.408 3145.039, 2364.871 3154.029, 2370.047 3164.894 C 2377.404 3180.336, 2393.718 3193.600, 2410.103 3197.463 C 2433.468 3202.970, 2458.550 3191.996, 2476.214 3168.538 C 2491.972 3147.610, 2503.805 3118.679, 2517.408 3067.822 C 2521.039 3054.249, 2525.772 3037.283, 2527.927 3030.121 C 2530.081 3022.958, 2532.605 3013.813, 2533.534 3009.799 C 2534.464 3005.784, 2536.717 2996.875, 2538.540 2990 C 2550.730 2944.051, 2551.295 2940.916, 2548.119 2936.878 C 2544.688 2932.516, 2540.754 2931.440, 2535.530 2933.436 C 2528.687 2936.049, 2517.104 2949.058, 2507.767 2964.615 C 2494.200 2987.221, 2483.365 3001.027, 2473.600 3008.154 C 2464.994 3014.434, 2463.467 3011.738, 2463.600 2990.500 C 2463.709 2973.247, 2465.245 2962.218, 2469.622 2947.264 C 2472.864 2936.187, 2473.759 2927.859, 2471.869 2926.347 C 2468.742 2923.845, 2454.523 2922.503, 2450.500 2924.330 M 1109.013 2929.987 C 1107.921 2931.079, 1103.917 2938.181, 1100.116 2945.769 C 1096.314 2953.357, 1091.808 2961.933, 1090.102 2964.827 C 1086.371 2971.154, 1086.234 2974.017, 1089.402 2979.423 C 1092.448 2984.621, 1097.794 2987.572, 1105.705 2988.422 C 1111.113 2989.003, 1112.169 2988.831, 1113.916 2987.084 C 1117.902 2983.098, 1121.959 2964.483, 1121.983 2950.066 C 1122.002 2938.142, 1120.170 2932.713, 1115.117 2929.728 C 1111.468 2927.573, 1111.425 2927.575, 1109.013 2929.987 M 1731.972 2936.533 C 1731.273 2937.376, 1730.127 2941.314, 1729.427 2945.283 C 1728.727 2949.252, 1726.482 2961.275, 1724.437 2972 C 1720.194 2994.261, 1718.633 3009.798, 1720.864 3007.565 C 1722.690 3005.738, 1728 2983.723, 1728 2977.981 C 1728 2975.473, 1728.675 2970.829, 1729.500 2967.661 C 1730.325 2964.494, 1731 2960.102, 1731 2957.902 C 1731 2955.701, 1731.697 2952.553, 1732.549 2950.906 C 1733.851 2948.388, 1733.897 2947.357, 1732.839 2944.431 C 1731.883 2941.789, 1731.851 2940.234, 1732.703 2937.975 C 1733.969 2934.623, 1733.813 2934.315, 1731.972 2936.533 M 947.699 2953.678 C 946.194 2956.113, 949.594 3022.352, 951.976 3037 C 952.468 3040.025, 953.159 3045.229, 953.512 3048.565 C 953.865 3051.901, 954.562 3055.276, 955.061 3056.065 C 956.550 3058.418, 956.181 3051.790, 954 3037 C 952.652 3027.858, 952.008 3018.265, 952.005 3007.284 C 951.999 2988.736, 950.186 2956.172, 949.044 2954.122 C 948.622 2953.363, 948.017 2953.164, 947.699 2953.678 M 2533.722 2958.663 C 2532.681 2960.394, 2527 2985.276, 2527 2988.107 C 2527 2989.731, 2525.830 2993.841, 2524.399 2997.240 C 2522.931 3000.729, 2521.499 3006.545, 2521.112 3010.598 C 2520.605 3015.906, 2519.746 3018.783, 2517.816 3021.638 C 2515.718 3024.743, 2515.117 3027.019, 2514.753 3033.249 C 2514.402 3039.259, 2513.612 3042.400, 2511.232 3047.249 C 2509.290 3051.206, 2507.968 3055.702, 2507.632 3059.500 C 2507.265 3063.640, 2505.999 3067.651, 2503.546 3072.438 C 2500.947 3077.509, 2500.318 3079.578, 2501.206 3080.127 C 2502.116 3080.690, 2501.992 3081.352, 2500.710 3082.768 C 2498.626 3085.071, 2498.554 3086.385, 2500.429 3087.941 C 2501.628 3088.936, 2502.439 3087.332, 2505.456 3077.998 C 2509.482 3065.545, 2520.544 3025.605, 2528.165 2996 C 2533.516 2975.217, 2536.301 2960.033, 2535.013 2958.663 C 2534.580 2958.202, 2533.999 2958.202, 2533.722 2958.663 M 1212.794 2972.750 C 1211.924 2973.754, 1210.757 2978.550, 1210.058 2984 C 1209.388 2989.225, 1208.196 2997.297, 1207.410 3001.938 C 1205.970 3010.436, 1206.386 3018.014, 1208.194 3016.206 C 1210.052 3014.348, 1212.949 3000.242, 1213.278 2991.453 C 1213.462 2986.529, 1214.118 2981.600, 1214.736 2980.501 C 1215.623 2978.921, 1215.515 2978.122, 1214.224 2976.695 C 1212.890 2975.221, 1212.813 2974.530, 1213.803 2972.944 C 1215.313 2970.526, 1214.805 2970.429, 1212.794 2972.750 M 1918.794 2972.750 C 1917.924 2973.753, 1916.756 2978.554, 1916.056 2984 C 1915.384 2989.225, 1914.167 2997.468, 1913.352 3002.317 C 1911.869 3011.142, 1912.279 3018.121, 1914.170 3016.230 C 1916.049 3014.351, 1918.947 3000.292, 1919.278 2991.453 C 1919.462 2986.529, 1920.118 2981.600, 1920.736 2980.501 C 1921.623 2978.921, 1921.515 2978.122, 1920.224 2976.695 C 1918.890 2975.221, 1918.813 2974.530, 1919.803 2972.944 C 1921.313 2970.526, 1920.805 2970.429, 1918.794 2972.750 M 1078.976 2994.088 C 1077.333 3000.189, 1075.003 3014.050, 1075.001 3017.730 C 1074.999 3022.891, 1077.858 3028.749, 1081.469 3030.981 C 1083.266 3032.091, 1085.184 3033, 1085.731 3033 C 1087.576 3033, 1094.399 3026.916, 1098.145 3021.930 C 1101.919 3016.908, 1108 3005.053, 1108 3002.719 C 1108 3001.915, 1105.495 3001.048, 1101.228 3000.376 C 1093.355 2999.137, 1088.170 2996.896, 1083.861 2992.870 C 1082.171 2991.292, 1080.628 2990, 1080.433 2990 C 1080.237 2990, 1079.582 2991.839, 1078.976 2994.088" stroke="none" fill="#fbfbfb" fill-rule="evenodd"/></svg>