<svg xmlns="http://www.w3.org/2000/svg" width="3378" height="3400" viewBox="0 0 3378 3400" version="1.1"><path d="M 201 1391 L 201 2582 1689 2582 L 3177 2582 3177 1391 L 3177 200 1689 200 L 201 200 201 1391 M 533.102 377.082 C 489.258 380.443, 448.097 401.657, 418.095 436.356 C 394.604 463.526, 382.156 492.889, 378.984 528.613 C 378.250 536.878, 378.031 801.791, 378.267 1398 C 378.574 2177.900, 378.749 2256.224, 380.199 2263.500 C 387.444 2299.852, 400.841 2326.001, 425.398 2351.722 C 451.014 2378.551, 478.918 2394.505, 513.660 2402.183 C 522.149 2404.059, 526.727 2404.367, 547 2404.429 C 567.990 2404.492, 571.662 2404.251, 581.378 2402.172 C 612.988 2395.406, 641.828 2379.925, 664.596 2357.500 C 690.749 2331.740, 706.825 2299.565, 712.442 2261.735 C 713.843 2252.298, 713.999 2164.562, 713.994 1389.372 C 713.988 457.064, 714.350 521.004, 708.952 499.780 C 694.105 441.408, 642.228 392.031, 583.148 380.038 C 574.348 378.252, 550.700 375.798, 545.605 376.142 C 544.447 376.221, 538.821 376.643, 533.102 377.082 M 2001.238 377.101 C 1979.284 378.953, 1960 384.363, 1939.500 394.420 C 1917.254 405.333, 1900.504 419.079, 1884.993 439.148 C 1862.017 468.876, 1849.671 498.848, 1846.949 531.500 C 1846.403 538.056, 1846.026 893.272, 1846.016 1410.750 L 1846 2279 1804.500 2279 L 1763 2279 1763 1333.500 L 1763 388 1700 388 L 1637 388 1637 1391 L 1637 2394 1741.500 2394 L 1846 2394 1846 2336.500 L 1846 2279 1857.500 2279 L 1869 2279 1869 2336.500 L 1869 2394 1921 2394 L 1973 2394 1973 1921 L 1973 1448 2014.500 1448 L 2056 1448 2056 1921 L 2056 2394 2119.500 2394 L 2183 2394 2183 1468.645 C 2183 837.124, 2182.670 539.196, 2181.960 530.395 C 2180.004 506.134, 2175.618 489.943, 2165.465 469.500 C 2156.893 452.241, 2148.028 440.042, 2133.493 425.507 C 2106.261 398.275, 2075.056 382.542, 2039.500 378.116 C 2026.885 376.546, 2012.381 376.161, 2001.238 377.101 M 2840.500 377.049 C 2811.811 379.330, 2785.173 388.588, 2761.501 404.507 C 2722.031 431.050, 2696.399 468.820, 2687.800 513.110 L 2685.588 524.500 2685.253 903 C 2685.022 1164.193, 2685.247 1285.184, 2685.979 1293.387 C 2687.898 1314.903, 2692.556 1332.019, 2701.521 1350.500 C 2725.396 1399.719, 2768.950 1434.117, 2821.152 1444.984 C 2826.461 1446.089, 2838.161 1447.440, 2847.152 1447.987 C 2856.143 1448.533, 2864.863 1449.374, 2866.528 1449.857 C 2876.740 1452.813, 2886.470 1461.091, 2891.276 1470.911 L 2894.500 1477.500 2894.500 1868 L 2894.500 2258.500 2891.276 2265.089 C 2885.576 2276.738, 2874.506 2284.922, 2861.681 2286.971 C 2843.196 2289.924, 2823.675 2280.243, 2815.781 2264.206 L 2812.500 2257.542 2812.245 1874.771 L 2811.990 1492 2748.478 1492 L 2684.967 1492 2685.278 1873.250 L 2685.588 2254.500 2687.762 2265.670 C 2695.274 2304.267, 2714.163 2336.622, 2745.056 2363.812 C 2767.004 2383.128, 2789.819 2394.866, 2818.540 2401.617 C 2829.894 2404.285, 2831.716 2404.428, 2854.500 2404.439 C 2875.623 2404.450, 2879.716 2404.185, 2888.648 2402.227 C 2922.048 2394.908, 2948.001 2380.176, 2973.149 2354.260 C 2998.649 2327.981, 3013.166 2299.502, 3019.681 2262.975 C 3021.243 2254.215, 3021.398 2225.221, 3021.734 1879 C 3021.983 1622.444, 3021.764 1499.813, 3021.040 1489.617 C 3019.780 1471.866, 3017.271 1458.844, 3012.432 1444.943 C 3000.861 1411.701, 2977.194 1381.492, 2946.547 1360.847 C 2920.971 1343.618, 2895.205 1335.632, 2857.464 1333.236 C 2844.303 1332.401, 2843.037 1332.137, 2837.152 1329 C 2829.505 1324.925, 2823.077 1317.988, 2818.749 1309.141 L 2815.500 1302.500 2815.500 912.500 L 2815.500 522.500 2818.722 515.698 C 2822.513 507.693, 2831.219 498.487, 2838.146 495.156 C 2851.399 488.784, 2868.495 490.973, 2879.805 500.490 C 2884.833 504.720, 2890.050 512.594, 2892.586 519.780 L 2894.958 526.500 2894.979 906.735 L 2895 1286.971 2958.084 1287.235 C 2992.780 1287.381, 3021.355 1287.313, 3021.584 1287.083 C 3022.535 1286.131, 3021.943 544.960, 3020.981 531.605 C 3018.196 492.981, 3005.401 462.203, 2980.138 433.360 C 2944.680 392.876, 2894.742 372.738, 2840.500 377.049 M 798 1390.953 L 798 2394 888.250 2393.980 C 983.720 2393.960, 988.731 2393.757, 1008.136 2389.138 C 1032.637 2383.306, 1057.313 2370.159, 1077.238 2352.322 C 1106.134 2326.455, 1124.172 2295.039, 1131.238 2258.272 L 1133.500 2246.500 1133.500 1391 L 1133.500 535.500 1131.254 523.820 C 1122.536 478.483, 1096.325 439.879, 1056.500 413.726 C 1040.090 402.949, 1021.008 395.226, 999.708 390.740 C 989.744 388.641, 987.210 388.581, 893.750 388.248 L 798 387.907 798 1390.953 M 1217 1391 L 1217 2394 1385 2394 L 1553 2394 1553 1963 L 1553 1532 1490 1532 L 1427 1532 1427 1905.500 L 1427 2279 1385.363 2279 L 1343.726 2279 1344.508 2029.750 C 1344.939 1892.662, 1345.563 1705.800, 1345.895 1614.500 L 1346.500 1448.500 1449.750 1448.245 L 1553 1447.991 1553 1390.495 L 1553 1333 1448.500 1333 L 1344 1333 1344 918 L 1344 503 1385.500 503 L 1427 503 1427 876.500 L 1427 1250 1490 1250 L 1553 1250 1553 819 L 1553 388 1385 388 L 1217 388 1217 1391 M 2266 1391 L 2266 2394 2355.949 2394 C 2453.441 2394, 2458.841 2393.756, 2478.949 2388.440 C 2517.383 2378.278, 2551.685 2353.228, 2575.085 2318.234 C 2589.790 2296.243, 2598.361 2272.199, 2601.012 2245.500 C 2601.786 2237.701, 2602.016 2123.346, 2601.802 1852.500 L 2601.500 1470.500 2599.246 1459.295 C 2594.698 1436.688, 2585.913 1415.283, 2573.565 1396.726 L 2567.815 1388.087 2573.301 1379.793 C 2585.391 1361.516, 2594.622 1338.725, 2599.232 1315.767 L 2601.495 1304.500 2601.801 926 C 2602.019 654.998, 2601.793 544.376, 2601.002 536.500 C 2599.676 523.302, 2597.881 514.687, 2593.811 502 C 2578.426 454.035, 2536.076 411.659, 2488 396.122 C 2463.375 388.164, 2461.397 388.042, 2356.750 388.020 L 2266 388 2266 1391 M 540.186 492.118 C 527.220 494.275, 515.434 503.296, 509.259 515.790 L 505.500 523.396 505.500 1390.948 L 505.500 2258.500 507.899 2263.332 C 516.045 2279.742, 535.964 2289.982, 554.069 2287.066 C 570.552 2284.412, 583.296 2272.683, 586.961 2256.791 C 588.436 2250.397, 588.367 531.852, 586.891 524.799 C 584.445 513.106, 575.268 500.703, 565.340 495.673 C 560.774 493.359, 550.695 490.846, 547.066 491.117 C 546.205 491.181, 543.109 491.632, 540.186 492.118 M 2008.594 492.047 C 1995.878 494.203, 1980.756 506.548, 1975.794 518.824 L 1973.500 524.500 1973.245 928.750 L 1972.990 1333 2014.495 1333 L 2056 1333 2056 930.605 C 2056 533.484, 2055.974 528.127, 2054.036 521.855 C 2047.575 500.950, 2028.784 488.624, 2008.594 492.047 M 924 1391 L 924 2279 948.318 2279 C 967.424 2279, 973.801 2278.664, 978.068 2277.432 C 990.473 2273.852, 1000.959 2263.122, 1005.379 2249.485 C 1006.875 2244.869, 1006.985 2176.380, 1006.752 1387.985 L 1006.500 531.500 1003.865 525.880 C 999.033 515.576, 989.939 507.767, 979.068 504.588 C 974.751 503.326, 968.546 503, 948.818 503 L 924 503 924 1391 M 2395 918.061 L 2395 1333.123 2420.750 1332.811 C 2445.728 1332.509, 2446.650 1332.427, 2451.500 1330.052 C 2462.739 1324.548, 2472.884 1310.258, 2474.965 1297 C 2476.407 1287.812, 2476.378 544.923, 2474.935 536.032 C 2472.443 520.671, 2461.447 508.334, 2446.764 504.425 C 2442.975 503.416, 2434.985 503.020, 2418.250 503.012 L 2395 503 2395 918.061 M 2395.750 1448.565 C 2395.338 1448.988, 2395 1636.008, 2395 1864.167 L 2395 2279 2417.750 2278.988 C 2434.283 2278.980, 2441.970 2278.585, 2445.878 2277.545 C 2460.422 2273.674, 2472.233 2259.629, 2474.931 2242.994 C 2476.396 2233.964, 2476.409 1493.114, 2474.944 1484.086 C 2473.404 1474.595, 2469.603 1467.454, 2462.076 1459.909 C 2451.743 1449.552, 2448.953 1448.778, 2420 1448.236 C 2407.075 1447.995, 2396.162 1448.143, 2395.750 1448.565 M 1082.828 2761.889 C 1079.435 2765.854, 1069.248 2787.502, 1060.188 2810 C 1050.894 2833.076, 1033.229 2878.419, 1030.189 2887 C 1028.533 2891.675, 1024.266 2902.925, 1020.706 2912 C 1017.146 2921.075, 1010.611 2939.075, 1006.185 2952 C 1001.758 2964.925, 993.780 2987.650, 988.456 3002.500 C 983.131 3017.350, 978.407 3030.625, 977.957 3032 C 977.508 3033.375, 977.362 3003.450, 977.634 2965.500 C 978.072 2904.297, 978.537 2883.751, 980.702 2829.833 C 981.586 2807.834, 979.896 2801, 973.573 2801 C 970.510 2801, 967.905 2804.272, 963.244 2813.974 C 961.255 2818.113, 957.687 2824.503, 955.315 2828.173 C 943.557 2846.367, 933.915 2869.353, 917.006 2919.500 C 906.295 2951.267, 892.449 2988.272, 888.060 2996.862 L 886.342 3000.223 884.531 2994.362 C 882.095 2986.474, 881.458 2961.927, 882.934 2932.827 C 883.558 2920.547, 884.720 2893.175, 885.516 2872 C 886.313 2850.825, 887.258 2830.520, 887.615 2826.878 C 888.497 2817.894, 887.417 2811.649, 884.351 2808.005 C 882.121 2805.355, 881.190 2805, 876.476 2805 C 866.914 2805, 864.674 2806.807, 860.889 2817.574 C 859.398 2821.818, 858.581 2827.782, 857.892 2839.454 C 857.370 2848.279, 856.043 2863.600, 854.941 2873.500 C 852.397 2896.367, 850.036 2934.333, 850.016 2952.692 C 849.999 2967.714, 852.995 2997.441, 855.527 3007.380 C 859.463 3022.828, 867.431 3032, 876.916 3032 C 883.764 3032, 887.052 3028.059, 896.496 3008.533 C 901.027 2999.165, 905.911 2988.350, 907.349 2984.500 C 908.786 2980.650, 915.621 2962.200, 922.537 2943.500 C 929.453 2924.800, 937.224 2903.875, 939.806 2897 L 944.500 2884.500 944.809 2889.357 C 944.979 2892.028, 944.629 2897.878, 944.031 2902.357 C 942.568 2913.308, 940.698 2990.975, 941.475 3008.500 C 942.946 3041.672, 947.536 3060.422, 956.227 3068.767 C 962.408 3074.701, 969.356 3074.884, 975.264 3069.270 C 979.305 3065.429, 979.828 3064.257, 988.303 3040 C 992.435 3028.175, 997.925 3013.100, 1000.505 3006.500 C 1003.084 2999.900, 1010.287 2979.650, 1016.511 2961.500 C 1028.917 2925.324, 1034.954 2908.921, 1049.448 2872 C 1054.738 2858.525, 1062.049 2839.850, 1065.695 2830.500 C 1073.205 2811.238, 1085.420 2783.584, 1090.555 2774.216 C 1094.470 2767.073, 1094.895 2762.895, 1092 2760 C 1089.034 2757.034, 1086.543 2757.547, 1082.828 2761.889 M 2033 2762.706 C 2030.705 2763.545, 2026.963 2767.206, 2025.472 2770.071 C 2022.802 2775.202, 2013.892 2806.207, 2007.518 2832.551 C 2003.932 2847.373, 2000.288 2860.897, 1999.420 2862.604 C 1998.331 2864.747, 1996.003 2866.587, 1991.897 2868.549 C 1988.626 2870.112, 1983.387 2873.559, 1980.254 2876.208 C 1972.179 2883.036, 1970.261 2887.118, 1973.571 2890.429 C 1976.229 2893.086, 1978.780 2892.218, 1984.925 2886.569 C 1988.174 2883.582, 1992.245 2880.407, 1993.972 2879.515 L 1997.111 2877.891 1996.558 2881.196 C 1996.255 2883.013, 1995.299 2889.900, 1994.435 2896.500 C 1993.572 2903.100, 1991.574 2916.600, 1989.996 2926.500 C 1985.963 2951.806, 1985 2961.816, 1985 2978.416 L 1985 2992.910 1980.945 3002.124 C 1972.155 3022.099, 1963.555 3033, 1956.587 3033 C 1948.538 3033, 1941.838 3027.662, 1939.936 3019.734 C 1938.309 3012.953, 1939.219 3000.989, 1942.402 2987.311 C 1945.647 2973.362, 1944.994 2968.547, 1938.919 2961.645 C 1934.683 2956.833, 1932.540 2955.682, 1915.250 2948.933 C 1909.063 2946.517, 1904 2944.227, 1904 2943.842 C 1904 2943.458, 1905.583 2940.486, 1907.517 2937.239 C 1909.452 2933.992, 1912.896 2925.522, 1915.171 2918.417 C 1918.981 2906.520, 1919.315 2904.592, 1919.404 2894 C 1919.488 2883.919, 1919.208 2881.853, 1917.130 2877.258 C 1914.232 2870.846, 1908.378 2865.349, 1903.468 2864.428 C 1898.266 2863.452, 1890.492 2864.583, 1885.374 2867.061 C 1881.836 2868.774, 1880.159 2870.587, 1876.786 2876.345 C 1869.196 2889.303, 1868.048 2893.129, 1868.041 2905.500 C 1868.026 2931.587, 1876.617 2948.364, 1896.815 2961.689 C 1901.592 2964.841, 1907.147 2968.717, 1909.159 2970.304 L 1912.819 2973.189 1911.264 2976.845 C 1910.368 2978.949, 1909.568 2984.320, 1909.378 2989.500 C 1909.197 2994.450, 1908.811 2999.625, 1908.519 3001 C 1907.519 3005.728, 1910.595 3021.484, 1913.594 3026.996 C 1917.017 3033.285, 1929.232 3044.951, 1935.762 3048.167 C 1939.453 3049.984, 1942.162 3050.500, 1948.021 3050.500 C 1955.123 3050.500, 1955.959 3050.253, 1963.021 3046.074 C 1974.059 3039.543, 1980.977 3031.984, 1986.824 3020.065 L 1991.698 3010.130 1995.880 3016.061 C 2001.374 3023.851, 2005.906 3026.203, 2016.548 3026.787 C 2023.295 3027.158, 2025.433 3026.869, 2029.775 3025.002 C 2035.174 3022.679, 2042.160 3016.036, 2044.237 3011.248 C 2044.893 3009.737, 2046.392 3006.925, 2047.568 3005 C 2052.404 2997.085, 2063 2972.694, 2063 2969.475 C 2063 2965.432, 2059.919 2962.724, 2056.682 2963.922 C 2054.262 2964.817, 2054.185 2964.945, 2049.637 2975.500 C 2037.698 3003.207, 2032.997 3012.020, 2029.425 3013.391 C 2028.699 3013.669, 2025.734 3013.133, 2022.837 3012.198 C 2013.834 3009.296, 2011.141 3003.338, 2010.317 2984.500 C 2009.925 2975.544, 2010.333 2968.298, 2011.923 2955.931 C 2014.855 2933.136, 2024.614 2874.591, 2025.873 2872.237 C 2026.485 2871.095, 2029.664 2869.412, 2033.701 2868.093 C 2041.339 2865.599, 2061.048 2855.017, 2065.250 2851.154 C 2068.668 2848.011, 2068.794 2844.566, 2065.567 2842.452 C 2062.712 2840.581, 2062.307 2840.743, 2051 2848.303 C 2042.275 2854.136, 2034.446 2857.976, 2031.250 2857.990 C 2030.013 2857.996, 2029 2857.810, 2029 2857.577 C 2029 2855.229, 2038.339 2816.405, 2043.012 2799.322 C 2049.003 2777.426, 2049.819 2772.284, 2048.043 2767.613 C 2046.401 2763.295, 2038.469 2760.707, 2033 2762.706 M 2027.707 2789.772 C 2025.826 2791.850, 2011.494 2846.725, 2010.540 2855.500 C 2009.934 2861.076, 2009.999 2861.361, 2011.465 2859.530 C 2013.688 2856.753, 2019.600 2837.863, 2020.885 2829.429 C 2021.478 2825.539, 2022.646 2820.420, 2023.481 2818.053 C 2024.317 2815.685, 2025 2812.256, 2025 2810.431 C 2025 2808.607, 2025.894 2805.600, 2026.986 2803.749 C 2028.661 2800.910, 2028.793 2799.911, 2027.829 2797.358 C 2026.908 2794.918, 2026.992 2793.722, 2028.267 2791.167 C 2030.074 2787.545, 2029.965 2787.276, 2027.707 2789.772 M 1327.364 2800.170 C 1326.189 2800.738, 1324.679 2802.395, 1324.008 2803.852 C 1319.967 2812.620, 1313.437 2832.066, 1311.365 2841.500 C 1310.036 2847.550, 1307.846 2856.550, 1306.498 2861.500 C 1305.150 2866.450, 1303.564 2873.650, 1302.974 2877.500 C 1302.384 2881.350, 1299.950 2893.725, 1297.565 2905 C 1295.180 2916.275, 1292.935 2928.650, 1292.575 2932.500 C 1291.559 2943.394, 1288.190 2961.726, 1286.648 2964.759 C 1285.881 2966.267, 1284.733 2970.540, 1284.097 2974.256 C 1281.227 2991.006, 1268.946 3017.982, 1259.970 3027.250 C 1255.201 3032.175, 1253.880 3033, 1250.766 3033 C 1242.523 3033, 1235.856 3027.737, 1233.930 3019.710 C 1232.418 3013.404, 1233.268 3000.195, 1235.842 2990 C 1239.045 2977.319, 1239.218 2975.263, 1237.568 2969.585 C 1235.862 2963.718, 1229.512 2956.867, 1223.690 2954.612 C 1205.192 2947.448, 1198 2944.427, 1198 2943.821 C 1198 2943.424, 1199.579 2940.490, 1201.510 2937.300 C 1204.817 2931.835, 1210.513 2915.613, 1213.027 2904.500 C 1216.804 2887.807, 1210.949 2869.801, 1200.298 2865.351 C 1193.310 2862.431, 1179.744 2864.905, 1175.063 2869.953 C 1173.653 2871.473, 1170.250 2877.125, 1167.500 2882.513 L 1162.500 2892.310 1162.502 2906.905 C 1162.504 2923.989, 1164.326 2931.552, 1170.882 2941.697 C 1176.837 2950.910, 1181.422 2955.496, 1190.896 2961.711 C 1195.628 2964.816, 1201.147 2968.669, 1203.159 2970.273 L 1206.819 2973.189 1205.294 2976.840 C 1204.447 2978.867, 1203.513 2985.161, 1203.195 2990.995 C 1201.734 3017.750, 1204.405 3026.577, 1217.726 3039.018 C 1226.650 3047.351, 1232.398 3050.295, 1240.808 3050.835 C 1246.386 3051.193, 1247.857 3050.864, 1253.518 3047.991 C 1262.525 3043.419, 1270.659 3036.540, 1275.588 3029.327 L 1279.806 3023.155 1280.470 3026.827 C 1281.377 3031.843, 1285.470 3037.829, 1288.515 3038.593 C 1291.988 3039.465, 1299.594 3038.195, 1300.992 3036.510 C 1301.628 3035.744, 1302.601 3031.828, 1303.155 3027.809 C 1303.709 3023.789, 1305.661 3015.775, 1307.493 3010 C 1309.326 3004.225, 1311.539 2996.955, 1312.413 2993.844 C 1313.287 2990.733, 1315.464 2986.435, 1317.251 2984.293 C 1319.038 2982.152, 1321.249 2979.297, 1322.164 2977.950 L 1323.828 2975.500 1325.884 2977.500 C 1328.420 2979.966, 1335.322 3002.860, 1337.397 3015.688 C 1338.214 3020.739, 1339.541 3026.138, 1340.346 3027.686 C 1345.384 3037.372, 1358.813 3041.230, 1368.246 3035.702 C 1378.034 3029.966, 1387.349 3016.580, 1401.459 2987.978 C 1406.707 2977.341, 1411 2967.920, 1411 2967.042 C 1411 2964.066, 1408.005 2961, 1405.098 2961 C 1401.731 2961, 1399.677 2963.165, 1397.981 2968.500 C 1395.470 2976.402, 1383.134 2999.951, 1376.071 3010.327 C 1367.655 3022.691, 1363.222 3027, 1358.920 3027 C 1355.300 3027, 1351.010 3023.108, 1350.978 3019.795 C 1350.886 3010.235, 1347.904 2988.691, 1345.955 2983.500 C 1343.665 2977.404, 1338.310 2968.172, 1334.903 2964.449 C 1333.048 2962.423, 1333.087 2962.340, 1338.130 2957.449 C 1351.561 2944.426, 1380.441 2907.802, 1384.204 2899.023 C 1388.528 2888.936, 1390.337 2874.029, 1387.890 2868.657 C 1386.514 2865.638, 1383.074 2864, 1378.108 2864 C 1372.229 2864, 1363.723 2870.089, 1355.618 2880.102 C 1348.816 2888.504, 1337.372 2906.896, 1334.214 2914.500 C 1331.860 2920.168, 1322.781 2938.479, 1319.091 2945 L 1315.979 2950.500 1316.604 2946 C 1318.167 2934.743, 1333.085 2867.047, 1339.632 2841.500 C 1342.586 2829.974, 1344.428 2820.410, 1344.752 2814.910 C 1345.350 2804.784, 1344.513 2803.473, 1335.673 2800.686 C 1329.594 2798.770, 1330.180 2798.806, 1327.364 2800.170 M 1326.321 2815.858 C 1325.683 2816.879, 1323.280 2824.867, 1320.980 2833.608 C 1318.681 2842.348, 1315.229 2855.317, 1313.310 2862.426 C 1311.390 2869.535, 1309.604 2877.860, 1309.342 2880.926 C 1308.895 2886.144, 1308.966 2886.374, 1310.453 2884.530 C 1312.587 2881.884, 1318.698 2862.775, 1319.589 2855.962 C 1319.982 2852.958, 1321.135 2848.067, 1322.151 2845.093 C 1323.168 2842.120, 1324 2838.123, 1324 2836.211 C 1324 2834.300, 1324.957 2831.188, 1326.127 2829.295 C 1327.704 2826.743, 1327.963 2825.563, 1327.127 2824.727 C 1325.595 2823.195, 1325.721 2820.059, 1327.447 2816.750 C 1329.048 2813.680, 1328.134 2812.955, 1326.321 2815.858 M 1522.316 2852.326 C 1514.240 2855.304, 1505.470 2863.919, 1500.557 2873.700 C 1497.058 2880.667, 1496.172 2891.878, 1498.381 2901.252 C 1500.173 2908.855, 1512.794 2934.590, 1526.897 2959.398 C 1531.868 2968.142, 1535.681 2975.708, 1535.370 2976.211 C 1535.059 2976.714, 1535.480 2977.885, 1536.307 2978.813 C 1538.747 2981.553, 1539.492 2994.532, 1537.626 3001.814 C 1534.464 3014.156, 1528.631 3022.008, 1518.795 3027.165 C 1509.296 3032.145, 1494.936 3028.569, 1490.137 3020.029 C 1487.252 3014.897, 1487.341 3006.585, 1490.377 2997.677 L 1492.702 2990.853 1490.566 2987.677 C 1486.655 2981.857, 1481.100 2983.818, 1479.178 2991.697 C 1474.625 3010.358, 1474.914 3015.248, 1481.361 3028.583 C 1485.496 3037.137, 1486.390 3038.274, 1491.576 3041.591 C 1503.865 3049.453, 1513.469 3051.806, 1525.823 3049.981 C 1542.370 3047.537, 1551.582 3040.083, 1560.136 3022.216 C 1562.943 3016.352, 1565.948 3009.292, 1566.813 3006.527 C 1568.980 2999.605, 1568.853 2982.078, 1566.593 2976 C 1563.877 2968.698, 1554.900 2953.578, 1543.438 2937 C 1534.612 2924.234, 1531.748 2919.119, 1527.204 2908 C 1522.720 2897.029, 1521.669 2893.362, 1521.593 2888.427 C 1521.474 2880.670, 1524.701 2875.291, 1531.427 2872.035 C 1535.921 2869.860, 1536.039 2869.855, 1539.743 2871.664 C 1545.910 2874.678, 1546.558 2877.418, 1543.454 2887.374 C 1540.310 2897.457, 1540.966 2900.328, 1546.293 2899.808 C 1549.047 2899.540, 1549.862 2898.707, 1552.646 2893.318 C 1559.042 2880.936, 1557.851 2868.799, 1549.413 2860.361 C 1541.321 2852.268, 1530.874 2849.171, 1522.316 2852.326 M 2377.186 2853.553 C 2370.311 2857.033, 2363.156 2864.360, 2358.941 2872.237 C 2356.008 2877.720, 2355.541 2879.621, 2355.195 2887.500 C 2354.918 2893.802, 2355.302 2898.448, 2356.477 2903 C 2358.225 2909.773, 2371.335 2936.087, 2385.352 2960.956 C 2389.834 2968.906, 2393.369 2975.825, 2393.208 2976.331 C 2393.048 2976.837, 2393.613 2978.019, 2394.463 2978.959 C 2395.618 2980.235, 2396.029 2983.085, 2396.086 2990.200 C 2396.149 2997.980, 2395.692 3001.085, 2393.599 3007.104 C 2390.536 3015.909, 2388.879 3018.304, 2382.411 3023.271 C 2375.485 3028.590, 2368.220 3030.591, 2361.391 3029.063 C 2346.988 3025.840, 2342.284 3014.968, 2347.978 2998.066 C 2349.151 2994.582, 2349.882 2991.136, 2349.603 2990.407 C 2349.323 2989.677, 2351.098 2985.153, 2353.547 2980.353 C 2359.584 2968.523, 2359.395 2963, 2352.955 2963 C 2350.003 2963, 2347.602 2965.237, 2346.514 2969 C 2342.909 2981.464, 2317.166 3016.249, 2312.681 3014.717 C 2310.607 3014.009, 2311.340 2997.563, 2313.871 2988 C 2317.350 2974.861, 2321.562 2962.854, 2326.974 2950.653 C 2329.695 2944.519, 2332.453 2937.194, 2333.103 2934.376 C 2334.144 2929.866, 2334.059 2928.791, 2332.393 2925.404 C 2330.023 2920.586, 2325.662 2918.027, 2318.574 2917.295 C 2314.328 2916.857, 2312.460 2917.124, 2310.424 2918.458 C 2306.802 2920.831, 2302.141 2931.386, 2296.496 2950 C 2291.193 2967.486, 2291.094 2967.680, 2282.073 2978.070 C 2278.458 2982.234, 2273.118 2988.568, 2270.207 2992.145 C 2267.296 2995.722, 2262.927 3000.309, 2260.500 3002.338 C 2256.316 3005.836, 2256.031 3005.926, 2255.043 3004.080 C 2254.469 3003.008, 2254 3000.558, 2254 2998.636 C 2254 2993.367, 2259.511 2969.815, 2263.391 2958.500 C 2265.278 2953, 2267.561 2946.025, 2268.466 2943 C 2270.263 2936.993, 2278.133 2924.534, 2281.150 2922.919 C 2282.190 2922.363, 2283.452 2922.161, 2283.953 2922.471 C 2285.608 2923.494, 2287.214 2934.131, 2286.535 2939.568 C 2285.921 2944.481, 2286.057 2944.991, 2288.387 2946.518 C 2291.393 2948.488, 2294.518 2947.753, 2296.191 2944.682 C 2296.845 2943.482, 2297.407 2938.630, 2297.440 2933.900 C 2297.495 2925.984, 2297.222 2924.754, 2294 2918.442 C 2289.163 2908.965, 2284.200 2905.478, 2275.660 2905.557 C 2264.474 2905.661, 2250.940 2914.869, 2243.521 2927.425 C 2236.193 2939.826, 2225.578 2971.029, 2223.424 2986.500 C 2222.854 2990.596, 2221.540 2993.037, 2216.161 3000 C 2206.789 3012.131, 2197.295 3021.747, 2193.435 3023.022 C 2190.666 3023.935, 2189.308 3023.758, 2185.058 3021.930 C 2175.198 3017.688, 2170.458 3008.382, 2171.155 2994.638 C 2171.704 2983.804, 2174.878 2978.324, 2189.873 2962.322 C 2206.372 2944.716, 2211.376 2937.700, 2214.509 2927.782 C 2215.879 2923.445, 2217 2918.712, 2217 2917.264 C 2217 2910.423, 2207.129 2898.518, 2199.321 2895.941 C 2194.693 2894.414, 2186.455 2895.263, 2180.547 2897.876 C 2174.969 2900.344, 2165.308 2909.342, 2159.477 2917.500 C 2146.361 2935.852, 2135.905 2969.673, 2137.373 2989 C 2138.430 3002.926, 2145.194 3021.596, 2151.984 3029.329 C 2157.739 3035.884, 2167.681 3039.387, 2180.500 3039.379 C 2186.202 3039.376, 2188.520 3038.853, 2193 3036.558 C 2201.571 3032.170, 2209.586 3026.188, 2213.323 3021.391 C 2215.202 3018.980, 2218.660 3014.923, 2221.008 3012.375 C 2224.696 3008.375, 2225.406 3007.974, 2226.222 3009.432 C 2228.118 3012.819, 2233.372 3018.141, 2236.333 3019.672 C 2241.098 3022.136, 2251.519 3021.004, 2259.293 3017.176 C 2265.359 3014.190, 2275.408 3004.912, 2283.664 2994.674 L 2286.750 2990.848 2286.625 3003.174 C 2286.512 3014.334, 2286.724 3015.926, 2288.864 3020 C 2292.737 3027.371, 2296.027 3031.108, 2300.384 3033.087 C 2307.838 3036.472, 2310.366 3035.813, 2318.764 3028.296 C 2322.884 3024.609, 2327.659 3019.443, 2329.377 3016.814 C 2331.095 3014.186, 2332.778 3012.028, 2333.118 3012.018 C 2333.458 3012.008, 2333.991 3013.896, 2334.302 3016.214 C 2334.613 3018.531, 2336.915 3024.493, 2339.418 3029.464 C 2344.326 3039.209, 2346.410 3041.093, 2358.298 3046.536 C 2375.200 3054.274, 2395.235 3050.773, 2407.473 3037.943 C 2413.296 3031.838, 2421.104 3017.124, 2424.387 3006.068 C 2426.430 2999.191, 2426.507 2984.067, 2424.533 2977.432 C 2422.468 2970.486, 2412.233 2952.949, 2400.334 2935.967 C 2391.515 2923.381, 2389.456 2919.615, 2384.496 2907.004 C 2379.428 2894.117, 2378.841 2891.881, 2379.204 2886.852 C 2379.713 2879.823, 2383.335 2874.624, 2389.680 2871.817 C 2393.953 2869.927, 2394.182 2869.923, 2397.783 2871.686 C 2402.629 2874.057, 2403.843 2877.485, 2402.067 2883.773 C 2401.332 2886.373, 2400.244 2890.207, 2399.648 2892.293 C 2398.336 2896.884, 2399.524 2899.358, 2403.256 2899.807 C 2408.531 2900.442, 2414.015 2889.351, 2413.978 2878.124 C 2413.952 2870.133, 2411.812 2864.990, 2406.369 2859.835 C 2397.224 2851.174, 2386.463 2848.857, 2377.186 2853.553 M 1321.842 2883 C 1320.843 2887.516, 1320.545 2890.878, 1321.092 2891.450 C 1323.030 2893.478, 1324.087 2890.139, 1323.797 2882.903 L 1323.500 2875.500 1321.842 2883 M 1362.628 2889.936 C 1358.509 2894.894, 1347.456 2913.175, 1343.544 2921.500 C 1342.251 2924.250, 1339.769 2929.650, 1338.028 2933.500 L 1334.863 2940.500 1338.023 2937.500 C 1347.109 2928.876, 1368.565 2890.613, 1366.830 2886.129 C 1366.649 2885.659, 1364.757 2887.372, 1362.628 2889.936 M 1184.775 2891.534 C 1180.983 2893.626, 1180.280 2895.369, 1179.467 2904.687 C 1178.875 2911.477, 1179.103 2913.978, 1180.833 2919.669 C 1181.975 2923.426, 1183.521 2927.336, 1184.270 2928.358 C 1185.519 2930.063, 1185.855 2929.714, 1188.367 2924.117 C 1191.986 2916.053, 1194.153 2905.264, 1193.793 2897.110 C 1193.503 2890.557, 1193.474 2890.498, 1190.500 2890.265 C 1188.850 2890.136, 1186.274 2890.707, 1184.775 2891.534 M 1890.775 2891.559 C 1886.991 2893.612, 1886.280 2895.363, 1885.473 2904.614 C 1884.744 2912.976, 1886.148 2920.519, 1889.722 2927.429 L 1891.250 2930.384 1893.101 2926.942 C 1897.748 2918.299, 1901.329 2899.430, 1899.616 2892.606 C 1898.850 2889.555, 1895.252 2889.129, 1890.775 2891.559 M 1733.052 2893.150 C 1725.098 2895.479, 1717.382 2903.134, 1707.444 2918.556 C 1704.274 2923.475, 1699.337 2930.650, 1696.471 2934.500 C 1692.146 2940.312, 1674 2970.896, 1674 2972.374 C 1674 2972.620, 1672.124 2976.124, 1669.831 2980.160 C 1667.538 2984.197, 1663.938 2990.863, 1661.831 2994.972 L 1658 3002.445 1658 2978.617 C 1658 2954.138, 1657.150 2947.058, 1653.323 2939.657 C 1651.056 2935.275, 1647.053 2932, 1643.962 2932 C 1640.439 2932, 1631.696 2939.719, 1628.798 2945.387 C 1623.283 2956.176, 1611.471 2983.529, 1608.551 2992.273 C 1605.420 3001.650, 1603.232 3006.236, 1604.389 3000.998 C 1604.693 2999.624, 1605.387 2992.650, 1605.932 2985.500 C 1606.477 2978.350, 1607.681 2963.457, 1608.609 2952.405 C 1609.536 2941.353, 1610.006 2931.161, 1609.653 2929.755 C 1608.870 2926.634, 1605.264 2925.224, 1595.812 2924.346 C 1588.723 2923.687, 1586.340 2924.628, 1583.994 2929.012 C 1582.480 2931.841, 1578.960 2953.649, 1576.481 2975.567 C 1572.946 3006.822, 1574.017 3036.233, 1579.051 3046.100 C 1581.971 3051.823, 1586.394 3055, 1591.442 3055 C 1597.482 3055, 1600.597 3052.251, 1602.566 3045.184 C 1603.438 3042.058, 1608.117 3027.793, 1612.964 3013.484 C 1623.072 2983.647, 1630.938 2964.099, 1632.014 2966.139 C 1633.673 2969.285, 1633.832 2982.121, 1632.401 2997.285 C 1630.070 3021.978, 1631.852 3036.344, 1638.130 3043.496 C 1641.909 3047.799, 1646.857 3048.245, 1652.045 3044.749 C 1656.204 3041.946, 1661.237 3032.086, 1663.403 3022.500 C 1665.139 3014.814, 1678.853 2986.280, 1691.038 2965 C 1698.013 2952.819, 1714.545 2927, 1715.370 2927 C 1715.597 2927, 1713.997 2935.438, 1711.815 2945.750 C 1709.633 2956.063, 1707.202 2968.325, 1706.413 2973 C 1705.624 2977.675, 1704.250 2985.451, 1703.359 2990.279 C 1701.421 3000.794, 1701.943 3017.127, 1704.441 3024.105 C 1706.573 3030.061, 1714.569 3040.011, 1719.021 3042.248 C 1723.248 3044.373, 1730.835 3044.514, 1735.522 3042.555 C 1743.276 3039.315, 1751.977 3029.993, 1759.092 3017.303 L 1762.683 3010.896 1765.285 3014.307 C 1769.265 3019.525, 1774.002 3021.340, 1782.121 3020.759 C 1792.651 3020.006, 1797.931 3016.871, 1810.387 3003.978 C 1816.224 2997.936, 1821 2992.545, 1821 2991.997 C 1821 2991.448, 1821.345 2991, 1821.766 2991 C 1822.187 2991, 1822.244 2994.713, 1821.892 2999.250 C 1821.037 3010.287, 1822.249 3017.150, 1826.223 3023.784 C 1830.405 3030.764, 1835.471 3034.209, 1842.401 3034.783 C 1847.033 3035.167, 1847.915 3034.931, 1849.590 3032.855 C 1850.641 3031.553, 1853.362 3029.031, 1855.637 3027.250 C 1857.912 3025.468, 1862.537 3020.071, 1865.913 3015.256 C 1869.290 3010.440, 1874.782 3002.675, 1878.118 2998 C 1884.591 2988.929, 1894 2971.259, 1894 2968.173 C 1894 2962.989, 1885.612 2961.272, 1883.386 2966 C 1878.027 2977.378, 1873.066 2986.510, 1869.260 2992 C 1859.507 3006.069, 1849.609 3016.113, 1847.054 3014.533 C 1842.619 3011.792, 1851.308 2974.621, 1861.598 2952.310 C 1870.114 2933.846, 1870.953 2927.753, 1865.703 2922.503 C 1860.607 2917.407, 1851.679 2915.563, 1846.089 2918.454 C 1841.817 2920.663, 1837.865 2930.217, 1828.389 2961.255 C 1826.934 2966.020, 1824.360 2969.733, 1813.430 2982.828 C 1800.022 2998.892, 1792.170 3006.566, 1790.671 3005.070 C 1790.215 3004.615, 1789.619 3002.500, 1789.345 3000.371 C 1788.284 2992.108, 1802.776 2941.743, 1809.024 2931.976 C 1812.678 2926.264, 1817.518 2921.584, 1818.892 2922.433 C 1820.751 2923.582, 1822.134 2930.977, 1821.840 2938.191 C 1821.597 2944.143, 1821.842 2945.412, 1823.468 2946.600 C 1826.154 2948.564, 1828.378 2948.344, 1830.595 2945.895 C 1832.191 2944.131, 1832.500 2942.226, 1832.500 2934.145 C 1832.500 2926.016, 1832.127 2923.743, 1830.127 2919.681 C 1822.965 2905.133, 1813.132 2901.722, 1798.757 2908.799 C 1791.460 2912.391, 1784.589 2918.625, 1779.603 2926.177 C 1772.476 2936.974, 1761.541 2968.480, 1759.014 2985.500 C 1758.026 2992.153, 1756.803 2995.396, 1751.748 3004.761 C 1745.412 3016.501, 1737.108 3026, 1733.182 3026 C 1728.755 3026, 1728.574 3024.161, 1730.987 3003.727 C 1732.236 2993.152, 1734.109 2981.350, 1735.149 2977.500 C 1736.189 2973.650, 1738.344 2964.200, 1739.938 2956.500 C 1741.532 2948.800, 1743.998 2937.918, 1745.418 2932.319 C 1748.380 2920.637, 1748.656 2912.778, 1746.443 2903.051 C 1744.290 2893.581, 1740.684 2890.915, 1733.052 2893.150 M 1087.738 2897.329 C 1084.165 2900.902, 1068.765 2926.371, 1062.239 2939.500 C 1045.521 2973.135, 1042.401 3018.546, 1055.502 3037.567 C 1072.216 3061.835, 1098.480 3051.023, 1117.609 3012 C 1119.901 3007.325, 1122.684 3002.681, 1123.795 3001.679 C 1124.905 3000.678, 1128.443 2999.176, 1131.657 2998.341 C 1140.632 2996.009, 1151.870 2989.660, 1161.639 2981.402 C 1166.512 2977.282, 1172.378 2972.469, 1174.673 2970.706 C 1182.745 2964.505, 1183.281 2957, 1175.653 2957 C 1172.530 2957, 1169.123 2959.461, 1156.516 2970.822 C 1152.034 2974.861, 1146.186 2978.792, 1140.324 2981.708 C 1130.600 2986.544, 1127.244 2986.834, 1128.410 2982.738 C 1133.532 2964.745, 1134.902 2943.319, 1131.622 2932.500 C 1130.058 2927.341, 1128.765 2925.501, 1122.401 2919.377 C 1115.520 2912.755, 1115 2911.962, 1115 2908.082 C 1115 2903.093, 1112.695 2900.399, 1105.160 2896.581 C 1097.674 2892.788, 1092.037 2893.030, 1087.738 2897.329 M 2197.198 2914.127 C 2193.247 2916.682, 2187.551 2924.835, 2182.187 2935.612 C 2176.243 2947.557, 2171.155 2963, 2173.165 2963 C 2175.389 2963, 2195.596 2941.334, 2199.281 2935 C 2208.517 2919.121, 2207.363 2907.553, 2197.198 2914.127 M 2448.898 2925.285 C 2445.350 2927.671, 2443.577 2931.631, 2437.606 2950.500 C 2434.369 2960.729, 2431 2979.580, 2431 2987.465 C 2431 3000.386, 2435.778 3011.651, 2445.543 3021.750 C 2452.415 3028.858, 2453.792 3029.175, 2466.280 3026.529 C 2475.448 3024.586, 2482.033 3020.789, 2488.819 3013.532 C 2494.302 3007.668, 2505.731 2991.607, 2511.466 2981.705 C 2512.993 2979.067, 2514.404 2977.070, 2514.600 2977.266 C 2515.064 2977.730, 2511.371 2991.340, 2505.176 3012 C 2502.455 3021.075, 2498.562 3035.475, 2496.526 3044 C 2492.073 3062.637, 2492.034 3062.774, 2481.849 3095.500 C 2473.563 3122.123, 2466.228 3141.864, 2460.671 3152.500 C 2456.193 3161.071, 2442.381 3174.638, 2434 3178.698 C 2417.109 3186.882, 2401.125 3184.231, 2387.913 3171.057 C 2379.696 3162.864, 2377.626 3156.929, 2377.604 3141.500 C 2377.583 3127.319, 2379.418 3119.760, 2384.969 3111.164 C 2386.981 3108.049, 2390.570 3102.125, 2392.947 3098 C 2398.589 3088.206, 2401.398 3085.237, 2407.706 3082.403 C 2413.808 3079.661, 2416.385 3076.384, 2415.431 3072.580 C 2414.418 3068.544, 2412.024 3067.804, 2405.885 3069.627 C 2396.845 3072.311, 2393.051 3075.742, 2384.244 3089.195 C 2370.611 3110.018, 2365.759 3121.663, 2364.496 3136.587 C 2363.079 3153.335, 2368.613 3167.685, 2381.457 3180.566 C 2389.710 3188.842, 2394.683 3192.162, 2404.742 3196.110 C 2409.522 3197.986, 2412.454 3198.373, 2422 3198.389 C 2431.928 3198.406, 2434.503 3198.048, 2440.835 3195.775 C 2451.410 3191.978, 2458.377 3187.519, 2467.049 3179 C 2487.525 3158.882, 2501.344 3128.234, 2518 3066 C 2521.901 3051.425, 2526.405 3035.225, 2528.011 3030 C 2529.616 3024.775, 2533.177 3011.725, 2535.925 3001 C 2538.673 2990.275, 2542.705 2974.651, 2544.885 2966.279 C 2550.005 2946.620, 2550.757 2940.804, 2548.606 2937.521 C 2546.149 2933.771, 2541.423 2931.698, 2537.156 2932.498 C 2532.154 2933.437, 2517.978 2947.823, 2511.533 2958.500 C 2498.399 2980.260, 2487.776 2995.003, 2479.872 3002.439 C 2472.033 3009.813, 2467.806 3012.206, 2465.930 3010.330 C 2463.905 3008.305, 2462.779 2997.280, 2463.414 2985.705 C 2464.202 2971.343, 2466.110 2959.884, 2470.031 2945.954 C 2473.189 2934.736, 2473.792 2927.846, 2471.750 2926.296 C 2470.010 2924.976, 2460.612 2923, 2456.072 2923 C 2453.797 2923, 2450.945 2923.908, 2448.898 2925.285 M 1109.042 2929.958 C 1107.966 2931.034, 1103.694 2938.688, 1099.550 2946.966 C 1095.406 2955.244, 1090.887 2963.804, 1089.507 2965.988 C 1085.567 2972.230, 1086.528 2977.451, 1092.661 2983.128 C 1097.091 2987.228, 1099.348 2988, 1106.899 2988 C 1115.117 2988, 1114.683 2988.470, 1118.572 2975.376 C 1120.528 2968.789, 1121.340 2963.405, 1121.720 2954.500 C 1122.342 2939.923, 1121.315 2935.362, 1116.451 2931.091 C 1112.317 2927.462, 1111.642 2927.358, 1109.042 2929.958 M 1732.003 2936.497 C 1730.434 2938.387, 1721.127 2988.549, 1720.178 3000.230 C 1719.600 3007.342, 1719.707 3008.722, 1720.754 3007.675 C 1722.665 3005.764, 1728 2983.585, 1728 2977.552 C 1728 2974.673, 1728.670 2970.109, 1729.489 2967.409 C 1730.308 2964.709, 1730.983 2960.432, 1730.989 2957.904 C 1730.995 2955.376, 1731.700 2951.905, 1732.555 2950.190 C 1733.716 2947.862, 1733.843 2946.575, 1733.055 2945.103 C 1731.640 2942.459, 1731.718 2937.682, 1733.200 2936.200 C 1733.860 2935.540, 1734.140 2935, 1733.822 2935 C 1733.505 2935, 1732.686 2935.674, 1732.003 2936.497 M 947.768 2953.579 C 946.251 2956.070, 949.599 3021.486, 951.986 3036 C 952.484 3039.025, 953.194 3044.544, 953.564 3048.264 C 953.933 3051.984, 954.633 3055.273, 955.118 3055.573 C 956.444 3056.393, 956.202 3052.533, 954.007 3037.840 C 952.648 3028.749, 952.011 3019.323, 952.007 3008.246 C 951.999 2990.589, 950.179 2957.670, 949.038 2954.579 C 948.648 2953.522, 948.077 2953.072, 947.768 2953.579 M 2533.717 2958.663 C 2532.789 2960.188, 2527.994 2981.138, 2527.377 2986.364 C 2527.044 2989.189, 2525.652 2994.182, 2524.284 2997.460 C 2522.917 3000.738, 2521.489 3006.650, 2521.112 3010.598 C 2520.605 3015.906, 2519.746 3018.783, 2517.816 3021.638 C 2515.720 3024.740, 2515.117 3027.020, 2514.755 3033.220 C 2514.409 3039.142, 2513.598 3042.402, 2511.271 3047.220 C 2509.421 3051.049, 2508.015 3055.841, 2507.669 3059.500 C 2507.283 3063.575, 2505.960 3067.726, 2503.546 3072.438 C 2500.947 3077.509, 2500.318 3079.578, 2501.206 3080.127 C 2502.116 3080.690, 2501.992 3081.352, 2500.710 3082.768 C 2498.629 3085.067, 2498.554 3086.385, 2500.415 3087.930 C 2501.598 3088.911, 2502.511 3086.947, 2505.966 3075.990 C 2508.240 3068.777, 2513.259 3051.316, 2517.120 3037.187 C 2530.948 2986.582, 2536.878 2960.583, 2535.031 2958.663 C 2534.588 2958.202, 2533.997 2958.202, 2533.717 2958.663 M 1212.200 2973.200 C 1211.540 2973.860, 1211 2975.516, 1211 2976.881 C 1211 2978.245, 1209.878 2986.593, 1208.508 2995.431 C 1206.855 3006.085, 1206.291 3012.511, 1206.834 3014.500 C 1207.598 3017.303, 1207.721 3017.369, 1208.706 3015.500 C 1210.209 3012.650, 1212.876 3000.228, 1213.001 2995.500 C 1213.265 2985.514, 1213.615 2982.368, 1214.660 2980.569 C 1215.531 2979.071, 1215.453 2978.310, 1214.313 2977.170 C 1213.506 2976.363, 1213.063 2974.869, 1213.329 2973.851 C 1213.898 2971.672, 1213.790 2971.610, 1212.200 2973.200 M 1917.729 2973.604 C 1917.328 2974.005, 1917 2975.465, 1917 2976.847 C 1917 2978.230, 1915.878 2986.593, 1914.508 2995.431 C 1912.855 3006.085, 1912.291 3012.511, 1912.834 3014.500 C 1913.598 3017.303, 1913.721 3017.369, 1914.706 3015.500 C 1916.209 3012.650, 1918.876 3000.228, 1919.001 2995.500 C 1919.265 2985.521, 1919.642 2982.347, 1920.814 2980.250 C 1921.505 2979.012, 1921.642 2978, 1921.119 2978 C 1920.595 2978, 1919.782 2976.847, 1919.313 2975.438 C 1918.843 2974.028, 1918.130 2973.203, 1917.729 2973.604 M 1079.100 2993.721 C 1077.610 2999.394, 1075.007 3015.095, 1075.003 3018.434 C 1074.996 3025.386, 1082.258 3034.005, 1086.886 3032.536 C 1090.857 3031.276, 1100.022 3020.146, 1104.117 3011.612 C 1106.358 3006.941, 1107.936 3002.706, 1107.624 3002.201 C 1107.312 3001.695, 1104.535 3000.986, 1101.454 3000.624 C 1094.338 2999.787, 1089.762 2997.865, 1084.373 2993.450 L 1080.093 2989.942 1079.100 2993.721" stroke="none" fill="#0442a7" fill-rule="evenodd"/><path d="M 0 1700 L 0 3400.001 1689.250 3399.750 L 3378.500 3399.500 3378.750 1699.750 L 3379.001 0 1689.500 0 L 0 0 0 1700 M 0.499 1700.500 C 0.499 2635.500, 0.612 3017.850, 0.750 2550.167 C 0.888 2082.484, 0.888 1317.484, 0.750 850.167 C 0.612 382.850, 0.499 765.500, 0.499 1700.500 M 201 1391 L 201 2582 1689 2582 L 3177 2582 3177 1391 L 3177 200 1689 200 L 201 200 201 1391 M 533.102 377.082 C 489.258 380.443, 448.097 401.657, 418.095 436.356 C 394.604 463.526, 382.156 492.889, 378.984 528.613 C 378.250 536.878, 378.031 801.791, 378.267 1398 C 378.574 2177.900, 378.749 2256.224, 380.199 2263.500 C 387.444 2299.852, 400.841 2326.001, 425.398 2351.722 C 451.014 2378.551, 478.918 2394.505, 513.660 2402.183 C 522.149 2404.059, 526.727 2404.367, 547 2404.429 C 567.990 2404.492, 571.662 2404.251, 581.378 2402.172 C 612.988 2395.406, 641.828 2379.925, 664.596 2357.500 C 690.749 2331.740, 706.825 2299.565, 712.442 2261.735 C 713.843 2252.298, 713.999 2164.562, 713.994 1389.372 C 713.988 457.064, 714.350 521.004, 708.952 499.780 C 694.105 441.408, 642.228 392.031, 583.148 380.038 C 574.348 378.252, 550.700 375.798, 545.605 376.142 C 544.447 376.221, 538.821 376.643, 533.102 377.082 M 2001.238 377.101 C 1979.284 378.953, 1960 384.363, 1939.500 394.420 C 1917.254 405.333, 1900.504 419.079, 1884.993 439.148 C 1862.017 468.876, 1849.671 498.848, 1846.949 531.500 C 1846.403 538.056, 1846.026 893.272, 1846.016 1410.750 L 1846 2279 1804.500 2279 L 1763 2279 1763 1333.500 L 1763 388 1700 388 L 1637 388 1637 1391 L 1637 2394 1741.500 2394 L 1846 2394 1846 2336.500 L 1846 2279 1857.500 2279 L 1869 2279 1869 2336.500 L 1869 2394 1921 2394 L 1973 2394 1973 1921 L 1973 1448 2014.500 1448 L 2056 1448 2056 1921 L 2056 2394 2119.500 2394 L 2183 2394 2183 1468.645 C 2183 837.124, 2182.670 539.196, 2181.960 530.395 C 2180.004 506.134, 2175.618 489.943, 2165.465 469.500 C 2156.893 452.241, 2148.028 440.042, 2133.493 425.507 C 2106.261 398.275, 2075.056 382.542, 2039.500 378.116 C 2026.885 376.546, 2012.381 376.161, 2001.238 377.101 M 2840.500 377.049 C 2811.811 379.330, 2785.173 388.588, 2761.501 404.507 C 2722.031 431.050, 2696.399 468.820, 2687.800 513.110 L 2685.588 524.500 2685.253 903 C 2685.022 1164.193, 2685.247 1285.184, 2685.979 1293.387 C 2687.898 1314.903, 2692.556 1332.019, 2701.521 1350.500 C 2725.396 1399.719, 2768.950 1434.117, 2821.152 1444.984 C 2826.461 1446.089, 2838.161 1447.440, 2847.152 1447.987 C 2856.143 1448.533, 2864.863 1449.374, 2866.528 1449.857 C 2876.740 1452.813, 2886.470 1461.091, 2891.276 1470.911 L 2894.500 1477.500 2894.500 1868 L 2894.500 2258.500 2891.276 2265.089 C 2885.576 2276.738, 2874.506 2284.922, 2861.681 2286.971 C 2843.196 2289.924, 2823.675 2280.243, 2815.781 2264.206 L 2812.500 2257.542 2812.245 1874.771 L 2811.990 1492 2748.478 1492 L 2684.967 1492 2685.278 1873.250 L 2685.588 2254.500 2687.762 2265.670 C 2695.274 2304.267, 2714.163 2336.622, 2745.056 2363.812 C 2767.004 2383.128, 2789.819 2394.866, 2818.540 2401.617 C 2829.894 2404.285, 2831.716 2404.428, 2854.500 2404.439 C 2875.623 2404.450, 2879.716 2404.185, 2888.648 2402.227 C 2922.048 2394.908, 2948.001 2380.176, 2973.149 2354.260 C 2998.649 2327.981, 3013.166 2299.502, 3019.681 2262.975 C 3021.243 2254.215, 3021.398 2225.221, 3021.734 1879 C 3021.983 1622.444, 3021.764 1499.813, 3021.040 1489.617 C 3019.780 1471.866, 3017.271 1458.844, 3012.432 1444.943 C 3000.861 1411.701, 2977.194 1381.492, 2946.547 1360.847 C 2920.971 1343.618, 2895.205 1335.632, 2857.464 1333.236 C 2844.303 1332.401, 2843.037 1332.137, 2837.152 1329 C 2829.505 1324.925, 2823.077 1317.988, 2818.749 1309.141 L 2815.500 1302.500 2815.500 912.500 L 2815.500 522.500 2818.722 515.698 C 2822.513 507.693, 2831.219 498.487, 2838.146 495.156 C 2851.399 488.784, 2868.495 490.973, 2879.805 500.490 C 2884.833 504.720, 2890.050 512.594, 2892.586 519.780 L 2894.958 526.500 2894.979 906.735 L 2895 1286.971 2958.084 1287.235 C 2992.780 1287.381, 3021.355 1287.313, 3021.584 1287.083 C 3022.535 1286.131, 3021.943 544.960, 3020.981 531.605 C 3018.196 492.981, 3005.401 462.203, 2980.138 433.360 C 2944.680 392.876, 2894.742 372.738, 2840.500 377.049 M 798 1390.953 L 798 2394 888.250 2393.980 C 983.720 2393.960, 988.731 2393.757, 1008.136 2389.138 C 1032.637 2383.306, 1057.313 2370.159, 1077.238 2352.322 C 1106.134 2326.455, 1124.172 2295.039, 1131.238 2258.272 L 1133.500 2246.500 1133.500 1391 L 1133.500 535.500 1131.254 523.820 C 1122.536 478.483, 1096.325 439.879, 1056.500 413.726 C 1040.090 402.949, 1021.008 395.226, 999.708 390.740 C 989.744 388.641, 987.210 388.581, 893.750 388.248 L 798 387.907 798 1390.953 M 1217 1391 L 1217 2394 1385 2394 L 1553 2394 1553 1963 L 1553 1532 1490 1532 L 1427 1532 1427 1905.500 L 1427 2279 1385.363 2279 L 1343.726 2279 1344.508 2029.750 C 1344.939 1892.662, 1345.563 1705.800, 1345.895 1614.500 L 1346.500 1448.500 1449.750 1448.245 L 1553 1447.991 1553 1390.495 L 1553 1333 1448.500 1333 L 1344 1333 1344 918 L 1344 503 1385.500 503 L 1427 503 1427 876.500 L 1427 1250 1490 1250 L 1553 1250 1553 819 L 1553 388 1385 388 L 1217 388 1217 1391 M 2266 1391 L 2266 2394 2355.949 2394 C 2453.441 2394, 2458.841 2393.756, 2478.949 2388.440 C 2517.383 2378.278, 2551.685 2353.228, 2575.085 2318.234 C 2589.790 2296.243, 2598.361 2272.199, 2601.012 2245.500 C 2601.786 2237.701, 2602.016 2123.346, 2601.802 1852.500 L 2601.500 1470.500 2599.246 1459.295 C 2594.698 1436.688, 2585.913 1415.283, 2573.565 1396.726 L 2567.815 1388.087 2573.301 1379.793 C 2585.391 1361.516, 2594.622 1338.725, 2599.232 1315.767 L 2601.495 1304.500 2601.801 926 C 2602.019 654.998, 2601.793 544.376, 2601.002 536.500 C 2599.676 523.302, 2597.881 514.687, 2593.811 502 C 2578.426 454.035, 2536.076 411.659, 2488 396.122 C 2463.375 388.164, 2461.397 388.042, 2356.750 388.020 L 2266 388 2266 1391 M 540.186 492.118 C 527.220 494.275, 515.434 503.296, 509.259 515.790 L 505.500 523.396 505.500 1390.948 L 505.500 2258.500 507.899 2263.332 C 516.045 2279.742, 535.964 2289.982, 554.069 2287.066 C 570.552 2284.412, 583.296 2272.683, 586.961 2256.791 C 588.436 2250.397, 588.367 531.852, 586.891 524.799 C 584.445 513.106, 575.268 500.703, 565.340 495.673 C 560.774 493.359, 550.695 490.846, 547.066 491.117 C 546.205 491.181, 543.109 491.632, 540.186 492.118 M 2008.594 492.047 C 1995.878 494.203, 1980.756 506.548, 1975.794 518.824 L 1973.500 524.500 1973.245 928.750 L 1972.990 1333 2014.495 1333 L 2056 1333 2056 930.605 C 2056 533.484, 2055.974 528.127, 2054.036 521.855 C 2047.575 500.950, 2028.784 488.624, 2008.594 492.047 M 924 1391 L 924 2279 948.318 2279 C 967.424 2279, 973.801 2278.664, 978.068 2277.432 C 990.473 2273.852, 1000.959 2263.122, 1005.379 2249.485 C 1006.875 2244.869, 1006.985 2176.380, 1006.752 1387.985 L 1006.500 531.500 1003.865 525.880 C 999.033 515.576, 989.939 507.767, 979.068 504.588 C 974.751 503.326, 968.546 503, 948.818 503 L 924 503 924 1391 M 2395 918.061 L 2395 1333.123 2420.750 1332.811 C 2445.728 1332.509, 2446.650 1332.427, 2451.500 1330.052 C 2462.739 1324.548, 2472.884 1310.258, 2474.965 1297 C 2476.407 1287.812, 2476.378 544.923, 2474.935 536.032 C 2472.443 520.671, 2461.447 508.334, 2446.764 504.425 C 2442.975 503.416, 2434.985 503.020, 2418.250 503.012 L 2395 503 2395 918.061 M 2395.750 1448.565 C 2395.338 1448.988, 2395 1636.008, 2395 1864.167 L 2395 2279 2417.750 2278.988 C 2434.283 2278.980, 2441.970 2278.585, 2445.878 2277.545 C 2460.422 2273.674, 2472.233 2259.629, 2474.931 2242.994 C 2476.396 2233.964, 2476.409 1493.114, 2474.944 1484.086 C 2473.404 1474.595, 2469.603 1467.454, 2462.076 1459.909 C 2451.743 1449.552, 2448.953 1448.778, 2420 1448.236 C 2407.075 1447.995, 2396.162 1448.143, 2395.750 1448.565 M 1082.828 2761.889 C 1079.435 2765.854, 1069.248 2787.502, 1060.188 2810 C 1050.894 2833.076, 1033.229 2878.419, 1030.189 2887 C 1028.533 2891.675, 1024.266 2902.925, 1020.706 2912 C 1017.146 2921.075, 1010.611 2939.075, 1006.185 2952 C 1001.758 2964.925, 993.780 2987.650, 988.456 3002.500 C 983.131 3017.350, 978.407 3030.625, 977.957 3032 C 977.508 3033.375, 977.362 3003.450, 977.634 2965.500 C 978.072 2904.297, 978.537 2883.751, 980.702 2829.833 C 981.586 2807.834, 979.896 2801, 973.573 2801 C 970.510 2801, 967.905 2804.272, 963.244 2813.974 C 961.255 2818.113, 957.687 2824.503, 955.315 2828.173 C 943.557 2846.367, 933.915 2869.353, 917.006 2919.500 C 906.295 2951.267, 892.449 2988.272, 888.060 2996.862 L 886.342 3000.223 884.531 2994.362 C 882.095 2986.474, 881.458 2961.927, 882.934 2932.827 C 883.558 2920.547, 884.720 2893.175, 885.516 2872 C 886.313 2850.825, 887.258 2830.520, 887.615 2826.878 C 888.497 2817.894, 887.417 2811.649, 884.351 2808.005 C 882.121 2805.355, 881.190 2805, 876.476 2805 C 866.914 2805, 864.674 2806.807, 860.889 2817.574 C 859.398 2821.818, 858.581 2827.782, 857.892 2839.454 C 857.370 2848.279, 856.043 2863.600, 854.941 2873.500 C 852.397 2896.367, 850.036 2934.333, 850.016 2952.692 C 849.999 2967.714, 852.995 2997.441, 855.527 3007.380 C 859.463 3022.828, 867.431 3032, 876.916 3032 C 883.764 3032, 887.052 3028.059, 896.496 3008.533 C 901.027 2999.165, 905.911 2988.350, 907.349 2984.500 C 908.786 2980.650, 915.621 2962.200, 922.537 2943.500 C 929.453 2924.800, 937.224 2903.875, 939.806 2897 L 944.500 2884.500 944.809 2889.357 C 944.979 2892.028, 944.629 2897.878, 944.031 2902.357 C 942.568 2913.308, 940.698 2990.975, 941.475 3008.500 C 942.946 3041.672, 947.536 3060.422, 956.227 3068.767 C 962.408 3074.701, 969.356 3074.884, 975.264 3069.270 C 979.305 3065.429, 979.828 3064.257, 988.303 3040 C 992.435 3028.175, 997.925 3013.100, 1000.505 3006.500 C 1003.084 2999.900, 1010.287 2979.650, 1016.511 2961.500 C 1028.917 2925.324, 1034.954 2908.921, 1049.448 2872 C 1054.738 2858.525, 1062.049 2839.850, 1065.695 2830.500 C 1073.205 2811.238, 1085.420 2783.584, 1090.555 2774.216 C 1094.470 2767.073, 1094.895 2762.895, 1092 2760 C 1089.034 2757.034, 1086.543 2757.547, 1082.828 2761.889 M 2033 2762.706 C 2030.705 2763.545, 2026.963 2767.206, 2025.472 2770.071 C 2022.802 2775.202, 2013.892 2806.207, 2007.518 2832.551 C 2003.932 2847.373, 2000.288 2860.897, 1999.420 2862.604 C 1998.331 2864.747, 1996.003 2866.587, 1991.897 2868.549 C 1988.626 2870.112, 1983.387 2873.559, 1980.254 2876.208 C 1972.179 2883.036, 1970.261 2887.118, 1973.571 2890.429 C 1976.229 2893.086, 1978.780 2892.218, 1984.925 2886.569 C 1988.174 2883.582, 1992.245 2880.407, 1993.972 2879.515 L 1997.111 2877.891 1996.558 2881.196 C 1996.255 2883.013, 1995.299 2889.900, 1994.435 2896.500 C 1993.572 2903.100, 1991.574 2916.600, 1989.996 2926.500 C 1985.963 2951.806, 1985 2961.816, 1985 2978.416 L 1985 2992.910 1980.945 3002.124 C 1972.155 3022.099, 1963.555 3033, 1956.587 3033 C 1948.538 3033, 1941.838 3027.662, 1939.936 3019.734 C 1938.309 3012.953, 1939.219 3000.989, 1942.402 2987.311 C 1945.647 2973.362, 1944.994 2968.547, 1938.919 2961.645 C 1934.683 2956.833, 1932.540 2955.682, 1915.250 2948.933 C 1909.063 2946.517, 1904 2944.227, 1904 2943.842 C 1904 2943.458, 1905.583 2940.486, 1907.517 2937.239 C 1909.452 2933.992, 1912.896 2925.522, 1915.171 2918.417 C 1918.981 2906.520, 1919.315 2904.592, 1919.404 2894 C 1919.488 2883.919, 1919.208 2881.853, 1917.130 2877.258 C 1914.232 2870.846, 1908.378 2865.349, 1903.468 2864.428 C 1898.266 2863.452, 1890.492 2864.583, 1885.374 2867.061 C 1881.836 2868.774, 1880.159 2870.587, 1876.786 2876.345 C 1869.196 2889.303, 1868.048 2893.129, 1868.041 2905.500 C 1868.026 2931.587, 1876.617 2948.364, 1896.815 2961.689 C 1901.592 2964.841, 1907.147 2968.717, 1909.159 2970.304 L 1912.819 2973.189 1911.264 2976.845 C 1910.368 2978.949, 1909.568 2984.320, 1909.378 2989.500 C 1909.197 2994.450, 1908.811 2999.625, 1908.519 3001 C 1907.519 3005.728, 1910.595 3021.484, 1913.594 3026.996 C 1917.017 3033.285, 1929.232 3044.951, 1935.762 3048.167 C 1939.453 3049.984, 1942.162 3050.500, 1948.021 3050.500 C 1955.123 3050.500, 1955.959 3050.253, 1963.021 3046.074 C 1974.059 3039.543, 1980.977 3031.984, 1986.824 3020.065 L 1991.698 3010.130 1995.880 3016.061 C 2001.374 3023.851, 2005.906 3026.203, 2016.548 3026.787 C 2023.295 3027.158, 2025.433 3026.869, 2029.775 3025.002 C 2035.174 3022.679, 2042.160 3016.036, 2044.237 3011.248 C 2044.893 3009.737, 2046.392 3006.925, 2047.568 3005 C 2052.404 2997.085, 2063 2972.694, 2063 2969.475 C 2063 2965.432, 2059.919 2962.724, 2056.682 2963.922 C 2054.262 2964.817, 2054.185 2964.945, 2049.637 2975.500 C 2037.698 3003.207, 2032.997 3012.020, 2029.425 3013.391 C 2028.699 3013.669, 2025.734 3013.133, 2022.837 3012.198 C 2013.834 3009.296, 2011.141 3003.338, 2010.317 2984.500 C 2009.925 2975.544, 2010.333 2968.298, 2011.923 2955.931 C 2014.855 2933.136, 2024.614 2874.591, 2025.873 2872.237 C 2026.485 2871.095, 2029.664 2869.412, 2033.701 2868.093 C 2041.339 2865.599, 2061.048 2855.017, 2065.250 2851.154 C 2068.668 2848.011, 2068.794 2844.566, 2065.567 2842.452 C 2062.712 2840.581, 2062.307 2840.743, 2051 2848.303 C 2042.275 2854.136, 2034.446 2857.976, 2031.250 2857.990 C 2030.013 2857.996, 2029 2857.810, 2029 2857.577 C 2029 2855.229, 2038.339 2816.405, 2043.012 2799.322 C 2049.003 2777.426, 2049.819 2772.284, 2048.043 2767.613 C 2046.401 2763.295, 2038.469 2760.707, 2033 2762.706 M 2027.707 2789.772 C 2025.826 2791.850, 2011.494 2846.725, 2010.540 2855.500 C 2009.934 2861.076, 2009.999 2861.361, 2011.465 2859.530 C 2013.688 2856.753, 2019.600 2837.863, 2020.885 2829.429 C 2021.478 2825.539, 2022.646 2820.420, 2023.481 2818.053 C 2024.317 2815.685, 2025 2812.256, 2025 2810.431 C 2025 2808.607, 2025.894 2805.600, 2026.986 2803.749 C 2028.661 2800.910, 2028.793 2799.911, 2027.829 2797.358 C 2026.908 2794.918, 2026.992 2793.722, 2028.267 2791.167 C 2030.074 2787.545, 2029.965 2787.276, 2027.707 2789.772 M 1327.364 2800.170 C 1326.189 2800.738, 1324.679 2802.395, 1324.008 2803.852 C 1319.967 2812.620, 1313.437 2832.066, 1311.365 2841.500 C 1310.036 2847.550, 1307.846 2856.550, 1306.498 2861.500 C 1305.150 2866.450, 1303.564 2873.650, 1302.974 2877.500 C 1302.384 2881.350, 1299.950 2893.725, 1297.565 2905 C 1295.180 2916.275, 1292.935 2928.650, 1292.575 2932.500 C 1291.559 2943.394, 1288.190 2961.726, 1286.648 2964.759 C 1285.881 2966.267, 1284.733 2970.540, 1284.097 2974.256 C 1281.227 2991.006, 1268.946 3017.982, 1259.970 3027.250 C 1255.201 3032.175, 1253.880 3033, 1250.766 3033 C 1242.523 3033, 1235.856 3027.737, 1233.930 3019.710 C 1232.418 3013.404, 1233.268 3000.195, 1235.842 2990 C 1239.045 2977.319, 1239.218 2975.263, 1237.568 2969.585 C 1235.862 2963.718, 1229.512 2956.867, 1223.690 2954.612 C 1205.192 2947.448, 1198 2944.427, 1198 2943.821 C 1198 2943.424, 1199.579 2940.490, 1201.510 2937.300 C 1204.817 2931.835, 1210.513 2915.613, 1213.027 2904.500 C 1216.804 2887.807, 1210.949 2869.801, 1200.298 2865.351 C 1193.310 2862.431, 1179.744 2864.905, 1175.063 2869.953 C 1173.653 2871.473, 1170.250 2877.125, 1167.500 2882.513 L 1162.500 2892.310 1162.502 2906.905 C 1162.504 2923.989, 1164.326 2931.552, 1170.882 2941.697 C 1176.837 2950.910, 1181.422 2955.496, 1190.896 2961.711 C 1195.628 2964.816, 1201.147 2968.669, 1203.159 2970.273 L 1206.819 2973.189 1205.294 2976.840 C 1204.447 2978.867, 1203.513 2985.161, 1203.195 2990.995 C 1201.734 3017.750, 1204.405 3026.577, 1217.726 3039.018 C 1226.650 3047.351, 1232.398 3050.295, 1240.808 3050.835 C 1246.386 3051.193, 1247.857 3050.864, 1253.518 3047.991 C 1262.525 3043.419, 1270.659 3036.540, 1275.588 3029.327 L 1279.806 3023.155 1280.470 3026.827 C 1281.377 3031.843, 1285.470 3037.829, 1288.515 3038.593 C 1291.988 3039.465, 1299.594 3038.195, 1300.992 3036.510 C 1301.628 3035.744, 1302.601 3031.828, 1303.155 3027.809 C 1303.709 3023.789, 1305.661 3015.775, 1307.493 3010 C 1309.326 3004.225, 1311.539 2996.955, 1312.413 2993.844 C 1313.287 2990.733, 1315.464 2986.435, 1317.251 2984.293 C 1319.038 2982.152, 1321.249 2979.297, 1322.164 2977.950 L 1323.828 2975.500 1325.884 2977.500 C 1328.420 2979.966, 1335.322 3002.860, 1337.397 3015.688 C 1338.214 3020.739, 1339.541 3026.138, 1340.346 3027.686 C 1345.384 3037.372, 1358.813 3041.230, 1368.246 3035.702 C 1378.034 3029.966, 1387.349 3016.580, 1401.459 2987.978 C 1406.707 2977.341, 1411 2967.920, 1411 2967.042 C 1411 2964.066, 1408.005 2961, 1405.098 2961 C 1401.731 2961, 1399.677 2963.165, 1397.981 2968.500 C 1395.470 2976.402, 1383.134 2999.951, 1376.071 3010.327 C 1367.655 3022.691, 1363.222 3027, 1358.920 3027 C 1355.300 3027, 1351.010 3023.108, 1350.978 3019.795 C 1350.886 3010.235, 1347.904 2988.691, 1345.955 2983.500 C 1343.665 2977.404, 1338.310 2968.172, 1334.903 2964.449 C 1333.048 2962.423, 1333.087 2962.340, 1338.130 2957.449 C 1351.561 2944.426, 1380.441 2907.802, 1384.204 2899.023 C 1388.528 2888.936, 1390.337 2874.029, 1387.890 2868.657 C 1386.514 2865.638, 1383.074 2864, 1378.108 2864 C 1372.229 2864, 1363.723 2870.089, 1355.618 2880.102 C 1348.816 2888.504, 1337.372 2906.896, 1334.214 2914.500 C 1331.860 2920.168, 1322.781 2938.479, 1319.091 2945 L 1315.979 2950.500 1316.604 2946 C 1318.167 2934.743, 1333.085 2867.047, 1339.632 2841.500 C 1342.586 2829.974, 1344.428 2820.410, 1344.752 2814.910 C 1345.350 2804.784, 1344.513 2803.473, 1335.673 2800.686 C 1329.594 2798.770, 1330.180 2798.806, 1327.364 2800.170 M 1326.321 2815.858 C 1325.683 2816.879, 1323.280 2824.867, 1320.980 2833.608 C 1318.681 2842.348, 1315.229 2855.317, 1313.310 2862.426 C 1311.390 2869.535, 1309.604 2877.860, 1309.342 2880.926 C 1308.895 2886.144, 1308.966 2886.374, 1310.453 2884.530 C 1312.587 2881.884, 1318.698 2862.775, 1319.589 2855.962 C 1319.982 2852.958, 1321.135 2848.067, 1322.151 2845.093 C 1323.168 2842.120, 1324 2838.123, 1324 2836.211 C 1324 2834.300, 1324.957 2831.188, 1326.127 2829.295 C 1327.704 2826.743, 1327.963 2825.563, 1327.127 2824.727 C 1325.595 2823.195, 1325.721 2820.059, 1327.447 2816.750 C 1329.048 2813.680, 1328.134 2812.955, 1326.321 2815.858 M 1522.316 2852.326 C 1514.240 2855.304, 1505.470 2863.919, 1500.557 2873.700 C 1497.058 2880.667, 1496.172 2891.878, 1498.381 2901.252 C 1500.173 2908.855, 1512.794 2934.590, 1526.897 2959.398 C 1531.868 2968.142, 1535.681 2975.708, 1535.370 2976.211 C 1535.059 2976.714, 1535.480 2977.885, 1536.307 2978.813 C 1538.747 2981.553, 1539.492 2994.532, 1537.626 3001.814 C 1534.464 3014.156, 1528.631 3022.008, 1518.795 3027.165 C 1509.296 3032.145, 1494.936 3028.569, 1490.137 3020.029 C 1487.252 3014.897, 1487.341 3006.585, 1490.377 2997.677 L 1492.702 2990.853 1490.566 2987.677 C 1486.655 2981.857, 1481.100 2983.818, 1479.178 2991.697 C 1474.625 3010.358, 1474.914 3015.248, 1481.361 3028.583 C 1485.496 3037.137, 1486.390 3038.274, 1491.576 3041.591 C 1503.865 3049.453, 1513.469 3051.806, 1525.823 3049.981 C 1542.370 3047.537, 1551.582 3040.083, 1560.136 3022.216 C 1562.943 3016.352, 1565.948 3009.292, 1566.813 3006.527 C 1568.980 2999.605, 1568.853 2982.078, 1566.593 2976 C 1563.877 2968.698, 1554.900 2953.578, 1543.438 2937 C 1534.612 2924.234, 1531.748 2919.119, 1527.204 2908 C 1522.720 2897.029, 1521.669 2893.362, 1521.593 2888.427 C 1521.474 2880.670, 1524.701 2875.291, 1531.427 2872.035 C 1535.921 2869.860, 1536.039 2869.855, 1539.743 2871.664 C 1545.910 2874.678, 1546.558 2877.418, 1543.454 2887.374 C 1540.310 2897.457, 1540.966 2900.328, 1546.293 2899.808 C 1549.047 2899.540, 1549.862 2898.707, 1552.646 2893.318 C 1559.042 2880.936, 1557.851 2868.799, 1549.413 2860.361 C 1541.321 2852.268, 1530.874 2849.171, 1522.316 2852.326 M 2377.186 2853.553 C 2370.311 2857.033, 2363.156 2864.360, 2358.941 2872.237 C 2356.008 2877.720, 2355.541 2879.621, 2355.195 2887.500 C 2354.918 2893.802, 2355.302 2898.448, 2356.477 2903 C 2358.225 2909.773, 2371.335 2936.087, 2385.352 2960.956 C 2389.834 2968.906, 2393.369 2975.825, 2393.208 2976.331 C 2393.048 2976.837, 2393.613 2978.019, 2394.463 2978.959 C 2395.618 2980.235, 2396.029 2983.085, 2396.086 2990.200 C 2396.149 2997.980, 2395.692 3001.085, 2393.599 3007.104 C 2390.536 3015.909, 2388.879 3018.304, 2382.411 3023.271 C 2375.485 3028.590, 2368.220 3030.591, 2361.391 3029.063 C 2346.988 3025.840, 2342.284 3014.968, 2347.978 2998.066 C 2349.151 2994.582, 2349.882 2991.136, 2349.603 2990.407 C 2349.323 2989.677, 2351.098 2985.153, 2353.547 2980.353 C 2359.584 2968.523, 2359.395 2963, 2352.955 2963 C 2350.003 2963, 2347.602 2965.237, 2346.514 2969 C 2342.909 2981.464, 2317.166 3016.249, 2312.681 3014.717 C 2310.607 3014.009, 2311.340 2997.563, 2313.871 2988 C 2317.350 2974.861, 2321.562 2962.854, 2326.974 2950.653 C 2329.695 2944.519, 2332.453 2937.194, 2333.103 2934.376 C 2334.144 2929.866, 2334.059 2928.791, 2332.393 2925.404 C 2330.023 2920.586, 2325.662 2918.027, 2318.574 2917.295 C 2314.328 2916.857, 2312.460 2917.124, 2310.424 2918.458 C 2306.802 2920.831, 2302.141 2931.386, 2296.496 2950 C 2291.193 2967.486, 2291.094 2967.680, 2282.073 2978.070 C 2278.458 2982.234, 2273.118 2988.568, 2270.207 2992.145 C 2267.296 2995.722, 2262.927 3000.309, 2260.500 3002.338 C 2256.316 3005.836, 2256.031 3005.926, 2255.043 3004.080 C 2254.469 3003.008, 2254 3000.558, 2254 2998.636 C 2254 2993.367, 2259.511 2969.815, 2263.391 2958.500 C 2265.278 2953, 2267.561 2946.025, 2268.466 2943 C 2270.263 2936.993, 2278.133 2924.534, 2281.150 2922.919 C 2282.190 2922.363, 2283.452 2922.161, 2283.953 2922.471 C 2285.608 2923.494, 2287.214 2934.131, 2286.535 2939.568 C 2285.921 2944.481, 2286.057 2944.991, 2288.387 2946.518 C 2291.393 2948.488, 2294.518 2947.753, 2296.191 2944.682 C 2296.845 2943.482, 2297.407 2938.630, 2297.440 2933.900 C 2297.495 2925.984, 2297.222 2924.754, 2294 2918.442 C 2289.163 2908.965, 2284.200 2905.478, 2275.660 2905.557 C 2264.474 2905.661, 2250.940 2914.869, 2243.521 2927.425 C 2236.193 2939.826, 2225.578 2971.029, 2223.424 2986.500 C 2222.854 2990.596, 2221.540 2993.037, 2216.161 3000 C 2206.789 3012.131, 2197.295 3021.747, 2193.435 3023.022 C 2190.666 3023.935, 2189.308 3023.758, 2185.058 3021.930 C 2175.198 3017.688, 2170.458 3008.382, 2171.155 2994.638 C 2171.704 2983.804, 2174.878 2978.324, 2189.873 2962.322 C 2206.372 2944.716, 2211.376 2937.700, 2214.509 2927.782 C 2215.879 2923.445, 2217 2918.712, 2217 2917.264 C 2217 2910.423, 2207.129 2898.518, 2199.321 2895.941 C 2194.693 2894.414, 2186.455 2895.263, 2180.547 2897.876 C 2174.969 2900.344, 2165.308 2909.342, 2159.477 2917.500 C 2146.361 2935.852, 2135.905 2969.673, 2137.373 2989 C 2138.430 3002.926, 2145.194 3021.596, 2151.984 3029.329 C 2157.739 3035.884, 2167.681 3039.387, 2180.500 3039.379 C 2186.202 3039.376, 2188.520 3038.853, 2193 3036.558 C 2201.571 3032.170, 2209.586 3026.188, 2213.323 3021.391 C 2215.202 3018.980, 2218.660 3014.923, 2221.008 3012.375 C 2224.696 3008.375, 2225.406 3007.974, 2226.222 3009.432 C 2228.118 3012.819, 2233.372 3018.141, 2236.333 3019.672 C 2241.098 3022.136, 2251.519 3021.004, 2259.293 3017.176 C 2265.359 3014.190, 2275.408 3004.912, 2283.664 2994.674 L 2286.750 2990.848 2286.625 3003.174 C 2286.512 3014.334, 2286.724 3015.926, 2288.864 3020 C 2292.737 3027.371, 2296.027 3031.108, 2300.384 3033.087 C 2307.838 3036.472, 2310.366 3035.813, 2318.764 3028.296 C 2322.884 3024.609, 2327.659 3019.443, 2329.377 3016.814 C 2331.095 3014.186, 2332.778 3012.028, 2333.118 3012.018 C 2333.458 3012.008, 2333.991 3013.896, 2334.302 3016.214 C 2334.613 3018.531, 2336.915 3024.493, 2339.418 3029.464 C 2344.326 3039.209, 2346.410 3041.093, 2358.298 3046.536 C 2375.200 3054.274, 2395.235 3050.773, 2407.473 3037.943 C 2413.296 3031.838, 2421.104 3017.124, 2424.387 3006.068 C 2426.430 2999.191, 2426.507 2984.067, 2424.533 2977.432 C 2422.468 2970.486, 2412.233 2952.949, 2400.334 2935.967 C 2391.515 2923.381, 2389.456 2919.615, 2384.496 2907.004 C 2379.428 2894.117, 2378.841 2891.881, 2379.204 2886.852 C 2379.713 2879.823, 2383.335 2874.624, 2389.680 2871.817 C 2393.953 2869.927, 2394.182 2869.923, 2397.783 2871.686 C 2402.629 2874.057, 2403.843 2877.485, 2402.067 2883.773 C 2401.332 2886.373, 2400.244 2890.207, 2399.648 2892.293 C 2398.336 2896.884, 2399.524 2899.358, 2403.256 2899.807 C 2408.531 2900.442, 2414.015 2889.351, 2413.978 2878.124 C 2413.952 2870.133, 2411.812 2864.990, 2406.369 2859.835 C 2397.224 2851.174, 2386.463 2848.857, 2377.186 2853.553 M 1321.842 2883 C 1320.843 2887.516, 1320.545 2890.878, 1321.092 2891.450 C 1323.030 2893.478, 1324.087 2890.139, 1323.797 2882.903 L 1323.500 2875.500 1321.842 2883 M 1362.628 2889.936 C 1358.509 2894.894, 1347.456 2913.175, 1343.544 2921.500 C 1342.251 2924.250, 1339.769 2929.650, 1338.028 2933.500 L 1334.863 2940.500 1338.023 2937.500 C 1347.109 2928.876, 1368.565 2890.613, 1366.830 2886.129 C 1366.649 2885.659, 1364.757 2887.372, 1362.628 2889.936 M 1184.775 2891.534 C 1180.983 2893.626, 1180.280 2895.369, 1179.467 2904.687 C 1178.875 2911.477, 1179.103 2913.978, 1180.833 2919.669 C 1181.975 2923.426, 1183.521 2927.336, 1184.270 2928.358 C 1185.519 2930.063, 1185.855 2929.714, 1188.367 2924.117 C 1191.986 2916.053, 1194.153 2905.264, 1193.793 2897.110 C 1193.503 2890.557, 1193.474 2890.498, 1190.500 2890.265 C 1188.850 2890.136, 1186.274 2890.707, 1184.775 2891.534 M 1890.775 2891.559 C 1886.991 2893.612, 1886.280 2895.363, 1885.473 2904.614 C 1884.744 2912.976, 1886.148 2920.519, 1889.722 2927.429 L 1891.250 2930.384 1893.101 2926.942 C 1897.748 2918.299, 1901.329 2899.430, 1899.616 2892.606 C 1898.850 2889.555, 1895.252 2889.129, 1890.775 2891.559 M 1733.052 2893.150 C 1725.098 2895.479, 1717.382 2903.134, 1707.444 2918.556 C 1704.274 2923.475, 1699.337 2930.650, 1696.471 2934.500 C 1692.146 2940.312, 1674 2970.896, 1674 2972.374 C 1674 2972.620, 1672.124 2976.124, 1669.831 2980.160 C 1667.538 2984.197, 1663.938 2990.863, 1661.831 2994.972 L 1658 3002.445 1658 2978.617 C 1658 2954.138, 1657.150 2947.058, 1653.323 2939.657 C 1651.056 2935.275, 1647.053 2932, 1643.962 2932 C 1640.439 2932, 1631.696 2939.719, 1628.798 2945.387 C 1623.283 2956.176, 1611.471 2983.529, 1608.551 2992.273 C 1605.420 3001.650, 1603.232 3006.236, 1604.389 3000.998 C 1604.693 2999.624, 1605.387 2992.650, 1605.932 2985.500 C 1606.477 2978.350, 1607.681 2963.457, 1608.609 2952.405 C 1609.536 2941.353, 1610.006 2931.161, 1609.653 2929.755 C 1608.870 2926.634, 1605.264 2925.224, 1595.812 2924.346 C 1588.723 2923.687, 1586.340 2924.628, 1583.994 2929.012 C 1582.480 2931.841, 1578.960 2953.649, 1576.481 2975.567 C 1572.946 3006.822, 1574.017 3036.233, 1579.051 3046.100 C 1581.971 3051.823, 1586.394 3055, 1591.442 3055 C 1597.482 3055, 1600.597 3052.251, 1602.566 3045.184 C 1603.438 3042.058, 1608.117 3027.793, 1612.964 3013.484 C 1623.072 2983.647, 1630.938 2964.099, 1632.014 2966.139 C 1633.673 2969.285, 1633.832 2982.121, 1632.401 2997.285 C 1630.070 3021.978, 1631.852 3036.344, 1638.130 3043.496 C 1641.909 3047.799, 1646.857 3048.245, 1652.045 3044.749 C 1656.204 3041.946, 1661.237 3032.086, 1663.403 3022.500 C 1665.139 3014.814, 1678.853 2986.280, 1691.038 2965 C 1698.013 2952.819, 1714.545 2927, 1715.370 2927 C 1715.597 2927, 1713.997 2935.438, 1711.815 2945.750 C 1709.633 2956.063, 1707.202 2968.325, 1706.413 2973 C 1705.624 2977.675, 1704.250 2985.451, 1703.359 2990.279 C 1701.421 3000.794, 1701.943 3017.127, 1704.441 3024.105 C 1706.573 3030.061, 1714.569 3040.011, 1719.021 3042.248 C 1723.248 3044.373, 1730.835 3044.514, 1735.522 3042.555 C 1743.276 3039.315, 1751.977 3029.993, 1759.092 3017.303 L 1762.683 3010.896 1765.285 3014.307 C 1769.265 3019.525, 1774.002 3021.340, 1782.121 3020.759 C 1792.651 3020.006, 1797.931 3016.871, 1810.387 3003.978 C 1816.224 2997.936, 1821 2992.545, 1821 2991.997 C 1821 2991.448, 1821.345 2991, 1821.766 2991 C 1822.187 2991, 1822.244 2994.713, 1821.892 2999.250 C 1821.037 3010.287, 1822.249 3017.150, 1826.223 3023.784 C 1830.405 3030.764, 1835.471 3034.209, 1842.401 3034.783 C 1847.033 3035.167, 1847.915 3034.931, 1849.590 3032.855 C 1850.641 3031.553, 1853.362 3029.031, 1855.637 3027.250 C 1857.912 3025.468, 1862.537 3020.071, 1865.913 3015.256 C 1869.290 3010.440, 1874.782 3002.675, 1878.118 2998 C 1884.591 2988.929, 1894 2971.259, 1894 2968.173 C 1894 2962.989, 1885.612 2961.272, 1883.386 2966 C 1878.027 2977.378, 1873.066 2986.510, 1869.260 2992 C 1859.507 3006.069, 1849.609 3016.113, 1847.054 3014.533 C 1842.619 3011.792, 1851.308 2974.621, 1861.598 2952.310 C 1870.114 2933.846, 1870.953 2927.753, 1865.703 2922.503 C 1860.607 2917.407, 1851.679 2915.563, 1846.089 2918.454 C 1841.817 2920.663, 1837.865 2930.217, 1828.389 2961.255 C 1826.934 2966.020, 1824.360 2969.733, 1813.430 2982.828 C 1800.022 2998.892, 1792.170 3006.566, 1790.671 3005.070 C 1790.215 3004.615, 1789.619 3002.500, 1789.345 3000.371 C 1788.284 2992.108, 1802.776 2941.743, 1809.024 2931.976 C 1812.678 2926.264, 1817.518 2921.584, 1818.892 2922.433 C 1820.751 2923.582, 1822.134 2930.977, 1821.840 2938.191 C 1821.597 2944.143, 1821.842 2945.412, 1823.468 2946.600 C 1826.154 2948.564, 1828.378 2948.344, 1830.595 2945.895 C 1832.191 2944.131, 1832.500 2942.226, 1832.500 2934.145 C 1832.500 2926.016, 1832.127 2923.743, 1830.127 2919.681 C 1822.965 2905.133, 1813.132 2901.722, 1798.757 2908.799 C 1791.460 2912.391, 1784.589 2918.625, 1779.603 2926.177 C 1772.476 2936.974, 1761.541 2968.480, 1759.014 2985.500 C 1758.026 2992.153, 1756.803 2995.396, 1751.748 3004.761 C 1745.412 3016.501, 1737.108 3026, 1733.182 3026 C 1728.755 3026, 1728.574 3024.161, 1730.987 3003.727 C 1732.236 2993.152, 1734.109 2981.350, 1735.149 2977.500 C 1736.189 2973.650, 1738.344 2964.200, 1739.938 2956.500 C 1741.532 2948.800, 1743.998 2937.918, 1745.418 2932.319 C 1748.380 2920.637, 1748.656 2912.778, 1746.443 2903.051 C 1744.290 2893.581, 1740.684 2890.915, 1733.052 2893.150 M 1087.738 2897.329 C 1084.165 2900.902, 1068.765 2926.371, 1062.239 2939.500 C 1045.521 2973.135, 1042.401 3018.546, 1055.502 3037.567 C 1072.216 3061.835, 1098.480 3051.023, 1117.609 3012 C 1119.901 3007.325, 1122.684 3002.681, 1123.795 3001.679 C 1124.905 3000.678, 1128.443 2999.176, 1131.657 2998.341 C 1140.632 2996.009, 1151.870 2989.660, 1161.639 2981.402 C 1166.512 2977.282, 1172.378 2972.469, 1174.673 2970.706 C 1182.745 2964.505, 1183.281 2957, 1175.653 2957 C 1172.530 2957, 1169.123 2959.461, 1156.516 2970.822 C 1152.034 2974.861, 1146.186 2978.792, 1140.324 2981.708 C 1130.600 2986.544, 1127.244 2986.834, 1128.410 2982.738 C 1133.532 2964.745, 1134.902 2943.319, 1131.622 2932.500 C 1130.058 2927.341, 1128.765 2925.501, 1122.401 2919.377 C 1115.520 2912.755, 1115 2911.962, 1115 2908.082 C 1115 2903.093, 1112.695 2900.399, 1105.160 2896.581 C 1097.674 2892.788, 1092.037 2893.030, 1087.738 2897.329 M 2197.198 2914.127 C 2193.247 2916.682, 2187.551 2924.835, 2182.187 2935.612 C 2176.243 2947.557, 2171.155 2963, 2173.165 2963 C 2175.389 2963, 2195.596 2941.334, 2199.281 2935 C 2208.517 2919.121, 2207.363 2907.553, 2197.198 2914.127 M 2448.898 2925.285 C 2445.350 2927.671, 2443.577 2931.631, 2437.606 2950.500 C 2434.369 2960.729, 2431 2979.580, 2431 2987.465 C 2431 3000.386, 2435.778 3011.651, 2445.543 3021.750 C 2452.415 3028.858, 2453.792 3029.175, 2466.280 3026.529 C 2475.448 3024.586, 2482.033 3020.789, 2488.819 3013.532 C 2494.302 3007.668, 2505.731 2991.607, 2511.466 2981.705 C 2512.993 2979.067, 2514.404 2977.070, 2514.600 2977.266 C 2515.064 2977.730, 2511.371 2991.340, 2505.176 3012 C 2502.455 3021.075, 2498.562 3035.475, 2496.526 3044 C 2492.073 3062.637, 2492.034 3062.774, 2481.849 3095.500 C 2473.563 3122.123, 2466.228 3141.864, 2460.671 3152.500 C 2456.193 3161.071, 2442.381 3174.638, 2434 3178.698 C 2417.109 3186.882, 2401.125 3184.231, 2387.913 3171.057 C 2379.696 3162.864, 2377.626 3156.929, 2377.604 3141.500 C 2377.583 3127.319, 2379.418 3119.760, 2384.969 3111.164 C 2386.981 3108.049, 2390.570 3102.125, 2392.947 3098 C 2398.589 3088.206, 2401.398 3085.237, 2407.706 3082.403 C 2413.808 3079.661, 2416.385 3076.384, 2415.431 3072.580 C 2414.418 3068.544, 2412.024 3067.804, 2405.885 3069.627 C 2396.845 3072.311, 2393.051 3075.742, 2384.244 3089.195 C 2370.611 3110.018, 2365.759 3121.663, 2364.496 3136.587 C 2363.079 3153.335, 2368.613 3167.685, 2381.457 3180.566 C 2389.710 3188.842, 2394.683 3192.162, 2404.742 3196.110 C 2409.522 3197.986, 2412.454 3198.373, 2422 3198.389 C 2431.928 3198.406, 2434.503 3198.048, 2440.835 3195.775 C 2451.410 3191.978, 2458.377 3187.519, 2467.049 3179 C 2487.525 3158.882, 2501.344 3128.234, 2518 3066 C 2521.901 3051.425, 2526.405 3035.225, 2528.011 3030 C 2529.616 3024.775, 2533.177 3011.725, 2535.925 3001 C 2538.673 2990.275, 2542.705 2974.651, 2544.885 2966.279 C 2550.005 2946.620, 2550.757 2940.804, 2548.606 2937.521 C 2546.149 2933.771, 2541.423 2931.698, 2537.156 2932.498 C 2532.154 2933.437, 2517.978 2947.823, 2511.533 2958.500 C 2498.399 2980.260, 2487.776 2995.003, 2479.872 3002.439 C 2472.033 3009.813, 2467.806 3012.206, 2465.930 3010.330 C 2463.905 3008.305, 2462.779 2997.280, 2463.414 2985.705 C 2464.202 2971.343, 2466.110 2959.884, 2470.031 2945.954 C 2473.189 2934.736, 2473.792 2927.846, 2471.750 2926.296 C 2470.010 2924.976, 2460.612 2923, 2456.072 2923 C 2453.797 2923, 2450.945 2923.908, 2448.898 2925.285 M 1109.042 2929.958 C 1107.966 2931.034, 1103.694 2938.688, 1099.550 2946.966 C 1095.406 2955.244, 1090.887 2963.804, 1089.507 2965.988 C 1085.567 2972.230, 1086.528 2977.451, 1092.661 2983.128 C 1097.091 2987.228, 1099.348 2988, 1106.899 2988 C 1115.117 2988, 1114.683 2988.470, 1118.572 2975.376 C 1120.528 2968.789, 1121.340 2963.405, 1121.720 2954.500 C 1122.342 2939.923, 1121.315 2935.362, 1116.451 2931.091 C 1112.317 2927.462, 1111.642 2927.358, 1109.042 2929.958 M 1732.003 2936.497 C 1730.434 2938.387, 1721.127 2988.549, 1720.178 3000.230 C 1719.600 3007.342, 1719.707 3008.722, 1720.754 3007.675 C 1722.665 3005.764, 1728 2983.585, 1728 2977.552 C 1728 2974.673, 1728.670 2970.109, 1729.489 2967.409 C 1730.308 2964.709, 1730.983 2960.432, 1730.989 2957.904 C 1730.995 2955.376, 1731.700 2951.905, 1732.555 2950.190 C 1733.716 2947.862, 1733.843 2946.575, 1733.055 2945.103 C 1731.640 2942.459, 1731.718 2937.682, 1733.200 2936.200 C 1733.860 2935.540, 1734.140 2935, 1733.822 2935 C 1733.505 2935, 1732.686 2935.674, 1732.003 2936.497 M 947.768 2953.579 C 946.251 2956.070, 949.599 3021.486, 951.986 3036 C 952.484 3039.025, 953.194 3044.544, 953.564 3048.264 C 953.933 3051.984, 954.633 3055.273, 955.118 3055.573 C 956.444 3056.393, 956.202 3052.533, 954.007 3037.840 C 952.648 3028.749, 952.011 3019.323, 952.007 3008.246 C 951.999 2990.589, 950.179 2957.670, 949.038 2954.579 C 948.648 2953.522, 948.077 2953.072, 947.768 2953.579 M 2533.717 2958.663 C 2532.789 2960.188, 2527.994 2981.138, 2527.377 2986.364 C 2527.044 2989.189, 2525.652 2994.182, 2524.284 2997.460 C 2522.917 3000.738, 2521.489 3006.650, 2521.112 3010.598 C 2520.605 3015.906, 2519.746 3018.783, 2517.816 3021.638 C 2515.720 3024.740, 2515.117 3027.020, 2514.755 3033.220 C 2514.409 3039.142, 2513.598 3042.402, 2511.271 3047.220 C 2509.421 3051.049, 2508.015 3055.841, 2507.669 3059.500 C 2507.283 3063.575, 2505.960 3067.726, 2503.546 3072.438 C 2500.947 3077.509, 2500.318 3079.578, 2501.206 3080.127 C 2502.116 3080.690, 2501.992 3081.352, 2500.710 3082.768 C 2498.629 3085.067, 2498.554 3086.385, 2500.415 3087.930 C 2501.598 3088.911, 2502.511 3086.947, 2505.966 3075.990 C 2508.240 3068.777, 2513.259 3051.316, 2517.120 3037.187 C 2530.948 2986.582, 2536.878 2960.583, 2535.031 2958.663 C 2534.588 2958.202, 2533.997 2958.202, 2533.717 2958.663 M 1212.200 2973.200 C 1211.540 2973.860, 1211 2975.516, 1211 2976.881 C 1211 2978.245, 1209.878 2986.593, 1208.508 2995.431 C 1206.855 3006.085, 1206.291 3012.511, 1206.834 3014.500 C 1207.598 3017.303, 1207.721 3017.369, 1208.706 3015.500 C 1210.209 3012.650, 1212.876 3000.228, 1213.001 2995.500 C 1213.265 2985.514, 1213.615 2982.368, 1214.660 2980.569 C 1215.531 2979.071, 1215.453 2978.310, 1214.313 2977.170 C 1213.506 2976.363, 1213.063 2974.869, 1213.329 2973.851 C 1213.898 2971.672, 1213.790 2971.610, 1212.200 2973.200 M 1917.729 2973.604 C 1917.328 2974.005, 1917 2975.465, 1917 2976.847 C 1917 2978.230, 1915.878 2986.593, 1914.508 2995.431 C 1912.855 3006.085, 1912.291 3012.511, 1912.834 3014.500 C 1913.598 3017.303, 1913.721 3017.369, 1914.706 3015.500 C 1916.209 3012.650, 1918.876 3000.228, 1919.001 2995.500 C 1919.265 2985.521, 1919.642 2982.347, 1920.814 2980.250 C 1921.505 2979.012, 1921.642 2978, 1921.119 2978 C 1920.595 2978, 1919.782 2976.847, 1919.313 2975.438 C 1918.843 2974.028, 1918.130 2973.203, 1917.729 2973.604 M 1079.100 2993.721 C 1077.610 2999.394, 1075.007 3015.095, 1075.003 3018.434 C 1074.996 3025.386, 1082.258 3034.005, 1086.886 3032.536 C 1090.857 3031.276, 1100.022 3020.146, 1104.117 3011.612 C 1106.358 3006.941, 1107.936 3002.706, 1107.624 3002.201 C 1107.312 3001.695, 1104.535 3000.986, 1101.454 3000.624 C 1094.338 2999.787, 1089.762 2997.865, 1084.373 2993.450 L 1080.093 2989.942 1079.100 2993.721" stroke="none" fill="#fbfbfb" fill-rule="evenodd"/></svg>